<?xml version="1.0" encoding="utf-8"?>
<!-- Generator: Adobe Illustrator 27.5.0, SVG Export Plug-In . SVG Version: 6.00 Build 0)  -->
<svg version="1.1" xmlns="http://www.w3.org/2000/svg" xmlns:xlink="http://www.w3.org/1999/xlink" x="0px" y="0px"
	 viewBox="0 0 750 500" style="enable-background:new 0 0 750 500;" xml:space="preserve">
<g id="BACKGROUND">
	<g>
		<rect style="fill:#E0F2FF;" width="750" height="500"/>
		<g>
			<g>
				<rect x="147.067" y="50.6" style="fill:#FFFFFF;" width="214.596" height="138.4"/>
			</g>
			<g>
				<rect x="374.405" y="50.6" style="fill:#FFFFFF;" width="214.596" height="138.4"/>
			</g>
		</g>
	</g>
	<g>
		<rect y="303.667" style="fill:#C6E3F7;" width="750" height="196.333"/>
		<g style="opacity:0.3;">
			<g>
				<polygon style="fill:#FFFFFF;" points="447.876,416 233.28,416 150.853,331.6 365.449,331.6 				"/>
			</g>
			<g>
				<polygon style="fill:#FFFFFF;" points="675.213,416 460.618,416 378.191,331.6 592.787,331.6 				"/>
			</g>
		</g>
	</g>
</g>
<g id="OBJECTS">
	<g>
		<g>
			<g>
				<ellipse style="fill:#FFFFFF;" cx="539.957" cy="389.246" rx="145.75" ry="30.25"/>
			</g>
			<g>
				<g>
					<path style="fill:#7B8CE4;" d="M539.957,414.996c-36.22,0-70.77-3.228-97.288-9.092c-17.768-3.928-27.769-8.146-33.029-10.992
						c-2.306-1.247-3.683-3.553-3.683-6.166c0-2.613,1.377-4.919,3.683-6.166c5.264-2.848,15.267-7.066,33.029-10.992
						c26.517-5.863,61.068-9.092,97.288-9.092c36.22,0,70.771,3.229,97.288,9.092c17.763,3.927,27.765,8.145,33.028,10.992
						c2.306,1.247,3.682,3.553,3.682,6.166c0,2.613-1.376,4.919-3.682,6.166c-5.261,2.847-15.261,7.064-33.029,10.992
						C610.728,411.768,576.177,414.996,539.957,414.996z M539.957,363.496c-36.149,0-70.623,3.221-97.071,9.068
						c-17.651,3.901-27.563,8.078-32.77,10.895c-1.977,1.07-3.159,3.047-3.159,5.287s1.182,4.217,3.159,5.287
						c5.204,2.815,15.114,6.992,32.77,10.895c26.448,5.848,60.922,9.068,97.071,9.068c36.15,0,70.623-3.221,97.071-9.068
						c17.655-3.902,27.564-8.079,32.769-10.895c1.978-1.07,3.158-3.047,3.158-5.287s-1.181-4.217-3.158-5.287
						c-5.206-2.816-15.118-6.993-32.769-10.895C610.58,366.717,576.107,363.496,539.957,363.496z"/>
				</g>
				<g>
					<path style="fill:#7B8CE4;" d="M539.957,401.33c-22.865,0-44.678-1.777-61.422-5.005c-11.227-2.164-17.551-4.489-20.88-6.06
						c-1.531-0.722-2.445-2.068-2.445-3.603c0-1.534,0.914-2.881,2.445-3.603c3.329-1.57,9.653-3.895,20.88-6.059
						c16.744-3.228,38.557-5.005,61.422-5.005c22.864,0,44.677,1.777,61.421,5.005c11.227,2.164,17.551,4.489,20.88,6.059
						c1.531,0.722,2.445,2.068,2.445,3.603c0,1.534-0.914,2.881-2.445,3.603c-3.329,1.57-9.653,3.896-20.88,6.06
						C584.634,399.553,562.822,401.33,539.957,401.33z M539.957,372.996c-22.803,0-44.55,1.772-61.232,4.987
						c-11.124,2.144-17.366,4.436-20.644,5.981c-1.172,0.553-1.871,1.562-1.871,2.698c0,1.137,0.699,2.146,1.871,2.698
						c3.277,1.546,9.52,3.838,20.644,5.982c16.683,3.216,38.43,4.987,61.232,4.987c22.803,0,44.549-1.772,61.232-4.987
						c11.124-2.144,17.366-4.436,20.643-5.982c1.172-0.553,1.871-1.561,1.871-2.698c0-1.137-0.699-2.145-1.871-2.698
						c-3.277-1.546-9.519-3.838-20.643-5.981C584.506,374.768,562.76,372.996,539.957,372.996z"/>
				</g>
			</g>
		</g>
		<g>
			<g>
				<g>
					<g>
						<polygon style="fill:#FFD16F;" points="434.456,400.49 425.961,400.49 451.207,341.779 462.454,341.779 						"/>
					</g>
					<g>
						<polygon style="fill:#FFD16F;" points="645.458,400.49 653.952,400.49 628.707,341.779 617.46,341.779 						"/>
					</g>
				</g>
				<g>
					<g>
						<polygon style="fill:#EDC05F;" points="607.273,383.06 615.767,383.06 590.522,324.349 579.275,324.349 						"/>
					</g>
					<g>
						<polygon style="fill:#EDC05F;" points="472.641,383.06 464.147,383.06 489.392,324.349 500.639,324.349 						"/>
					</g>
				</g>
				<g>
					<g>
						<path style="fill:#EDC05F;" d="M666.093,330.771H413.809v8.58h0.008c-0.001,0.013-0.012,0.027-0.012,0.04
							c0,5.743,56.48,10.398,126.152,10.398c69.672,0,126.152-4.655,126.152-10.398c0-0.017-0.015-0.034-0.016-0.051V330.771z"/>
					</g>
					<g>
						<ellipse style="fill:#FFD16F;" cx="539.957" cy="330.834" rx="126.152" ry="10.398"/>
					</g>
				</g>
			</g>
			<g>
				<g>
					<g>
						<path style="fill:#7B8CE4;" d="M538.339,288.51c-3.742-4.89-6.06-10.856-6.603-16.99c-0.27-3.055-0.11-6.133-0.275-9.196
							c-0.165-3.063-0.683-6.181-2.191-8.853c2.681,2.987,4.921,6.38,6.794,9.929c0.778,1.474,1.48,2.987,2.182,4.5
							c0.529,1.141,1.062,2.29,1.369,3.509c0.388,1.54,0.407,3.147,0.615,4.721c0.191,1.446,0.542,2.871,0.642,4.326
							c0.157,2.291-0.312,4.574-0.778,6.823C539.972,287.861,538.913,288.365,538.339,288.51z"/>
					</g>
					<g>
						<path style="fill:#7B8CE4;" d="M543.664,289.293c-0.934-1.899-0.405-4.158,0.141-6.203
							c2.728-10.209,5.455-20.417,8.183-30.626c1.682,6.114,0.738,12.442-0.133,18.723c-0.783,5.647-1.566,11.295-2.349,16.942
							c-0.03,0.213-0.391,0.098-0.592,0.177C547.405,288.894,545.252,288.975,543.664,289.293z"/>
					</g>
					<g>
						<g>
							<path style="fill:#2C2D87;" d="M542.648,294.589c-2.008,0.358-4.924,0.502-6.955,0.645
								c-1.494-5.198-4.171-9.931-6.907-14.639c-1.362-2.318-2.725-4.625-3.968-6.991c-1.494-2.796-2.808-5.676-3.741-8.7
								c-0.024-0.06-0.036-0.12-0.06-0.179c-0.597-1.984-1.028-4.027-1.565-6.035c-0.06-0.203-0.108-0.406-0.167-0.609
								c-0.992-3.513-2.438-6.525-4.278-9.68c3.167,2.438,6.095,5.21,8.712,8.222c1.649,1.9,3.167,3.896,4.565,5.987
								c1.111,1.661,2.139,3.382,3.071,5.139c0.538,1.016,1.04,2.044,1.53,3.083c1.171,2.498,2.223,5.055,3.251,7.613
								c0.096,0.239,0.191,0.478,0.287,0.717C538.501,284.299,540.569,289.45,542.648,294.589z"/>
						</g>
						<g style="opacity:0.5;">
							<g>
								<path style="fill:#2C2D87;" d="M528.284,262.609c-0.908,0.167-1.852,0.072-2.784,0.167
									c-1.661,0.167-3.251,0.944-4.422,2.127c-0.024-0.06-0.036-0.12-0.06-0.179c-0.597-1.984-1.028-4.027-1.565-6.035
									c0.92,0.191,1.852,0.203,2.653-0.227c0.741-0.394,1.243-1.087,1.613-1.84C525.368,258.522,526.885,260.518,528.284,262.609z
									"/>
							</g>
							<g>
								<path style="fill:#2C2D87;" d="M536.135,278.444c-0.12,0.203-0.275,0.382-0.454,0.538c-0.956,0.813-2.378,0.645-3.633,0.55
									c-1.207-0.096-2.653,0.06-3.263,1.064c-1.362-2.318-2.725-4.625-3.968-6.991c0.359,0,0.705,0.048,1.052,0.143
									c1.135,0.335,2.175,1.147,3.358,1.064c1.386-0.084,2.39-1.362,2.928-2.629c0.203-0.478,0.37-0.98,0.729-1.35
									C534.056,273.329,535.107,275.886,536.135,278.444z"/>
							</g>
						</g>
					</g>
					<g>
						<g>
							<path style="fill:#2C2D87;" d="M536.171,295.963c-1.219,0.203-3.418,0.609-4.171-0.371c-0.275-0.335-0.406-0.765-0.526-1.183
								c-0.836-2.796-1.745-5.653-3.561-7.935c-2.199-2.76-5.426-4.326-8.557-6.023c-1.9-1.028-3.764-2.103-5.354-3.525
								c-0.371-0.323-0.717-0.669-1.052-1.04c-2.701-2.94-4.147-6.955-4.015-10.959c1.697,3.92,5.306,6.621,9.13,8.64
								c0.49,0.251,0.98,0.49,1.47,0.729c1.111,0.526,2.235,1.028,3.322,1.59c1.422,0.729,2.773,1.553,3.92,2.653
								c1.159,1.123,2.044,2.486,2.928,3.848C532.454,286.618,535.263,291.004,536.171,295.963z"/>
						</g>
						<g style="opacity:0.5;">
							<path style="fill:#2C2D87;" d="M522.858,275.886c-0.538,0.107-1.076,0.203-1.542,0.49c-1.303,0.801-1.386,2.653-1.96,4.075
								c-1.9-1.028-3.764-2.103-5.354-3.525c-0.371-0.323-0.717-0.669-1.052-1.04c0.394-0.12,0.813-0.191,1.207-0.203
								c1.147-0.048,2.462,0,3.25-0.836c0.335-0.347,0.526-0.801,0.657-1.279c0.49,0.251,0.98,0.49,1.47,0.729
								C520.647,274.822,521.771,275.324,522.858,275.886z"/>
						</g>
					</g>
					<g>
						<g>
							<path style="fill:#2C2D87;" d="M545.875,281.144c-0.024,1.912-0.107,3.872-0.263,5.844c-0.191,2.569-0.502,5.175-0.956,7.78
								l-3.179,0.358c-0.359-0.574-0.609-1.219-0.825-1.864c-0.753-2.199-1.291-4.446-1.673-6.728
								c-0.299-1.852-0.502-3.717-0.609-5.605c-0.108-1.769-0.143-3.561-0.108-5.354c0.024-1.804,0.096-3.597,0.215-5.39
								c0-0.048,0.012-0.096,0.012-0.143c0.191-2.892,0.466-5.784,0.86-8.652c0.275-2.103,0.609-4.207,1.016-6.286
								c0.371-2.008,0.801-3.991,1.303-5.975c0,0,0.801,2.641,1.721,7.015c0.406,1.972,0.825,4.302,1.207,6.896
								c0.323,2.127,0.609,4.446,0.825,6.895c0.167,1.745,0.287,3.561,0.37,5.426C545.863,277.237,545.899,279.172,545.875,281.144z
								"/>
						</g>
						<g style="opacity:0.5;">
							<g>
								<path style="fill:#2C2D87;" d="M544.596,263.039c-0.681-0.191-1.338-0.55-1.96-0.896c-1.004-0.55-2.187-1.076-3.286-0.753
									c0.275-2.103,0.609-4.207,1.016-6.286c0.251,0.143,0.502,0.299,0.753,0.442c0.681,0.394,1.494,0.621,2.271,0.598
									C543.795,258.116,544.214,260.446,544.596,263.039z"/>
							</g>
							<g>
								<path style="fill:#2C2D87;" d="M545.791,275.36c-0.693-0.096-1.35-0.466-2.008-0.729c-1.685-0.633-3.681-0.37-5.139,0.681
									c-0.12,0.084-0.251,0.179-0.383,0.263c0.024-1.804,0.096-3.597,0.215-5.39c0-0.048,0.012-0.096,0.012-0.143
									c0.418,0.179,0.753,0.55,1.111,0.837c1.028,0.801,2.569,0.884,3.681,0.191c0.43-0.251,0.789-0.609,1.219-0.849
									c0.287-0.155,0.598-0.251,0.92-0.287C545.588,271.679,545.707,273.496,545.791,275.36z"/>
							</g>
							<g>
								<path style="fill:#2C2D87;" d="M545.875,281.144c-0.024,1.912-0.107,3.872-0.263,5.844
									c-0.789-0.072-1.506-0.514-2.259-0.777c-1.422-0.502-3.047-0.358-4.374,0.323c-0.299-1.852-0.502-3.717-0.609-5.605
									c0.311-0.096,0.609-0.132,0.872-0.12c0.777,0.036,1.482,0.406,2.199,0.669c1.147,0.43,2.438,0.633,3.561,0.167
									C545.241,281.551,545.54,281.348,545.875,281.144z"/>
							</g>
						</g>
					</g>
					<g>
						<g>
							<path style="fill:#2C2D87;" d="M566.764,258.797c-0.394,2.521-1.088,5.019-2.008,7.445c-0.992,2.641-2.247,5.21-3.693,7.648
								c-0.717,1.219-1.482,2.414-2.283,3.561c0,0,0,0.012-0.012,0.012c-0.872,1.255-1.792,2.474-2.713,3.693
								c-1.183,1.565-2.366,3.143-3.43,4.804c-0.024,0.036-0.036,0.06-0.06,0.096c-1.864,2.916-3.346,6.167-3.645,9.62
								c-1.41-0.693-2.677-1.111-4.171-1.601c-0.382-2.115,0.215-4.278,0.836-6.334c0.347-1.123,0.705-2.235,1.088-3.346
								c0.657-1.888,1.374-3.741,2.211-5.545c0.406-0.896,0.837-1.781,1.315-2.641c0.49-0.896,1.016-1.781,1.566-2.641
								c1.004-1.565,2.091-3.095,3.227-4.589c1.422-1.9,2.904-3.753,4.338-5.629c1.41-1.84,2.772-3.693,4.003-5.629
								c1.446-2.271,2.713-4.649,3.621-7.206C567.29,253.288,567.195,256.06,566.764,258.797z"/>
						</g>
						<g style="opacity:0.5;">
							<g>
								<path style="fill:#2C2D87;" d="M566.764,258.797c-0.394,2.521-1.088,5.019-2.008,7.445
									c-0.096-0.251-0.179-0.526-0.287-0.777c-0.394-0.861-1.231-1.458-2.139-1.757c-0.896-0.299-1.864-0.346-2.82-0.358h-0.179
									c1.41-1.84,2.772-3.693,4.003-5.629c0.371,0.418,0.753,0.801,1.267,0.992c0.335,0.12,0.681,0.143,1.04,0.143
									C566.023,258.857,566.394,258.833,566.764,258.797z"/>
							</g>
							<g>
								<path style="fill:#2C2D87;" d="M561.064,273.89c-0.717,1.219-1.482,2.414-2.283,3.561c0,0,0,0.012-0.012,0.012
									c-0.382-0.454-0.729-0.992-1.159-1.386c-1.303-1.183-3.263-1.087-4.924-1.673c-0.311-0.108-0.633-0.251-0.801-0.538
									c-0.06-0.096-0.096-0.191-0.12-0.299c1.004-1.565,2.091-3.095,3.227-4.589c0.765,0.526,1.183,1.398,1.733,2.151
									C557.766,272.54,559.355,273.52,561.064,273.89z"/>
							</g>
							<g>
								<path style="fill:#2C2D87;" d="M556.057,281.156c-1.183,1.565-2.366,3.143-3.43,4.804c-0.024,0.036-0.036,0.06-0.06,0.096
									c-0.251-0.096-0.49-0.275-0.717-0.43c-1.494-1.004-3.382-1.458-5.175-1.231c0.657-1.888,1.374-3.741,2.211-5.545
									c0.143,0.132,0.287,0.251,0.43,0.382c0.502,0.454,0.968,0.944,1.565,1.243c1.052,0.55,2.294,0.43,3.478,0.442
									C554.921,280.929,555.519,280.989,556.057,281.156z"/>
							</g>
						</g>
					</g>
					<g>
						<g>
							<path style="fill:#2C2D87;" d="M568.856,279.925c-0.574,1.075-1.279,2.079-2.056,2.976c-0.681,0.789-1.434,1.506-2.223,2.175
								c-1.243,1.064-2.605,2.008-4.015,2.868c-0.801,0.514-1.637,0.992-2.462,1.458c-0.12,0.072-0.227,0.132-0.347,0.191
								c-1.099,0.633-2.199,1.255-3.167,2.043c-1.303,1.064-2.366,2.414-3.083,3.92c-1.386-0.669-2.784-1.076-4.075-1.912
								c0.861-2.581,2.044-5.115,3.729-7.23c0.765-0.968,1.649-1.852,2.641-2.617c1.362-1.04,2.892-1.805,4.47-2.498
								c1.661-0.729,3.37-1.374,4.983-2.199c0.514-0.251,1.004-0.526,1.494-0.825c0.825-0.514,1.613-1.1,2.354-1.745
								c1.255-1.087,2.354-2.366,3.25-3.776C570.708,275.193,570.063,277.703,568.856,279.925z"/>
						</g>
						<g style="opacity:0.5;">
							<g>
								<path style="fill:#2C2D87;" d="M568.856,279.925c-0.574,1.075-1.279,2.079-2.056,2.976
									c-0.681,0.789-1.434,1.506-2.223,2.175c-0.622-0.729-0.55-1.888-0.478-2.88c0.096-1.076,0-2.402-0.944-2.928
									c0.036-0.06,0.06-0.12,0.096-0.167c0.514-0.251,1.004-0.526,1.494-0.825c0.825-0.514,1.613-1.1,2.354-1.745
									c0.335,0.287,0.597,0.681,0.729,1.111c0.155,0.502,0.191,1.04,0.418,1.506C568.39,279.459,568.605,279.71,568.856,279.925z"
									/>
							</g>
							<g>
								<path style="fill:#2C2D87;" d="M560.562,287.944c-0.801,0.514-1.637,0.992-2.462,1.458c-0.12,0.072-0.227,0.132-0.347,0.191
									c-0.275-0.741-0.86-1.362-1.578-1.697c-1.553-0.693-3.657-0.06-4.84-1.279c-0.06-0.06-0.12-0.131-0.179-0.203
									c0.765-0.968,1.649-1.852,2.641-2.617c1.362-1.04,2.892-1.805,4.47-2.498c0.12,0.072,0.239,0.155,0.358,0.251
									c0.896,0.753,1.195,1.984,1.327,3.143C560.072,285.793,560.108,286.94,560.562,287.944z"/>
							</g>
						</g>
					</g>
				</g>
				<g>
					<g>
						<path style="fill:#FFFFFF;" d="M560.844,289.547l-17.633,0.079l-17.633-0.079c0,0-10.508,14.635-10.132,22.516
							c0.375,7.88,9.131,13.509,9.131,13.509h0.24h36.786h0.24c0,0,8.756-5.629,9.132-13.509
							C571.352,304.182,560.844,289.547,560.844,289.547z"/>
					</g>
					<g style="opacity:0.5;">
						<polygon style="fill:#FFFFFF;" points="564.602,328.324 521.822,328.324 519.945,324.29 566.478,324.29 						"/>
					</g>
				</g>
			</g>
		</g>
	</g>
	<g>
		<g>
			<g>
				<path style="fill:#2C2D87;" d="M342.5,401.25c-2.625-0.25-15-10.909-15-10.909l2.273-7.483l-20.634-2.494
					c0,0-7.936,10.657-7.709,14.285c0.04,0.64,0.314,1.397,0.725,2.203l-0.03,0.022c0,0,0.136,0.218,0.349,0.56
					c0.255,0.444,0.534,0.895,0.848,1.353c1.555,2.469,4.121,6.493,4.552,6.837c0.625,0.5,36.25,0.75,37.125,0.375
					S345.125,401.5,342.5,401.25z"/>
			</g>
			<g>
				<path style="fill:#2C2D87;" d="M283.595,371.365L283.595,371.365c3.772,4.828,4.213,11.471,1.111,16.755l-1.611,2.745
					c0,0-8.75,0.5-9,1.5s2.5,4,2.5,4s17.5,0,19,0s13-22,13.75-26.5s-1.5-11.75-2.5-12.75s-15-5.25-15-5.25L283.595,371.365z"/>
			</g>
			<g>
				<g>
					<g>
						<path style="fill:#7B8CE4;" d="M249.125,301.125c0,0-64.25,16-68.75,54.375c0,0,1.5,12.25,15,15.875s89,2.25,89,2.25
							L295.5,351.5l-24.75-2.625l26.25-7.5l16.75,1.375l-6.375,40l22.5,2.625c0,0,31.5-58,38.25-84.5s-9.078-31.867-12.458-31.542
							C347,270.167,318.25,284.75,318.25,284.75l-27.375,19.125l-8-2.625L249.125,301.125z"/>
					</g>
				</g>
				<g style="opacity:0.5;">
					<g>
						<path style="fill:#7B8CE4;" d="M227.75,345.75c3.557,0.065,7.106,0.24,10.654,0.431c3.549,0.18,7.091,0.438,10.634,0.696
							c3.541,0.282,7.081,0.566,10.616,0.927l5.302,0.545c1.764,0.218,3.532,0.402,5.294,0.651c-1.78-0.022-3.554-0.109-5.331-0.162
							l-5.323-0.267c-3.549-0.181-7.091-0.438-10.634-0.698c-3.541-0.283-7.081-0.567-10.616-0.929
							C234.81,346.594,231.276,346.227,227.75,345.75z"/>
					</g>
					<g>
						<path style="fill:#7B8CE4;" d="M314.25,342c0.527-2.832,1.202-5.63,1.922-8.415c0.712-2.788,1.535-5.547,2.397-8.293
							c0.891-2.738,1.839-5.461,2.941-8.126c1.108-2.654,2.297-5.322,3.99-7.665c-0.307,0.656-0.659,1.277-0.945,1.935
							c-0.274,0.664-0.577,1.31-0.825,1.983l-0.781,1.999l-0.72,2.024c-0.925,2.711-1.843,5.424-2.708,8.157l-2.613,8.2
							C316.035,336.533,315.175,339.273,314.25,342z"/>
					</g>
				</g>
			</g>
		</g>
		<g>
			<g>
				<g>
					<path style="fill:#FFA29E;" d="M291.804,198.521c-2.813-0.058-6.08-0.025-9.688,0.171l-3.705-29.556l-21.372,2.679
						l3.705,29.556c-2.931,0.579-5.612,1.209-7.983,1.834c2.85,5.018,5.059,10.605,8.716,14.977
						c5.303,6.34,12.072,11.32,19.837,14.089c0.037-0.048,0.077-0.101,0.113-0.147c2.084-2.673,3.985-5.614,5.505-8.647
						c2.903-5.791,4.384-12.278,5.517-18.619c0.018-0.102,0.03-0.207,0.048-0.309C292.332,202.513,292.088,200.499,291.804,198.521z
						"/>
					<g>
						<path style="fill:#DB7474;" d="M280.38,184.829l0.447,3.562c-4.62,4.389-9.318,4.534-9.318,4.534l-1.905,0.239
							c0,0-4.589,1.019-10.149-2.094l-0.445-3.552c5.56,3.113,10.148,2.084,10.148,2.084l1.905-0.239
							C271.062,189.364,275.762,189.228,280.38,184.829z"/>
					</g>
				</g>
				<g>
					<g>
						<path style="fill:#FFFFFF;" d="M332.83,196l-0.26,1.57l-4.97,30.64l-0.1,0.62l-12.34-0.76c0,0.03,0.01,0.07,0.01,0.1
							c0.16,4.33,1.16,52,1.16,52s4.17,4.16,3.5,5.33c-0.66,1.17-23.33,30.33-23.33,30.33l-12-13l-9.5,16.84l-29.67-17.84
							c0,0,2.5-6,3.84-6.33c1.14-0.29-4.44-24.51-6.06-31.47l-7.28,7.97c-0.29-0.01-0.63-0.12-1-0.32
							c-4.67-2.51-15.29-18.84-18.73-24.26c-0.7-1.1-1.1-1.75-1.1-1.75l20.5-31.84c0,0,1.74-4.63,8.46-8.47
							c7.92-5.04,16.21-4.69,16.21-4.69s13.66,15.83,15.16,16.5c1.5,0.66,6.67-19.08,6.67-19.08l28.5-2.76L332.83,196z"/>
					</g>
					<g>
						<g>
							<path style="fill:#7B8CE4;" d="M275.625,217.375c0.955,7.03,1.801,14.072,2.631,21.116l2.366,21.144l2.136,21.168
								l0.986,10.593c0.292,3.535,0.619,7.066,0.881,10.604c-0.488-3.514-0.911-7.035-1.369-10.552l-1.264-10.563l-2.364-21.144
								l-2.134-21.169C276.824,231.511,276.17,224.449,275.625,217.375z"/>
						</g>
						<g>
							<path style="fill:#7B8CE4;" d="M255.25,244.375c-0.871,1.682-1.79,3.333-2.746,4.962c-0.937,1.64-1.911,3.257-2.907,4.86
								c-0.992,1.605-2.011,3.193-3.041,4.775c-1.032,1.58-2.105,3.134-3.185,4.684l-0.392-0.408
								c0.658-0.355,1.326-0.691,1.999-1.019c0.67-0.333,1.34-0.668,2.022-0.979c-0.609,0.439-1.231,0.854-1.853,1.271
								c-0.619,0.421-1.242,0.836-1.876,1.231c-0.135,0.084-0.314,0.043-0.398-0.092c-0.058-0.093-0.057-0.207-0.006-0.296
								l0.011-0.019c0.941-1.638,1.889-3.271,2.878-4.878c0.991-1.606,1.993-3.205,3.021-4.787c1.024-1.585,2.072-3.155,3.155-4.703
								C252.999,247.417,254.1,245.88,255.25,244.375z"/>
						</g>
						<g>
							<path style="fill:#7B8CE4;" d="M315,228c-1.47,0.352-2.93,0.399-4.389,0.374c-1.458-0.056-2.914-0.186-4.361-0.624
								c1.47-0.355,2.931-0.402,4.389-0.374C312.097,227.434,313.553,227.564,315,228z"/>
						</g>
						<g>
							<path style="fill:#7B8CE4;" d="M282.75,197.5c2.73-0.103,5.463-0.163,8.198-0.126c1.37,0.032,2.732,0.036,4.115,0.237
								c0.177,0.04,0.34,0.038,0.532,0.119c0.098,0.04,0.174,0.051,0.29,0.119c0.164,0.133,0.162,0.299,0.162,0.398
								c-0.03,0.424-0.18,0.73-0.314,1.058c-0.284,0.639-0.615,1.242-0.955,1.84c-1.388,2.371-2.923,4.636-4.469,6.893
								c-1.552,2.253-3.134,4.481-4.747,6.694l-0.144-0.584c1.257,0.6,2.494,1.221,3.716,1.889c1.216,0.689,2.428,1.347,3.559,2.293
								c0.15,0.14,0.258,0.235,0.436,0.455c0.221,0.425,0.09,0.66,0.054,0.864c-0.124,0.404-0.298,0.719-0.477,1.035
								c-0.362,0.622-0.763,1.197-1.174,1.764c-0.825,1.129-1.695,2.211-2.579,3.281c-1.771,2.135-3.602,4.212-5.455,6.269
								c-1.858,2.052-3.723,4.094-5.641,6.092c-0.175,0.184-0.462,0.201-0.659,0.051c-4.361-3.373-8.708-6.759-13.025-10.19
								l-3.224-2.594c-1.074-0.891-2.123-1.709-3.183-2.743c-0.063-0.053-0.138-0.147-0.209-0.268
								c-0.067-0.11-0.107-0.232-0.14-0.348c-0.052-0.232-0.06-0.457-0.033-0.657c0.047-0.408,0.169-0.764,0.305-1.104
								c0.278-0.678,0.637-1.288,1.014-1.882c0.764-1.181,1.613-2.277,2.524-3.34l0.116,0.557c-2.169-1.077-4.316-2.186-6.442-3.344
								c-2.113-1.181-4.254-2.312-6.202-3.816c-0.237-0.203-0.477-0.395-0.686-0.662c-0.096-0.128-0.225-0.305-0.212-0.552
								c0.031-0.24,0.147-0.37,0.246-0.503c0.423-0.503,0.924-0.846,1.419-1.204c1.001-0.694,2.045-1.308,3.097-1.905
								c2.105-1.191,4.26-2.287,6.435-3.336c-2.133,1.133-4.243,2.308-6.312,3.547c-1.031,0.624-2.053,1.266-3.018,1.975
								c-0.471,0.358-0.965,0.73-1.306,1.165c-0.081,0.102-0.153,0.231-0.152,0.295c-0.004,0.057,0.049,0.15,0.135,0.256
								c0.169,0.206,0.407,0.392,0.633,0.574c1.926,1.389,4.08,2.517,6.202,3.644c2.136,1.115,4.299,2.186,6.474,3.22
								c0.178,0.085,0.254,0.298,0.169,0.476c-0.013,0.027-0.028,0.051-0.046,0.073l-0.007,0.008
								c-0.864,1.043-1.687,2.146-2.4,3.291c-0.352,0.574-0.682,1.164-0.916,1.766c-0.223,0.59-0.386,1.26-0.052,1.513
								c0.919,0.882,2.043,1.77,3.095,2.627l3.23,2.569c4.329,3.402,8.696,6.762,13.072,10.107l-0.659,0.051
								c3.788-4.007,7.56-8.051,11.108-12.263c0.882-1.056,1.751-2.123,2.563-3.222c0.403-0.55,0.795-1.108,1.132-1.679
								c0.165-0.282,0.321-0.581,0.399-0.838c0.052-0.118,0.014-0.257,0.057-0.14c-0.043-0.041-0.18-0.195-0.285-0.285
								c-0.985-0.838-2.209-1.529-3.391-2.203c-1.195-0.671-2.415-1.317-3.643-1.926l-0.007-0.003
								c-0.192-0.095-0.27-0.328-0.175-0.52c0.01-0.021,0.024-0.043,0.038-0.061c1.643-2.175,3.262-4.375,4.848-6.594
								c1.579-2.223,3.149-4.46,4.563-6.78c0.352-0.579,0.695-1.166,0.983-1.769c0.137-0.294,0.281-0.624,0.304-0.884
								c0.007-0.065-0.015-0.094,0.006-0.067l-0.184-0.069c-0.121-0.063-0.309-0.076-0.463-0.115
								c-1.317-0.23-2.696-0.277-4.053-0.346C288.214,197.539,285.482,197.508,282.75,197.5z"/>
						</g>
						<g>
							<path style="fill:#7B8CE4;" d="M327,196.5c-0.066,2.564-0.241,5.115-0.432,7.666c-0.18,2.551-0.438,5.094-0.696,7.637
								c-0.282,2.54-0.566,5.081-0.927,7.613l-0.545,3.798c-0.218,1.262-0.402,2.528-0.65,3.786c0.023-1.283,0.11-2.559,0.163-3.839
								l0.268-3.827c0.181-2.551,0.438-5.094,0.698-7.637c0.283-2.54,0.567-5.081,0.929-7.613
								C326.157,201.551,326.524,199.02,327,196.5z"/>
						</g>
						<g>
							<path style="fill:#7B8CE4;" d="M217.75,243c1.768,1.979,3.449,4.025,5.117,6.08c1.677,2.049,3.291,4.145,4.905,6.242
								c1.595,2.111,3.189,4.223,4.721,6.382l2.295,3.241c0.736,1.102,1.499,2.184,2.211,3.305
								c-0.892-0.983-1.733-2.006-2.601-3.008l-2.517-3.072c-1.676-2.049-3.291-4.145-4.904-6.243
								c-1.594-2.112-3.188-4.224-4.719-6.383C220.717,247.392,219.19,245.229,217.75,243z"/>
						</g>
					</g>
				</g>
			</g>
			<g>
				<g>
					<g>
						<g>
							<path style="fill:#5645C5;" d="M237.811,294.229c0,0,7.074-2.173,18.83,0.177c11.753,2.35,17.642,7.114,17.642,7.114
								s-12.302,1.726-24.936-2.195C236.713,295.404,237.811,294.229,237.811,294.229z"/>
						</g>
					</g>
					<g>
						<g>
							<path style="fill:#2C2D87;" d="M241.06,296.432c0,0,5.945-1.826,15.826,0.149c9.878,1.975,14.828,5.979,14.828,5.979
								s-10.339,1.45-20.958-1.845C240.137,297.419,241.06,296.432,241.06,296.432z"/>
						</g>
					</g>
					<g>
						<g>
							<g>
								<path style="fill:#31A8FF;" d="M258.135,300.31c-0.411-4.064-0.066-8.165,0.412-12.222c0.381-3.234,0.852-6.485,1.949-9.552
									c2.042-5.711,6.13-10.454,10.509-14.652c-0.588,3.808-1.207,8.013-2.062,11.77c-0.673,2.957-1.51,5.875-2.417,8.769
									c-1.576,5.029-3.419,10.09-6.684,14.226c-0.331,0.419-0.45,1.022-0.716,1.485
									C258.861,300.597,258.658,300.199,258.135,300.31z"/>
							</g>
						</g>
						<g>
							<path style="fill:#31A8FF;" d="M252.506,295.285c-1.435-4.844-2.411-9.856-2.433-14.909
								c-0.008-1.733,0.097-3.464,0.202-5.193c0.141-2.336,0.044-4.637,0.185-6.974c-0.299,1.375-0.597,2.751-0.896,4.126
								c-0.511,2.351-1.022,4.706-1.312,7.094c-0.779,6.413,0.054,12.922,1.421,19.235c0.364-0.208,0.699-0.57,1.063-0.778
								c0.407-0.232,0.828-0.478,1.087-0.868C252.208,296.44,252.202,295.913,252.506,295.285z"/>
						</g>
						<g>
							<g>
								<path style="fill:#31A8FF;" d="M265.516,303.278c3.461-4.867,6.485-10.027,9.503-15.18c0.929-1.586,1.704-3.265,2.122-5.055
									c-4.142,5.139-8.807,9.857-13.9,14.057c-0.718,0.592-1.462,1.184-2.335,1.508c0.187,1.105,1.233,1.682,2.14,2.34
									C263.952,301.607,264.837,302.386,265.516,303.278z"/>
							</g>
						</g>
						<g>
							<path style="fill:#31A8FF;" d="M261.321,292.296c-0.458-0.413-0.59-1.069-0.68-1.679c-0.172-1.154-0.288-2.315-0.403-3.476
								c-0.244-2.447-0.488-4.903-0.421-7.361c0.172-6.244,2.357-12.294,5.346-17.779c-0.343,0.089-0.566,0.553-0.8,0.819
								c-4.127,4.698-7.265,10.261-9.152,16.223c-0.702,2.217-1.236,4.533-1.062,6.852c0.136,1.814,1.677,3.086,2.97,4.366
								C258.412,291.539,259.505,292.384,261.321,292.296z"/>
						</g>
						<g>
							<path style="fill:#2C2D87;" d="M262.574,300.952c-0.283,0.048-0.486-0.259-0.606-0.52
								c-4.189-9.151-6.201-19.289-5.823-29.346c0.04-1.075,0.107-2.155-0.023-3.222c-3.938,9.507-5.485,20.353-4.283,30.572
								C255.259,299.535,259.065,300.189,262.574,300.952z"/>
						</g>
						<g>
							<path style="fill:#2C2D87;" d="M252.921,299.798c-1.403-2.602-2.813-5.219-3.761-8.019c-1.004-2.966-1.471-6.081-2.039-9.16
								c-0.855-4.639-1.948-9.236-2.638-13.903c-1.102,7.689-2.047,15.344-1.278,23.073c0.294,2.955,0.913,6.031,2.823,8.305
								c0.913,0.262,1.761,0.043,2.708-0.033C249.944,299.965,251.714,299.894,252.921,299.798z"/>
						</g>
						<g>
							<path style="fill:#2C2D87;" d="M261.268,304.251c1.859-2.667,3.333-5.58,4.773-8.495c1.683-3.406,3.339-6.853,4.346-10.517
								c1.206-4.387,1.486-9.273,1.505-13.823c-4.098,10.015-8.457,19.924-13.072,29.711
								C259.927,302.108,260.239,303.191,261.268,304.251z"/>
						</g>
					</g>
					<g>
						<g>
							<path style="fill:#5645C5;" d="M263.606,329.012c4.113-8.278,10.677-27.492,10.677-27.492
								c-6.901-0.271-13.185-1.147-18.525-2.201c-5.335-1.08-11.472-2.688-17.947-5.091c0,0-1.327,20.261-0.713,29.484
								c0,0,0.432,0.4,1.232,1.003c3.728,2.99,7.658,4.507,11.281,5.186c0.011,0.002,0.022,0.004,0.033,0.007
								c0.011,0.002,0.022,0.004,0.033,0.006c3.605,0.766,7.816,0.877,12.407-0.45C263.053,329.215,263.606,329.012,263.606,329.012
								z"/>
						</g>
					</g>
				</g>
				<g>
					<g>
						<g>
							<path style="fill:#FFA29E;" d="M212.296,296.054c3.457-0.786,6.744-2.243,9.976-3.664c3.05-1.341,6.091-2.7,9.179-3.953
								l-1.7-9.437l5.08-7.32c-4.67-2.51-15.29-18.84-18.73-24.26c-5.36,9.31-9.72,17.8-10.6,22.08
								c-1.396,6.845,2.117,17.042,6.663,26.582C212.208,296.072,212.251,296.064,212.296,296.054z"/>
						</g>
						<g>
							<path style="fill:#DB7474;" d="M229.375,278.625c-1.149-1.16-2.07-2.438-2.973-3.725c-0.441-0.65-0.882-1.296-1.303-1.957
								c-0.439-0.651-0.837-1.311-1.349-1.943c0.773,0.305,1.398,0.883,1.959,1.457c0.562,0.584,1.051,1.223,1.515,1.876
								C228.116,275.661,228.902,277.059,229.375,278.625z"/>
						</g>
					</g>
					<g>
						<g>
							<path style="fill:#FFD16F;" d="M253.167,318c0.083-1.167-11.167-3.5-11.167-3.5s10.25-0.083,10.5-2.667
								c0.103-1.062-15.167-3.167-15.167-3.167V301.5l-2.583,5.25l-2-22.25L209,293.75l12.5,19.417
								c1.5,3.833,9.5,13.667,10.333,13.667c0.833,0,17.417,1.417,17.833-0.667c0.139-0.693-8.833-4.333-8.833-4.333
								s10.667,0.667,11.667,0c1-0.667-0.5-2.167-0.5-2.167S253.059,319.505,253.167,318z"/>
						</g>
						<g>
							<path style="fill:#FFCD03;" d="M241.5,318c1.846-0.141,3.65,0.022,5.444,0.255c1.79,0.264,3.569,0.602,5.306,1.245
								c-1.846,0.143-3.65-0.02-5.444-0.255C245.017,318.978,243.237,318.641,241.5,318z"/>
						</g>
					</g>
				</g>
			</g>
			<g>
				<g>
					<g>
						<g>
							<path style="fill:#31A8FF;" d="M341.401,270.87c-3.731-2.252-7.76-3.753-11.257-5.683c-3.326-1.835-6.241-4.178-7.334-7.325
								l-9.548,6.484c-0.15,0.102-0.297,0.178-0.44,0.235l-0.024,0.019c2.55,2.174,3.66,5.766,4.142,9.553
								c0.504,3.962,0.414,8.261,1.131,12.559c0.975,5.842,3.499,11.668,7.393,16.848c2.892,3.847,8.163,4.718,12.184,1.988
								l14.039-9.534c4.107-2.789,5.095-8.114,2.509-12.287C350.833,278.302,346.403,273.89,341.401,270.87z"/>
						</g>
					</g>
					<g>
						
							<rect x="293.224" y="255.121" transform="matrix(0.8273 -0.5618 0.5618 0.8273 -94.0163 210.4128)" style="fill:#5645C5;" width="3.913" height="5.963"/>
					</g>
					<g>
						<path style="fill:#5645C5;" d="M302.528,255.973c0,0-1.26,3.517-0.908,3.837c0,0,5.692,3.328,3.185,13.042l2.417,0.488
							c0,0,3.378-6.739,0.975-11.745c-2.403-5.006-1.631-6.106-1.631-6.106L302.528,255.973z"/>
					</g>
					<g>
						<g>
							<path style="fill:#31A8FF;" d="M294.074,254.65l3.768,5.549c0,0,6.768-4.296,10.557-2.364l3.731,5.162l9.865-6.699
								l-3.969-4.85c0,0,2.586-5.81,2.58-6.482c-0.006-0.672-8.37,0.278-12.191,0.621
								C304.594,245.929,294.074,254.65,294.074,254.65z"/>
						</g>
					</g>
					<g>
						
							<rect x="311.119" y="258.846" transform="matrix(0.8273 -0.5618 0.5618 0.8273 -91.575 223.4717)" style="fill:#5645C5;" width="13.043" height="3.633"/>
					</g>
					<g>
						<path style="fill:#FFFFFF;" d="M323.482,273.064c0.827-0.643,1.831-1.375,2.848-1.999c1.236-0.759,2.793-0.755,4.028,0.007
							c3.48,2.147,11.226,7.017,17.451,11.585c3.491,2.561,3.554,7.743,0.128,10.39c-2.989,2.309-6.772,5.054-10.75,7.495
							c-3.685,2.261-8.509,0.349-9.656-3.819l-5.391-19.606C321.728,275.618,322.255,274.018,323.482,273.064z"/>
					</g>
				</g>
				<g>
					<g>
						<g>
							<path style="fill:#FFA29E;" d="M329.159,239.068c0.548,0.311,1.091,0.635,1.626,0.975c0.338,0.084,0.665,0.169,0.965,0.258
								c3.234,0.966,6.481,1.879,9.762,2.673c2.181,0.528,4.327,0.915,6.466,1.223c8.024-17.751,15.322-40.922,7.593-44.087
								c-3.61-1.49-12.55-2.22-23-2.54l-4.97,30.64l4.12,0.64L329.159,239.068z"/>
						</g>
						<g>
							<path style="fill:#DB7474;" d="M331.75,228.25c0.356-3.687,1.111-7.307,2.059-10.878c0.503-1.779,1.035-3.552,1.72-5.279
								c0.692-1.707,1.451-3.471,2.721-4.843c-0.463,0.807-0.847,1.621-1.128,2.497c-0.322,0.852-0.578,1.732-0.856,2.601
								c-0.525,1.751-1.011,3.518-1.493,5.286C333.801,221.172,332.876,224.725,331.75,228.25z"/>
						</g>
					</g>
					<g>
						<path style="fill:#FFD16F;" d="M329.25,235.667l-3.699,15.27c-2.104-0.044-5.527-0.019-7.524,0.51l3.224,3.928
							c0,0-7,7.875-7.625,8s-9.375,2.25-9.375,2.25s-0.75,2.125,0.25,2.75s10.75,0.375,10.75,0.375s10.5,5.5,12.875,5.875
							s12.75-16.5,12.75-16.5L352,242.083L329.25,235.667z"/>
					</g>
				</g>
			</g>
		</g>
		<g>
			<g>
				<g>
					<path style="fill:#FFA29E;" d="M291.92,155.361c-2.437,0.199-3.733,0.973-4.422,1.787c-0.484-7.158-1.768-13.493-2.672-15.567
						c-1.644-3.795-11.516-7.697-21.525-6.413c-10.015,1.225-18.619,7.444-19.286,11.528c-0.357,2.204-0.045,8.528,1.212,15.482
						c-0.893-0.49-2.263-0.774-4.37-0.416c-5.366,0.911,0.467,18.78,7.417,12.057c0.079,0.215,0.157,0.432,0.238,0.644
						c1.271,3.308,2.827,6.237,4.702,8.33c2.648,2.954,5.344,4.682,7.747,5.68c4.646,1.927,8.194,1.13,8.194,1.13l1.905-0.239
						c0,0,4.227-0.127,8.604-3.88c1.783-1.534,3.602-3.667,5.163-6.654c1.316-2.523,2.107-5.787,2.507-9.344
						c0.03-0.26,0.056-0.523,0.082-0.785C296.072,174.102,297.406,154.914,291.92,155.361z"/>
				</g>
				<g>
					<g>
						<g>
							<g>
								<path style="fill:#DB7474;" d="M242.044,170.222c-0.428-0.402-0.664-0.969-0.881-1.505
									c-0.195-0.551-0.359-1.152-0.257-1.812c0.07-0.668,0.623-1.32,1.288-1.519c0.656-0.226,1.379-0.114,1.956,0.143
									c1.126,0.563,2.041,1.392,2.595,2.517c0.526,1.126,0.548,2.324,0.493,3.466c-0.287-1.115-0.511-2.25-1.069-3.157
									c-0.28-0.447-0.63-0.848-1.043-1.19c-0.407-0.346-0.855-0.673-1.315-0.87c-0.882-0.446-2.042-0.212-2.269,0.745
									c-0.127,0.467-0.083,1.027,0.014,1.571C241.64,169.17,241.773,169.711,242.044,170.222z"/>
							</g>
							<g>
								<path style="fill:#DB7474;" d="M245.159,172.102c-0.515-0.185-0.954-0.614-1.213-1.113c-0.276-0.5-0.409-1.047-0.451-1.616
									c-0.022-0.566,0.086-1.211,0.514-1.696c0.398-0.466,1.114-0.7,1.611-0.404c-0.543,0.074-0.88,0.427-1.082,0.789
									c-0.182,0.369-0.236,0.81-0.206,1.27c0.019,0.466,0.099,0.948,0.217,1.408C244.678,171.2,244.846,171.656,245.159,172.102z"
									/>
							</g>
						</g>
						<g>
							<g>
								<path style="fill:#DB7474;" d="M292.858,163.853c0.136-0.562,0.132-1.119,0.074-1.682c-0.04-0.552-0.137-1.105-0.375-1.526
									c-0.456-0.872-1.638-0.812-2.382-0.162c-0.396,0.305-0.75,0.732-1.06,1.168c-0.315,0.434-0.556,0.909-0.717,1.411
									c-0.317,1.017-0.254,2.172-0.257,3.323c-0.335-1.092-0.609-2.259-0.377-3.48c0.259-1.227,0.941-2.256,1.893-3.08
									c0.496-0.392,1.169-0.679,1.861-0.622c0.693,0.029,1.391,0.524,1.623,1.154c0.262,0.615,0.251,1.238,0.198,1.82
									C293.262,162.75,293.174,163.358,292.858,163.853z"/>
							</g>
							<g>
								<path style="fill:#DB7474;" d="M290.303,166.443c0.193-0.509,0.244-0.993,0.256-1.47c0-0.475-0.041-0.962-0.138-1.418
									c-0.084-0.453-0.246-0.868-0.513-1.18c-0.286-0.301-0.699-0.559-1.243-0.497c0.408-0.409,1.16-0.359,1.66-0.006
									c0.534,0.364,0.798,0.962,0.916,1.517c0.1,0.561,0.106,1.124-0.038,1.677C291.076,165.613,290.757,166.137,290.303,166.443z
									"/>
							</g>
						</g>
					</g>
					<g>
						<g>
							<path style="fill:#FF908C;" d="M261.633,183.209c0.208,1.657-0.069,3.546-0.671,5.264c-2.403-0.999-5.099-2.727-7.747-5.68
								c-1.875-2.093-3.431-5.022-4.702-8.33c0.488-0.132,0.979-0.234,1.495-0.298C255.714,173.449,260.917,177.493,261.633,183.209
								z"/>
						</g>
						<g>
							<path style="fill:#FF908C;" d="M287.336,169.485c-0.401,3.557-1.191,6.821-2.507,9.344c-1.561,2.987-3.379,5.12-5.163,6.654
								c-0.808-1.38-1.391-2.9-1.572-4.338c-0.716-5.715,3.328-10.919,9.033-11.634L287.336,169.485z"/>
						</g>
					</g>
					<g>
						<g>
							<g>
								<g>
									<path style="fill:#2C2D87;" d="M262.453,163.693c0.178,1.421-0.538,2.681-1.6,2.814c-1.062,0.133-2.067-0.911-2.245-2.332
										s0.538-2.681,1.6-2.814C261.269,161.228,262.275,162.272,262.453,163.693z"/>
								</g>
							</g>
							<g>
								<g>
									<path style="fill:#2C2D87;" d="M276.923,161.879c0.178,1.421-0.538,2.681-1.6,2.814c-1.062,0.133-2.067-0.911-2.245-2.332
										s0.538-2.681,1.6-2.814C275.74,159.414,276.745,160.458,276.923,161.879z"/>
								</g>
							</g>
						</g>
					</g>
					<g>
						<g>
							<g>
								<g>
									<path style="fill:#2C2D87;" d="M261.997,156.145c-0.644,0.027-1.438,0.073-2.152,0.194c-0.734,0.1-1.46,0.261-2.178,0.461
										c-0.721,0.197-1.416,0.482-2.103,0.801c-0.694,0.314-1.341,0.723-2.015,1.133l-0.03,0.018
										c-0.238,0.145-0.547,0.069-0.692-0.168c-0.116-0.19-0.09-0.426,0.046-0.587c0.548-0.646,1.163-1.259,1.872-1.755
										c0.686-0.535,1.473-0.921,2.271-1.272c0.8-0.354,1.654-0.579,2.518-0.717c0.883-0.117,1.715-0.172,2.683-0.017
										c0.523,0.084,0.879,0.575,0.795,1.098c-0.073,0.458-0.46,0.788-0.906,0.806L261.997,156.145z"/>
								</g>
								<g>
									<path style="fill:#2C2D87;" d="M263.484,154.269c0.149,0.367,0.068,0.804-0.184,1.132c-0.249,0.327-0.591,0.531-0.923,0.68
										l-0.025,0.011c-0.258,0.116-0.56,0-0.676-0.257c-0.116-0.258,0-0.56,0.257-0.676c0.059-0.027,0.123-0.041,0.184-0.044
										c0.267-0.013,0.519-0.063,0.716-0.179c0.097-0.058,0.183-0.134,0.244-0.234c0.062-0.095,0.098-0.235,0.102-0.344
										l0.001-0.035c0.003-0.088,0.076-0.156,0.164-0.153C263.407,154.172,263.462,154.213,263.484,154.269z"/>
								</g>
							</g>
							<g>
								<g>
									<path style="fill:#2C2D87;" d="M271.655,154.934c0.631-0.133,1.411-0.284,2.134-0.343c0.736-0.084,1.479-0.107,2.225-0.09
										c0.747,0.012,1.491,0.118,2.236,0.257c0.75,0.133,1.478,0.369,2.232,0.601l0.034,0.01c0.266,0.081,0.547-0.068,0.629-0.334
										c0.065-0.212-0.018-0.435-0.19-0.558c-0.69-0.491-1.438-0.934-2.247-1.239c-0.797-0.349-1.655-0.529-2.514-0.672
										c-0.863-0.146-1.746-0.153-2.617-0.073c-0.884,0.105-1.704,0.257-2.604,0.646c-0.486,0.21-0.709,0.774-0.499,1.26
										c0.184,0.426,0.64,0.65,1.077,0.558L271.655,154.934z"/>
								</g>
								<g>
									<path style="fill:#2C2D87;" d="M269.751,153.483c-0.054,0.392,0.133,0.796,0.458,1.052
										c0.322,0.255,0.704,0.369,1.063,0.431l0.027,0.005c0.278,0.048,0.543-0.138,0.591-0.416
										c0.048-0.278-0.138-0.543-0.416-0.591c-0.064-0.011-0.129-0.009-0.189,0.003c-0.262,0.053-0.518,0.067-0.738,0.003
										c-0.109-0.033-0.21-0.085-0.294-0.167c-0.084-0.077-0.153-0.203-0.184-0.308l-0.01-0.034
										c-0.024-0.084-0.112-0.132-0.196-0.108C269.802,153.371,269.759,153.423,269.751,153.483z"/>
								</g>
							</g>
						</g>
					</g>
					<g>
						<g>
							<path style="fill:#DB7474;" d="M265.984,170.428c0.349-0.053,0.636,0.03,0.908,0.145c0.264,0.132,0.512,0.297,0.698,0.599
								c-0.35,0.054-0.636-0.029-0.908-0.145C266.418,170.893,266.17,170.728,265.984,170.428z"/>
						</g>
						<g>
							<path style="fill:#DB7474;" d="M271.317,169.759c-0.106,0.337-0.306,0.558-0.528,0.752c-0.234,0.179-0.492,0.33-0.844,0.365
								c0.105-0.338,0.305-0.559,0.528-0.752C270.709,169.946,270.966,169.795,271.317,169.759z"/>
						</g>
					</g>
					<g>
						<g>
							<path style="fill:#DB7474;" d="M262.266,172.679c2.245,0.983,4.596,1.577,6.893,1.302c1.14-0.123,2.268-0.439,3.305-0.985
								c0.546-0.225,1.018-0.587,1.537-0.892c0.504-0.328,0.952-0.734,1.475-1.08c-0.359,0.495-0.725,1.008-1.16,1.457
								c-0.467,0.412-0.905,0.883-1.464,1.192c-1.043,0.736-2.309,1.149-3.584,1.302c-1.281,0.137-2.584-0.01-3.781-0.421
								C264.293,174.143,263.17,173.53,262.266,172.679z"/>
						</g>
						<g>
							<path style="fill:#DB7474;" d="M267.175,176.158c0.49,0.022,0.917,0.025,1.337,0.012c0.417-0.023,0.818-0.041,1.215-0.11
								c0.398-0.06,0.797-0.134,1.208-0.236c0.416-0.093,0.832-0.221,1.325-0.303c-0.499,0.846-1.414,1.37-2.39,1.528
								c-0.491,0.064-0.998,0.038-1.47-0.109C267.931,176.798,267.482,176.553,267.175,176.158z"/>
						</g>
					</g>
				</g>
			</g>
			<g>
				<g>
					<g>
						<g>
							<path style="fill:#2C2D87;" d="M298.01,183.11c-3.5-2.1-5.75-5.85-6.87-9.77c-0.34-1.21-0.66-2.44-0.9-3.68
								c-0.83-0.01-1.77-0.3-2.82-0.96c-0.03,0.26-0.05,0.53-0.08,0.79c-0.4,3.55-1.19,6.82-2.51,9.34
								c-1.35,2.59-2.9,4.54-4.45,6.01l0.2,1.61c0.11,0.03,0.22,0.07,0.33,0.1c2.78,1.04,7.04,2.13,12.28,1.89
								c0,0-1.45-1.35-2.52-4.77C293.01,184.27,295.74,183.93,298.01,183.11z"/>
						</g>
						<g>
							<path style="fill:#2C2D87;" d="M253.22,182.79c-1.88-2.09-3.44-5.02-4.71-8.33c-0.08-0.21-0.16-0.43-0.23-0.64
								c-0.93,0.9-1.84,1.36-2.7,1.48c0.04,0.09,0.08,0.19,0.12,0.28c2.27,5.18,1.98,11.41-0.75,16.37c1.57-0.4,3.03-1.22,4.17-2.36
								c0.35,2.23-0.24,4.6-1.58,6.41c4.4-0.77,8.54-2.88,11.79-5.93l-0.32-2.55C257.14,186.48,255.17,184.97,253.22,182.79z"/>
						</g>
						<g>
							<path style="fill:#2C2D87;" d="M286.675,163.952c-0.355-2.184,0.286-4.885,1.004-6.979c0.544-0.563,1.383-1.085,2.732-1.384
								c-0.24-3.72-1.24-7.46-2.23-11.09c-0.4-1.48-1.53-2.59-1.7-4.11c-0.34-3.19-3.23-5.47-6.09-6.91
								c-5.41-2.72-11.62-3.79-17.63-3.05c-6,0.75-11.77,3.31-16.35,7.27c-2.12,1.84-3.19,4.85-4.94,7.04
								c-1.81,2.25-2.11,5.35-1.89,8.23c0.23,2.93,0.72,5.87,1.4,8.77c1.409-0.229,2.48-0.156,3.301,0.069
								c1.357,1.442,4.347,5.156,4.844,8.441c0,0,1.4-4.411,1.712-7.548c1.448-0.162,3.242-0.489,5.497-1.035
								C267.333,159,279,146.25,279,146.25s1.614,3.706,3.233,7.139C283.664,157.594,286.675,163.952,286.675,163.952z"/>
						</g>
					</g>
				</g>
				<g style="opacity:0.5;">
					<g>
						<g>
							<path style="fill:#2C2D87;" d="M279.552,147.504c0.439,0.99,1.096,2.461,1.816,4.026c2.719-0.964,5.413-1.767,8.071-2.117
								c-0.305-1.337-0.655-2.665-1.01-3.982C285.618,146.569,282.597,147.186,279.552,147.504z"/>
							<path style="fill:#2C2D87;" d="M275.353,147.78c-7.104,0.221-14.178-0.826-21.274-0.881
								c-3.462-0.027-14.606,0.452-14.142,6.226c0.054,0.668-0.012,1.262-0.163,1.79c0.195,1.663,0.467,3.325,0.805,4.978
								c6.634-2.911,16.28-3.02,20.983-2.947c1.941,0.03,3.887-0.23,5.832-0.664c4.514-3.112,8.302-6.681,10.232-8.612
								C276.866,147.721,276.107,147.757,275.353,147.78z"/>
						</g>
					</g>
				</g>
			</g>
		</g>
	</g>
	<g>
		<g>
			<g>
				<g>
					<g>
						<g>
							<path style="fill:#FFD16F;" d="M123.577,172.537h-42.89l1.262,38.349h0.009c0,0.003-0.009,0.005-0.009,0.008
								c0,1.068,9.036,1.934,20.184,1.934c11.147,0,20.184-0.866,20.184-1.934c0-0.003-0.009-0.005-0.009-0.008h0.009
								L123.577,172.537z"/>
						</g>
					</g>
					<g>
						<g>
							<rect x="79.51" y="194.991" style="fill:#2C2D87;" width="45.413" height="4.037"/>
						</g>
						<g>
							<path style="fill:#2C2D87;" d="M56.917,328.327c-0.082,0-0.166-0.01-0.25-0.029c-0.572-0.133-0.934-0.69-0.822-1.266
								l24.765-130.198l1.838,0.35L61.342,308.146l30.638-111.636l1.805,0.495l-35.82,130.522
								C57.832,328.009,57.397,328.327,56.917,328.327z M57.683,327.384c0-0.001,0.001-0.002,0.001-0.004L57.683,327.384z"/>
						</g>
						<g>
							<path style="fill:#2C2D87;" d="M147.347,328.327c-0.48,0-0.915-0.318-1.047-0.802l-35.82-130.521l1.805-0.495l30.638,111.636
								l-21.105-110.961l1.838-0.35l24.765,130.2c0.111,0.574-0.25,1.131-0.822,1.264
								C147.513,328.317,147.429,328.327,147.347,328.327z M146.581,327.383c0,0.001,0,0.002,0,0.003V327.383z"/>
						</g>
					</g>
				</g>
				<g>
					<g>
						<path style="fill:#2C2D87;" d="M99.232,164.642c2.063-2.026,3.038-4.944,3.333-7.821c0.166-1.62,0.13-3.308-0.507-4.808
							c-0.665-1.567-1.927-2.799-3.242-3.881c-4.49-3.697-10.179-6.44-12.742-11.661c-1.523-3.104-1.707-6.679-2.709-9.989
							c0.694,3.903-0.596,7.899-1.241,11.81c-0.645,3.911-0.826,8.208,1.32,11.541c0.679,1.054,1.562,1.96,2.443,2.852
							c1.029,1.041,2.07,2.078,3.225,2.978c1.757,1.368,3.753,2.398,5.544,3.72C96.447,160.705,98.645,162.495,99.232,164.642z"/>
					</g>
					<g>
						<path style="fill:#2C2D87;" d="M152.596,162.163c-3.051,2.391-6.715,4.357-10.588,4.179c-2.228-0.102-4.354-0.905-6.504-1.5
							c-3.202-0.886-6.529-1.321-9.852-1.288c-3.579,0.036-7.313,0.683-10.154,2.859c-1.138,0.872-2.173,2.215-1.865,3.616
							c1.726,0.518,3.492,0.506,5.292,0.58c2.784,0.115,5.546,0.751,8.1,1.865c1.855,0.809,3.596,1.866,5.461,2.65
							c1.866,0.784,3.922,1.294,5.913,0.93c1.361-0.248,2.619-0.891,3.785-1.637C146.614,171.585,149.443,166.371,152.596,162.163z"
							/>
					</g>
					<g>
						<path style="fill:#2C2D87;" d="M91.302,182.998c-0.781-1.494-2.265-2.522-3.848-3.1c-1.583-0.578-3.28-0.757-4.956-0.932
							c-1.828-0.19-3.714-0.376-5.473,0.159c-1.396,0.425-2.617,1.277-3.811,2.117c-1.364,0.959-2.74,1.931-3.844,3.179
							c-1.087,1.227-1.879,2.687-2.913,3.959c-1.988,2.446-4.881,4.138-7.987,4.672c1.776,2.058,4.696,2.473,7.406,2.254
							c2.71-0.219,5.261-1.585,7.155-3.535c1.438-1.481,2.589-3.338,4.43-4.272c3.422-1.737,7.932,0.342,11.254-1.578
							C89.754,185.319,90.975,184.154,91.302,182.998z"/>
					</g>
					<g>
						<g>
							<path style="fill:#31A8FF;" d="M103.332,175.131c-2.364-1.05-3.841-3.531-4.354-6.066c-0.514-2.535-0.212-5.155,0.091-7.724
								c0.261-2.21,0.522-4.42,0.783-6.631c0.206-1.741,0.411-3.504,0.174-5.241c-0.561-4.107-3.504-7.54-4.364-11.595
								c-0.7-3.304,0.05-6.774,1.391-9.874c1.354-3.131,3.31-6,5.729-8.405c-1.252,6.171,0.424,13.148,4.19,18.194
								c1.31,1.755,2.896,3.349,3.767,5.358c0.59,1.361,0.823,2.853,0.893,4.335c0.061,1.27,0.005,2.557-0.332,3.783
								c-0.721,2.62-2.668,4.777-3.35,7.406c-0.808,3.116,0.267,6.44-0.239,9.618C107.259,171.132,105.815,173.68,103.332,175.131z"
								/>
						</g>
					</g>
					<g>
						<g>
							<path style="fill:#31A8FF;" d="M102.2,175.338c-0.127-3.794-0.265-7.646-1.431-11.259c-1.166-3.613-3.518-7.019-6.98-8.576
								c-1.277-0.574-2.655-0.879-3.999-1.272c-5.192-1.516-10.166-4.598-12.735-9.358c-0.817-1.513-1.392-3.188-2.528-4.48
								c-1.755-1.996-4.537-2.73-7.18-3.021c2.021,2.052,3.183,5.408,3.031,8.284c-0.075,1.406-0.433,2.784-0.547,4.188
								c-0.295,3.641,1.17,7.385,3.858,9.858c5.113,4.704,13.342,4.327,18.791,8.637c1.703,1.347,3.047,3.091,4.651,4.555
								C98.736,174.358,100.029,175.414,102.2,175.338z"/>
						</g>
					</g>
					<g>
						<g>
							<path style="fill:#31A8FF;" d="M103.689,175.676c-0.813-1.699-0.409-3.715,0.17-5.507c1.36-4.206,3.842-8.339,7.832-10.241
								c1.852-0.883,3.914-1.23,5.818-1.995c2.745-1.103,5.126-3.091,6.701-5.595c1.134-1.802,1.844-3.831,2.679-5.789
								c0.836-1.958,1.839-3.906,3.413-5.339c1.574-1.433,3.828-2.275,5.876-1.692c-1.322,3.047-0.835,6.467-0.46,9.766
								c0.375,3.3,0.645,6.829-0.912,9.763c-1.511,2.847-4.455,4.589-7.255,6.186c-1.749,0.997-3.522,2.005-5.467,2.522
								c-1.129,0.3-2.298,0.429-3.428,0.722c-0.979,0.254-1.922,0.63-2.862,1.004c-1.392,0.555-2.797,1.115-4.043,1.947
								c-1.237,0.825-2.29,1.898-3.514,2.742C107.013,175.014,105.151,175.943,103.689,175.676z"/>
						</g>
					</g>
					<g>
						<g>
							<path style="fill:#31A8FF;" d="M102.79,176.227c-2.179-2.957-5.044-5.442-8.39-6.956c-3.346-1.514-7.179-2.023-10.757-1.196
								c-4.129,0.955-7.885,3.626-12.123,3.598c-2.435-0.016-4.81-0.94-7.243-0.834c-2.753,0.121-5.372,1.62-7.034,3.818
								c-1.663,2.198-2.392,5.037-2.204,7.786c2.921-1.353,6.303-2.206,9.52-2.316c7.118-0.244,13.506,5.718,20.582,4.906
								c2.743-0.315,5.255-1.633,7.694-2.928C96.271,180.281,99.352,178.052,102.79,176.227z"/>
						</g>
					</g>
					<g>
						<g>
							<path style="fill:#31A8FF;" d="M147.19,202.035c-1.621-0.847-2.539-2.672-2.79-4.484c-0.251-1.812,0.058-3.648,0.316-5.459
								c0.258-1.811,0.461-3.679,0.005-5.45c-0.443-1.724-1.521-3.277-2.981-4.295c-1.024-0.715-2.208-1.163-3.309-1.753
								c-2.112-1.131-3.931-2.803-5.235-4.813c-0.662-1.02-1.194-2.125-1.921-3.1c-1.853-2.481-4.871-3.918-7.939-4.338
								c-3.068-0.42-6.195,0.09-9.179,0.917c-1.685,0.467-3.352,1.041-4.87,1.909c-2.192,1.253-3.998,3.075-5.712,4.929
								c2.703,1.308,6.361,1.239,9.353,1.495c2.992,0.255,6.246,1.09,7.943,3.567c1.267,1.849,1.425,4.298,2.738,6.114
								c1.55,2.144,4.334,2.94,6.926,3.473c2.592,0.533,5.371,1.023,7.294,2.84c1.333,1.26,2.079,3.005,3.145,4.498
								C142.603,200.365,144.488,201.294,147.19,202.035z"/>
						</g>
					</g>
					<g>
						<g>
							<path style="fill:#31A8FF;" d="M104.795,174.848c-2.631-1.575-5.793-3.008-8.667-1.94c-1.423,0.529-2.57,1.616-3.518,2.802
								c-1.072,1.341-1.947,2.852-2.471,4.487c-0.622,1.939-0.756,4.053-1.735,5.838c-1.301,2.372-3.867,3.766-5.513,5.912
								c-1.378,1.797-2.05,4.058-2.247,6.314s0.054,4.525,0.365,6.768c0.219,1.578,0.467,3.151,0.746,4.719
								c0.154,0.867,0.328,1.761,0.824,2.489c0.444-2.231,1.249-3.991,2.734-5.714c0.784-0.91,1.797-1.588,2.791-2.263
								c2.546-1.731,5.104-3.571,6.875-6.089c1.262-1.794,2.083-3.896,2.371-6.071c0.197-1.489,0.148-2.999,0.219-4.499
								c0.188-3.95,1.491-8.231,4.855-10.31C103.523,176.612,104.057,175.91,104.795,174.848z"/>
						</g>
					</g>
				</g>
			</g>
		</g>
		<g>
			<g>
				<g>
					<g>
						<g>
							<path style="fill:#5645C5;" d="M67.793,377.541l-0.998-0.057c1.309-23.216-6.983-34.56-7.067-34.672l0.801-0.6
								C60.88,342.682,69.122,353.963,67.793,377.541z"/>
						</g>
						<g>
							<g>
								<path style="fill:#5645C5;" d="M62.184,345.375c-2.822-1.839-6.49-0.183-9.82,0.317c-3.262,0.49-6.695-0.251-9.465-2.043
									c-2.531-1.637-4.483-4.083-7.104-5.571c-3.151-1.788-6.792-1.96-10.401-1.287c-5.028,0.937-9.007-4.428-6.236-8.727
									c0.469-0.728,1.022-1.41,1.656-2.031c3.465-3.392,9.059-4.422,13.472-2.415c1.878,0.854,3.509,2.184,5.39,3.032
									c4.299,1.938,9.297,1.142,13.933,2.007c3.64,0.679,7.218,2.552,9.147,5.712C64.688,337.53,64.91,342.869,62.184,345.375z"/>
							</g>
							<g>
								<path style="fill:#7B8CE4;" d="M18.258,331.315c0.015,0.324,0.06,0.643,0.131,0.956c2.235-0.104,5.888-0.197,10.169-0.014
									l-4.283,4.631c0.366-0.002,0.738-0.026,1.119-0.096c0.102-0.019,0.203-0.03,0.305-0.048l4.095-4.428
									c1.669,0.091,3.413,0.224,5.197,0.418l-3.015,3.96c0.34,0.065,0.674,0.152,1.007,0.243l3.102-4.073
									c5.136,0.623,10.481,1.748,15.023,3.725l-9.603,6.018c0.265,0.212,0.539,0.411,0.814,0.608l9.815-6.151
									c3.844,1.838,6.994,4.35,8.811,7.743c0.427,0.133,0.843,0.309,1.24,0.567c0.029-0.026,0.047-0.063,0.075-0.09
									C55.69,330.448,26.745,330.86,18.258,331.315z"/>
							</g>
						</g>
					</g>
					<g>
						<g>
							<path style="fill:#5645C5;" d="M79.907,370.895c-1.861-3.103-21.193-40.439-22.016-42.027l0.889-0.459
								c0.201,0.389,20.139,38.896,21.984,41.973L79.907,370.895z"/>
						</g>
						<g>
							<g>
								<path style="fill:#2C2D87;" d="M50.336,326.147c-5.173-3.548-11.226-6.098-15.176-10.971
									c-4.451-5.49-5.435-12.929-6.189-19.956c-0.366-3.408-0.717-6.861-0.214-10.252c0.503-3.391,1.957-6.766,4.626-8.917
									c2.669-2.15,6.682-2.796,9.589-0.979c2.524,1.578,3.746,4.54,5.561,6.9c4.521,5.878,12.834,8.082,16.81,14.341
									c3.258,5.129,2.774,11.906,0.484,17.534c-1.27,3.122-3.063,6.09-3.593,9.419c-0.407,2.555,1.528,12.162-1.706,11.869
									c-1.564-0.142-3.709-3.591-4.781-4.609C54.061,328.927,52.251,327.461,50.336,326.147z"/>
							</g>
							<g>
								<path style="fill:#5645C5;" d="M67.272,301.264l-12.451,17.182c-6.491-16.531-13.891-38.415-15.9-44.41
									c-0.362,0.008-0.722,0.032-1.083,0.085c0.838,2.509,2.732,8.146,5.155,15.111c-4.588-0.648-10.278-1.457-14.438-2.059
									c-0.018,0.353-0.024,0.706-0.028,1.06c4.73,0.685,11.141,1.592,14.855,2.116c0.504,1.444,1.024,2.929,1.564,4.459
									l-16.168-1.47c0.035,0.356,0.07,0.712,0.108,1.067l16.448,1.495c1.874,5.288,3.919,10.933,5.963,16.348l-17.95,0.222
									c0.203,0.355,0.417,0.702,0.641,1.045l17.706-0.219c3.427,9.029,6.806,17.256,9.285,21.789
									c0.349-0.088,0.623-0.318,0.83-0.667c-1.838-3.4-4.197-8.905-6.708-15.263l0.33,0.239l12.102-16.7
									C67.477,302.211,67.37,301.739,67.272,301.264z"/>
							</g>
						</g>
					</g>
					<g>
						<g>
							<path style="fill:#5645C5;" d="M62.148,372.629l-0.875-0.482c7.26-13.167,14.382-40.732,14.453-41.008l0.969,0.248
								C76.624,331.665,69.47,359.353,62.148,372.629z"/>
						</g>
						<g>
							<g>
								<path style="fill:#5645C5;" d="M70.442,331.524c-0.991-2.537-2.79-4.658-4.295-6.928c-2.49-3.758-4.214-8.616-2.369-12.73
									c1.105-2.464,3.315-4.247,4.767-6.524c2.599-4.079,2.513-9.23,3.303-14.002c0.79-4.771,3.269-10.044,8.004-11.032
									c1.543-0.322,3.441,0.047,4.137,1.461c0.367,0.745,0.32,1.616,0.313,2.446c-0.032,3.9,1.015,7.803,2.994,11.163
									c1.273,2.161,2.927,4.113,3.882,6.431c0.955,2.319,1.058,5.236-0.613,7.106c-0.571,0.638-1.313,1.116-1.823,1.804
									c-1.738,2.339-0.08,5.619-0.242,8.529c-0.163,2.925-2.184,5.354-3.915,7.717c-2.211,3.018-4.089,6.28-5.588,9.708
									c-1.043,2.384-4.446,8.534-7.832,4.904C69.187,339.457,71.547,334.353,70.442,331.524z"/>
							</g>
							<g>
								<path style="fill:#7B8CE4;" d="M88.287,316.518c-0.053-0.343-0.102-0.684-0.152-1.024l-9.324,3.182
									c1.956-15.259,2.828-32.09,3.103-38.34c-0.334-0.073-0.671-0.122-1.019-0.121c-0.123,2.708-0.366,7.517-0.768,13.373
									l-7.224-6.176c-0.129,0.344-0.241,0.691-0.351,1.042l7.486,6.399c-0.147,2.073-0.311,4.249-0.497,6.507l-8.074-7.23
									c-0.049,0.412-0.102,0.823-0.15,1.235l8.116,7.268c-1.259,14.779-3.401,32.109-6.844,39.916
									c0.358,0.123,0.713,0.17,1.061,0.129c2.152-5.071,3.786-13.616,5.012-22.874L88.287,316.518z"/>
							</g>
						</g>
					</g>
					<g>
						<g>
							<path style="fill:#5645C5;" d="M73.955,379.088l-0.988-0.15c2.981-19.506,13.716-36.279,13.824-36.446l0.84,0.543
								C87.523,343.199,76.903,359.801,73.955,379.088z"/>
						</g>
						<g>
							<g>
								<path style="fill:#2C2D87;" d="M93.927,344.846c3.587-2.887,4.629-7.974,7.826-11.288c2.838-2.941,7.034-4.132,11.088-4.644
									c1.159-0.146,2.36-0.258,3.383-0.82c1.447-0.795,2.306-2.376,2.713-3.976c0.985-3.869-0.414-8.244-3.46-10.824
									c-1.601-1.356-3.561-2.211-5.532-2.929c-3.099-1.13-6.753-1.912-9.538-0.145c-3.572,2.267-3.925,7.554-7.115,10.332
									c-2.664,2.321-6.798,2.435-9.298,4.931c-1.269,1.267-1.955,3.008-2.363,4.754c-1.104,4.723-0.212,9.653,1.825,14.003
									C85.314,348.209,90.921,347.265,93.927,344.846z"/>
							</g>
							<g>
								<path style="fill:#5645C5;" d="M115.477,313.294c-0.17-0.144-0.36-0.262-0.538-0.396c-3.276,1.471-6.693,4.108-9.951,7.212
									l-5.913-8.746c-0.184,0.2-0.349,0.418-0.514,0.636l5.856,8.663c-0.763,0.743-1.515,1.505-2.254,2.284l-5.502-7.658
									c-0.128,0.268-0.257,0.535-0.385,0.803l5.342,7.435c-2.402,2.577-4.648,5.271-6.592,7.754
									c-4.397,5.616-8.536,11.818-10.217,14.656c0.206,0.156,0.421,0.296,0.649,0.414c1.046-1.743,3.214-5.121,6.074-9.105
									l-0.022,0.186l7.067,0.836c0.134-0.248,0.273-0.493,0.41-0.74l-7.055-0.834c0.627-0.866,1.282-1.754,1.966-2.66l6.939,0.614
									c0.194-0.252,0.402-0.492,0.613-0.73l-6.993-0.619c6.097-7.982,14.115-16.892,21.168-19.859
									C115.573,313.395,115.53,313.34,115.477,313.294z"/>
							</g>
						</g>
					</g>
				</g>
				<g>
					<g>
						<path style="fill:#31A8FF;" d="M86.527,404.493H56.631c-4.214,0-7.63-3.416-7.63-7.63v-33.399c0-4.214,3.416-7.63,7.63-7.63
							h29.896c4.214,0,7.63,3.416,7.63,7.63v33.399C94.158,401.077,90.742,404.493,86.527,404.493z"/>
					</g>
					<g>
						<rect x="56.068" y="350.455" style="fill:#31A8FF;" width="31.022" height="7.63"/>
					</g>
				</g>
			</g>
		</g>
		<g>
			<g>
				<g>
					<g>
						<path style="fill:#FFA29E;" d="M689.95,431.957l-22.205-0.742c0,0,5.171,27.09,7.214,31.923
							c0.111,0.263,0.328,0.451,0.599,0.544c1.513,0.521,7.066,2.229,14.392,2.065c7.326,0.163,12.879-1.545,14.392-2.065
							c0.27-0.093,0.487-0.281,0.599-0.544c2.043-4.833,7.214-31.923,7.214-31.923L689.95,431.957z"/>
					</g>
					<g>
						<path style="fill:#FFA29E;" d="M669.792,431.955h40.044c2.145,0,4.135-1.45,4.499-3.564c0.003-0.015,0.005-0.029,0.007-0.044
							l1.349-8.235h-50.824l0.303,7.144c0.044,1.025,0.365,1.999,0.902,2.823C666.873,431.308,668.325,431.955,669.792,431.955z"/>
					</g>
					<g>
						<ellipse style="fill:#7B8CE4;" cx="690.279" cy="420.112" rx="25.412" ry="3.701"/>
					</g>
					<g>
						<g>
							<ellipse style="fill:#2C2D87;" cx="690.937" cy="420.112" rx="21.382" ry="2.714"/>
						</g>
					</g>
				</g>
				<g>
					<g>
						<path style="fill:#31A8FF;" d="M689.13,414.051c0.01-11.295-6.754-21.336-13.284-30.552
							c-2.536-3.579-5.118-7.239-6.377-11.441c-1.047-3.496-1.125-7.198-1.194-10.847c-0.087-4.54-0.174-9.079-0.26-13.619
							c-0.093-4.872-0.193-9.794-1.388-14.517c-1.195-4.724-3.604-9.301-7.522-12.198c11.954,8.172,20.762,20.972,24.337,35.004
							c2.152,8.447,2.477,17.377,5.667,25.489c1.124,2.859,2.592,5.579,3.611,8.478C695.613,398.081,693.742,406.643,689.13,414.051
							z"/>
					</g>
					<g>
						<path style="fill:#98D3FD;" d="M690.139,421.393c0.052-7.538-0.704-15.096-3.324-22.129
							c-3.246-8.713-9.711-16.586-18.46-19.734c-3.365-1.211-6.993-1.713-10.179-3.337c-7.081-3.608-10.906-12.162-18.363-14.911
							c-2.501-0.922-5.21-1.097-7.875-1.124c-3.908-0.04-8.128,0.336-11.098,2.877c-3.493,2.988-4.221,8.019-4.717,12.589
							c3.35-3.043,7.05-5.886,11.39-7.167c5.916-1.747,12.466,2.124,15.235,7.636c1.686,3.356,2.307,7.3,4.732,10.168
							c3.43,4.055,9.29,4.728,14.521,5.642c7.095,1.24,14.507,3.774,18.766,9.583c1.973,2.69,3.115,5.888,4.134,9.064
							c1.162,3.624,2.579,7.392,3.728,11.152C689.083,421.531,689.585,421.424,690.139,421.393z"/>
					</g>
					<g>
						<path style="fill:#98D3FD;" d="M689.73,422.439c-2.148-6.839-0.483-14.27,1.803-21.064c2.286-6.794,5.215-13.522,5.62-20.679
							c0.173-3.049-0.12-6.116,0.155-9.157c0.72-7.955,5.586-15.419,12.574-19.288c2.257-1.25,4.751-2.172,6.635-3.934
							c0.715-0.669,1.333-1.451,2.141-2.004c0.704-0.482,1.524-0.769,2.351-0.98c4.989-1.276,10.592,0.198,14.307,3.764
							c3.715,3.566,5.417,9.104,4.346,14.141c-0.857-2.507-3.413-4.488-5.978-5.148c-2.566-0.66-5.279-0.382-7.88,0.124
							c-1.733,0.337-3.506,0.8-4.89,1.896c-5.037,3.989-1.696,12.665-5.173,18.069c-1.013,1.574-2.536,2.738-4.006,3.898
							c-5.785,4.565-11.53,10.101-12.926,17.336c-0.837,4.336-0.007,8.876-0.942,13.192
							C696.766,417.685,693.032,418.424,689.73,422.439z"/>
					</g>
					<g>
						<path style="fill:#31A8FF;" d="M689.275,422.575c0.037-4.667-3.517-8.678-7.57-10.991c-3.877-2.212-8.38-3.313-12.84-3.138
							c-3.831,0.15-8.028,1.555-9.765,4.972c-1.092,2.149-1.005,4.673-1.211,7.075c-0.38,4.423-1.858,8.748-4.265,12.479
							c-2.891,4.482-7.192,8.342-8.197,13.581c-1.206,6.286,2.828,12.456,7.686,16.624c-2.905-2.054-2.544-6.885-2.332-10.437
							c0.295-4.949,1.758-10.615,6.278-12.651c1.719-0.774,3.652-0.893,5.466-1.407c3.354-0.95,6.278-3.325,7.897-6.411
							c1.3-2.478,1.809-5.401,3.612-7.54c1.893-2.245,4.988-3.245,7.92-3.078C684.888,421.819,686.782,421.022,689.275,422.575z"/>
					</g>
					<g>
						<path style="fill:#31A8FF;" d="M688.898,422.602c0.443-4.47,4.611-7.527,8.508-9.763c2.683-1.54,5.692-3.026,8.739-2.485
							c1.987,0.353,3.715,1.531,5.374,2.681c1.634,1.132,3.382,2.419,3.902,4.338c0.371,1.369,0.042,2.835,0.267,4.236
							c0.35,2.181,1.968,3.913,2.917,5.908c0.948,1.995,0.892,4.93-1.129,5.822c-2.955-2.319-5.143-6.404-7.454-9.365
							s-5.546-5.685-9.301-5.6C696.772,418.464,692.74,421.686,688.898,422.602z"/>
					</g>
				</g>
			</g>
		</g>
		<g>
			<rect x="612.25" y="94.25" style="fill:#31A8FF;" width="110.5" height="6.25"/>
			<g>
				<g>
					<g>
						<path style="fill:#2C2D87;" d="M692.818,71.792c-0.008-2.256-0.455-4.509-1.309-6.597c-0.477-1.168-1.093-2.3-1.978-3.198
							c-0.693-0.703-1.53-1.242-2.348-1.794c-2.805-1.894-5.464-4.004-7.946-6.306c-0.321-0.298-0.814,0.056-0.632,0.454
							c0.781,1.704,1.377,3.497,1.832,5.313c0.65,2.587,1.31,5.214,2.642,7.526c1.332,2.311,3.449,4.307,6.058,4.865
							C690.33,72.309,691.602,71.846,692.818,71.792z"/>
					</g>
					<g>
						<path style="fill:#2C2D87;" d="M699.712,71.049c-1.622-2.499-1.342-5.833-0.207-8.588c1.135-2.755,3.014-5.125,4.572-7.665
							c1.297-2.115,2.399-4.479,2.562-6.923c0.026-0.399,0.567-0.518,0.749-0.162c1.174,2.301,1.717,4.934,2.078,7.501
							c0.166,1.18,0.307,2.373,0.222,3.562c-0.11,1.529-0.59,3.004-1.088,4.454c-0.742,2.158-1.564,4.355-3.082,6.059
							C704,70.992,701.918,71.63,699.712,71.049z"/>
					</g>
					<g>
						<path style="fill:#5645C5;" d="M695.954,76.681c-0.559-2.211-2.279-4.093-4.431-4.85c-1.671-0.587-3.506-0.518-5.21-1.001
							c-1.378-0.391-2.627-1.129-3.859-1.86c-1.633-0.969-3.341-2.023-4.603-3.402c-0.287-0.314-0.801-0.021-0.676,0.386
							c0.447,1.464,0.946,2.94,1.61,4.184c1.097,2.054,2.615,3.94,4.623,5.12c1.376,0.808,2.962,1.277,4.185,2.302L695.954,76.681z"
							/>
					</g>
					<g>
						<path style="fill:#2C2D87;" d="M702.639,78.238c-0.325-2.002,0.855-3.987,2.401-5.299c1.547-1.312,3.443-2.125,5.195-3.146
							c1.458-0.85,2.881-1.922,3.737-3.349c0.182-0.304,0.664-0.218,0.728,0.131c0.461,2.515-0.574,5.271-2.059,7.394
							c-0.575,0.822-1.238,1.602-2.076,2.151c-1.289,0.844-2.872,1.075-4.399,1.285C705.097,77.553,703.708,78.091,702.639,78.238z"
							/>
					</g>
					<g>
						<path style="fill:#5645C5;" d="M695.024,77.912c-0.342-2.148-2.245-3.647-3.393-5.494c-1.567-2.521-1.693-5.717-1.081-8.622
							c0.612-2.905,1.892-5.617,3.001-8.372c0.924-2.297,1.742-4.692,1.935-7.145c0.03-0.381,0.513-0.523,0.728-0.208
							c0.729,1.068,1.703,2.017,2.425,3.077c2.782,4.084,3.982,9.218,3.299,14.112C701.253,70.155,698.819,74.747,695.024,77.912z"
							/>
					</g>
					<g>
						<path style="fill:#5645C5;" d="M705.504,74.601c0.86-1.863,1.685-3.739,2.217-5.716c0.719-2.673,0.83-5.803-0.219-8.376
							c-0.131-0.322-0.567-0.388-0.773-0.107c-1.779,2.428-4.331,4.204-6.7,6.089c-2.568,2.044-5.092,4.456-5.973,7.618
							c-0.252,0.904-0.309,2.003,0.372,2.648c1.912,0.325,3.369,1.089,5.341,1.239C701.986,78.163,704.572,76.618,705.504,74.601z"
							/>
					</g>
				</g>
				<g>
					<path style="fill:#FFA29E;" d="M678.733,77.475c1.005,3.98,3.259,12.373,5.48,16.966l0,0c15.213,0.909,8.465,0.925,23.68,0.047
						l0.816-0.047c2.221-4.593,4.475-12.986,5.48-16.966c0.17-0.672-0.341-1.319-1.034-1.319h-33.388
						C679.073,76.156,678.563,76.803,678.733,77.475z"/>
				</g>
			</g>
		</g>
	</g>
	<g>
		<g>
			<g>
				<path style="fill:#FFD16F;" d="M457.899,259.227c-5.402,1.523-11.149,1.246-16.382-0.783c-4.321-1.675-8.966-3.405-9.924-3.492
					c-1.878-0.171,0.341,8.366,0.341,8.366s-4.269,26.807-2.049,35.173c0,0-4.098,5.464-3.586,5.976
					c0.512,0.512,55.577,0.598,56.175,0c0.598-0.598-4.269-6.83-4.269-6.83s1.725-29.023,2.238-30.56
					c0.512-1.537,1.024-7.513,0.171-8.025C480.05,258.714,467.271,256.585,457.899,259.227z"/>
			</g>
			<g>
				<g>
					<path style="fill:#7B8CE4;" d="M426.624,272.81c2.824,1.629,6.204,2.086,9.244,0.908c3.159-1.224,5.463-1.352,6.164-1.415
						c1.374-0.125,2.002,9.389,2.002,9.389s1.214,10.306,0.198,16.763c-0.185,1.178,0.113,2.377,0.791,3.358
						c0.799,1.158,1.685,2.553,1.471,2.767c-0.375,0.375-40.654,0.437-41.091,0c-0.437-0.437,3.123-4.996,3.123-4.996
						s-1.262-21.23-1.637-22.355c-0.375-1.124-0.749-5.495-0.125-5.87C407.247,271.069,419.986,268.982,426.624,272.81z"/>
				</g>
			</g>
		</g>
		<g>
			<g>
				<g>
					<g>
						<g>
							<path style="fill:#98D3FD;" d="M664.279,260.935c0.105-3.589,2.574-6.675,5.295-9.017c2.721-2.342,5.845-4.28,8.069-7.099
								c5.116-6.484,4.211-15.656,5.83-23.754c0.664-3.321,2.278-7.022,5.567-7.827c-2.309,6.428-2.877,12.979-1.806,19.725
								c0.597,3.76,1.72,7.604,0.818,11.303c-1.231,5.048-5.881,8.456-10.447,10.937
								C673.039,257.684,667.407,256.786,664.279,260.935z"/>
						</g>
						<g>
							<path style="fill:#31A8FF;" d="M687.704,215.044c-1.081,1.973-1.818,4.138-2.283,6.35c-0.449,2.219-0.654,4.481-0.735,6.736
								c-0.101,2.258-0.019,4.512,0.028,6.757c0.064,2.243,0.122,4.471-0.671,6.494c-0.726,2.039-2.037,3.857-3.602,5.399
								c-1.56,1.562-3.396,2.823-5.271,4.037c-1.881,1.208-3.836,2.326-5.714,3.579c-0.928,0.643-1.851,1.292-2.706,2.04
								c-0.847,0.743-1.614,1.649-1.95,2.734c0.428-1.049,1.235-1.866,2.102-2.551c0.88-0.681,1.836-1.272,2.791-1.852
								c1.909-1.167,3.895-2.213,5.839-3.361c1.95-1.132,3.831-2.45,5.481-4.041c1.644-1.584,3.064-3.48,3.873-5.678
								c0.834-2.219,0.732-4.608,0.643-6.823c-0.088-2.245-0.149-4.484-0.156-6.718
								C685.378,223.692,685.859,219.167,687.704,215.044z"/>
						</g>
					</g>
					<g>
						<g>
							<path style="fill:#31A8FF;" d="M663.734,263.889c-0.169-3.651,1.865-7.023,4.076-9.934c2.211-2.911,4.731-5.731,5.817-9.221
								c2.081-6.693-1.617-13.966-0.409-20.871c0.727-4.156,3.183-7.848,3.966-11.993c0.882-4.667-0.422-9.426-1.074-14.13
								c-0.652-4.704-0.467-10.001,2.739-13.505c-5.062,5.207-10.488,10.796-11.656,17.964c-0.87,5.337,0.682,11.009-1.11,16.112
								c-0.766,2.18-2.099,4.107-3.156,6.162c-1.828,3.554-2.833,7.57-2.588,11.559c0.153,2.492,0.782,4.926,1.155,7.395
								C662.557,250.465,664.766,256.847,663.734,263.889z"/>
						</g>
						<g>
							<path style="fill:#98D3FD;" d="M674.55,191.447c-1.505,2.45-2.129,5.346-2.407,8.19c-0.255,2.865-0.129,5.735-0.191,8.574
								c-0.051,2.843-0.308,5.649-1.122,8.359c-0.766,2.72-1.835,5.366-2.723,8.101c-0.87,2.732-1.5,5.623-1.431,8.54
								c0.061,2.9,0.542,5.723,0.601,8.539c0.022,1.408-0.093,2.804-0.4,4.181c-0.296,1.379-0.727,2.735-1.151,4.097
								c-0.825,2.734-1.679,5.457-2.478,8.199c0.992-2.678,1.93-5.374,2.896-8.061c0.47-1.347,0.94-2.704,1.286-4.108
								c0.355-1.401,0.52-2.864,0.538-4.309c0.047-2.9-0.46-5.735-0.474-8.548c-0.039-2.808,0.59-5.567,1.469-8.257
								c0.849-2.702,1.898-5.37,2.655-8.156c0.795-2.779,1.083-5.711,1.023-8.572c-0.022-2.868-0.223-5.713-0.06-8.546
								C672.712,196.844,673.228,193.992,674.55,191.447z"/>
						</g>
					</g>
					<g>
						<g>
							<path style="fill:#98D3FD;" d="M661.354,262.051c3.288-2.535,3.78-7.397,2.787-11.428c-0.993-4.031-3.147-7.696-4.212-11.708
								c-1.061-3.998-0.998-8.288,0.182-12.253c1.796-6.033,6.137-11.576,5.572-17.845c-0.382-4.236-2.977-7.922-4.226-11.987
								c-1.355-4.408-1.062-9.301,0.809-13.516c-5.651,5.337-8.577,13.973-7.873,21.714c0.186,2.048,0.618,4.096,0.413,6.142
								c-0.252,2.511-1.439,4.816-2.27,7.199c-1.743,5.001-1.904,10.579-0.219,15.6c0.916,2.729,2.345,5.252,3.546,7.868
								C658.714,248.051,661.212,255.217,661.354,262.051z"/>
						</g>
						<g>
							<path style="fill:#31A8FF;" d="M659.643,189.595c-1.221,2.659-1.722,5.645-1.545,8.591c0.103,1.474,0.392,2.938,0.85,4.347
								c0.458,1.406,1.044,2.751,1.511,4.114c0.468,1.363,0.806,2.748,0.827,4.16c0.035,1.413-0.237,2.811-0.731,4.144
								c-0.976,2.681-2.699,5.083-3.83,7.855c-1.111,2.801-1.378,5.862-1.112,8.806c0.267,2.955,0.973,5.835,1.885,8.62
								c0.904,2.788,1.93,5.519,2.757,8.309c0.856,2.778,1.481,5.64,1.582,8.564c0.103-2.928-0.44-5.848-1.158-8.682
								c-0.747-2.835-1.703-5.602-2.521-8.393c-0.8-2.79-1.513-5.613-1.731-8.484c-0.232-2.86,0.06-5.768,1.13-8.405
								c1.046-2.655,2.756-5.083,3.766-7.914c0.508-1.408,0.791-2.927,0.738-4.438c-0.025-1.517-0.432-2.998-0.954-4.374
								c-0.52-1.385-1.14-2.705-1.624-4.064c-0.485-1.355-0.799-2.767-0.949-4.203C658.217,195.278,658.611,192.327,659.643,189.595
								z"/>
						</g>
					</g>
					<g>
						<g>
							<path style="fill:#31A8FF;" d="M661.017,262.745c1.88-1.768,2.652-4.457,2.694-7.037c0.056-3.434-1.072-6.876-3.149-9.611
								c-2.548-3.356-6.377-5.567-8.907-8.937c-4.013-5.344-4.104-12.634-3.29-19.267c0.291-2.374,0.677-4.777,0.329-7.143
								c-0.348-2.371-1.413-4.569-2.465-6.723c-0.822-1.684-1.643-3.367-2.465-5.051c1.65,9.395-1.525,19.364-1.84,28.897
								c-0.078,2.37,0.032,4.791,0.843,7.019c1.609,4.422,5.655,7.39,8.864,10.831C656.143,250.561,659.899,256.226,661.017,262.745
								z"/>
						</g>
						<g>
							<path style="fill:#98D3FD;" d="M658.891,252.484c-0.781-1.978-1.618-3.939-2.651-5.818c-1.031-1.883-2.423-3.567-3.854-5.135
								c-1.414-1.59-2.862-3.119-3.894-4.928c-1.05-1.793-1.791-3.767-2.159-5.807c-0.815-4.102-0.166-8.354,0.126-12.593
								c0.139-2.129,0.198-4.281-0.03-6.417c-0.255-2.124-0.786-4.251-1.841-6.109c0.87,1.946,1.297,4.044,1.403,6.147
								c0.136,2.104,0.001,4.217-0.22,6.32c-0.425,4.194-1.097,8.504-0.319,12.82c0.415,2.139,1.217,4.196,2.34,6.057
								c1.118,1.876,2.608,3.472,4.092,4.98c1.492,1.512,2.885,3.08,3.982,4.89C657.008,248.666,657.926,250.589,658.891,252.484z"
								/>
						</g>
					</g>
					<g>
						<g>
							<path style="fill:#98D3FD;" d="M661.959,260.457c-0.48-2.887-2.814-5.107-5.269-6.699c-2.455-1.592-5.192-2.812-7.298-4.843
								c-4.845-4.672-5.125-12.178-7.324-18.539c-0.902-2.608-2.613-5.42-5.358-5.707c2.573,4.936,3.753,10.164,3.631,15.729
								c-0.068,3.102-0.551,6.33,0.585,9.218c1.55,3.941,5.681,6.181,9.641,7.681C654.527,258.797,658.976,257.452,661.959,260.457z
								"/>
						</g>
						<g>
							<path style="fill:#31A8FF;" d="M639.909,228.037c0.671,1.489,1.098,3.06,1.34,4.658c0.27,1.593,0.399,3.209,0.522,4.833
								c0.26,3.225,0.557,6.592,2.027,9.652c1.5,3.058,4.208,5.284,7.053,6.889c1.443,0.797,2.931,1.488,4.44,2.114
								c1.495,0.605,3.111,1.117,4.083,2.476c-0.384-0.726-1.03-1.296-1.729-1.729c-0.699-0.442-1.451-0.783-2.173-1.149
								c-1.464-0.703-2.901-1.457-4.269-2.307c-2.711-1.691-5.266-3.811-6.601-6.693c-1.445-2.827-1.745-6.106-2.147-9.322
								c-0.207-1.616-0.413-3.245-0.777-4.849C641.288,231.016,640.762,229.434,639.909,228.037z"/>
						</g>
					</g>
				</g>
				<g>
					<g>
						<g>
							<path style="fill:#FFD16F;" d="M637.316,279.542c0.635-1.697,1.512-3.291,2.386-4.878c1.518-2.757,3.036-5.513,4.554-8.27
								c1.063-1.93,2.162-4.062,1.758-6.228l16.844,0.851l16.844-0.851c-0.404,2.166,0.695,4.298,1.758,6.228
								c1.518,2.757,3.036,5.513,4.554,8.27c0.874,1.587,1.751,3.181,2.386,4.878c1.689,4.517,1.535,9.7-0.454,14.093
								c-1.988,4.393-5.794,7.938-10.329,9.575c-2.952,1.066-6.124,1.338-9.258,1.507c-0.109,0.006-0.219,0.008-0.329,0.014
								c-1.721,0.111-3.445,0.162-5.172,0.153c-1.726,0.01-3.45-0.042-5.172-0.153c-0.109-0.006-0.219-0.008-0.328-0.014
								c-3.134-0.169-6.306-0.441-9.258-1.507c-4.536-1.638-8.341-5.182-10.329-9.575
								C635.781,289.241,635.627,284.058,637.316,279.542z"/>
						</g>
						<path style="opacity:0.5;fill:#FFD16F;" d="M644.084,266.694h37.54c-0.06-0.1-0.11-0.2-0.17-0.3
							c-0.7-1.28-1.42-2.65-1.71-4.06h-33.78c-0.29,1.41-1,2.78-1.71,4.06C644.194,266.494,644.144,266.594,644.084,266.694z"/>
					</g>
					<g>
						<path style="fill:#FFD16F;" d="M645.285,262.337h35.507c0.122,0,0.221-0.099,0.221-0.221v-5.344
							c0-0.122-0.099-0.221-0.221-0.221h-35.507c-0.122,0-0.221,0.099-0.221,0.221v5.344
							C645.063,262.238,645.162,262.337,645.285,262.337z"/>
					</g>
				</g>
			</g>
			<g>
				<g>
					<g>
						<g>
							<g>
								<path style="fill:#2682C4;" d="M581.023,251.39c0,0-1.341-5.104,7.711-8.009c9.052-2.906,29.839-3.576,39.338-1.341
									c9.499,2.235,12.256,5.178,12.554,9.35c0,0-4.172,3.725-6.519,4.843c-2.347,1.118-36.768,3.688-40.009,3.129
									C590.857,258.803,582.587,255.823,581.023,251.39z"/>
							</g>
							<g>
								<path style="fill:#2C2D87;" d="M582.41,257.475c0,0-1.279-4.866,7.352-7.636c8.631-2.77,28.449-3.41,37.505-1.279
									c9.057,2.131,11.685,4.937,11.969,8.915c0,0-3.978,3.552-6.215,4.617c-2.238,1.065-35.055,3.516-38.145,2.983
									C591.786,264.543,583.901,261.702,582.41,257.475z"/>
							</g>
							<g>
								<path style="fill:#31A8FF;" d="M622,256.922v-0.018c0,0-32.335,3.427-40.977-5.513v24.515
									c0,6.057,1.328,12.105,4.305,17.381c2.781,4.929,7.259,9.831,14.321,11.512l0,0.087h0.298h21.755H622v-0.087
									c7.062-1.681,11.541-6.583,14.321-11.512c2.976-5.276,4.305-11.323,4.305-17.381V251.39
									C635.823,254.5,628.848,256.116,622,256.922z"/>
							</g>
						</g>
					</g>
					<g>
						<g>
							<g>
								<path style="fill:#98D3FD;" d="M616.474,240.986c0.052,4.478-0.471,8.995-1.863,13.226h11.4
									c1.332-8.378-0.039-17.179-1.872-25.561c-2.262-10.346-5.152-20.839-4.105-31.373c1.738-17.55,14.325-34.138,12.231-51.625
									c-1.843,7.267-6.786,13.257-10.618,19.687c-7.602,12.692-11.1,27.813-9.843,42.536
									C612.767,218.995,616.328,229.823,616.474,240.986z"/>
							</g>
							<g>
								<path style="opacity:0.5;fill:#98D3FD;" d="M616.669,254.211h8.141c0.842-12.33-0.643-24.834-4.419-36.598
									c-0.859-2.681-1.822-5.34-2.387-8.084c-1.131-5.487-0.565-11.205,0.607-16.671c2.597-12.063,8.168-23.792,10.911-35.813
									c-1.885,3.497-3.749,6.974-5.634,10.451c-5.341,9.948-10.828,20.357-11.121,31.624c-0.272,10.451,3.937,20.441,5.445,30.787
									C619.385,238.003,618.844,246.328,616.669,254.211z"/>
							</g>
						</g>
						<g>
							<g>
								<path style="fill:#98D3FD;" d="M599.196,234.032c3.068,6.241,5.036,13.71,3.125,20.179h7.05
									c1.9-5.739,2.191-12.007,0.736-17.875c-2.513-10.158-9.843-18.619-12.21-28.797c-1.655-7.121-0.754-14.66,1.424-21.634
									c2.157-6.995,5.487-14.011,8.838-20.504c-6.199,6.199-12.021,12.943-15.917,20.818c-3.875,7.854-5.696,16.985-3.665,25.509
									C590.484,219.77,595.573,226.618,599.196,234.032z"/>
							</g>
							<g style="opacity:0.5;">
								<path style="fill:#98D3FD;" d="M604.955,237.97c0.482,2.22,0.356,4.524,0.21,6.786c-0.22,3.171-0.507,6.448-1.45,9.456
									h2.949c1.74-5.629,2.581-11.517,1.37-17.226c-2.136-10.095-10.241-17.99-13.111-27.896
									c-2.974-10.325,0.042-21.949,5.173-31.394c-4.943,6.932-8.105,15.184-8.649,23.687c-0.565,8.503,1.571,17.236,6.304,24.315
									C600.411,229.655,603.95,233.299,604.955,237.97z"/>
							</g>
						</g>
						<g>
							<g>
								<g>
									<path style="fill:#31A8FF;" d="M594.805,254.211h5.817c1.128-15.089-2.629-30.53-10.599-43.384
										c-4.691-7.54-10.974-14.849-12.65-23.31c-1.047,2.178-1.948,4.398-2.681,6.681c-0.88,2.702-1.55,5.529-1.236,8.356
										c0.314,2.953,1.696,5.676,3.141,8.273c3.958,7.121,8.608,13.844,12.273,21.132
										C592.378,238.874,594.923,246.473,594.805,254.211z"/>
								</g>
								<g style="opacity:0.5;">
									<path style="fill:#31A8FF;" d="M591.489,230.765c0.796,1.717,1.508,3.456,2.031,5.257c0.88,3.037,1.236,6.178,1.592,9.32
										c0.332,2.956,0.659,5.913,0.98,8.869h1.903c-0.336-6.281-0.779-12.543-1.836-18.755c-1.236-7.414-3.393-14.744-7.1-21.278
										c-3.916-6.89-9.445-12.482-12.44-19.812c-2.241,4.168-1.487,9.383,0.565,13.655c2.031,4.272,5.194,7.875,7.937,11.749
										C587.593,223.226,589.73,226.912,591.489,230.765z"/>
								</g>
							</g>
							<g>
								<g>
									<path style="fill:#98D3FD;" d="M591.342,165.757c-2.681,5.55-6.953,10.158-10.325,15.31
										c-1.361,2.073-2.576,4.231-3.644,6.451c-0.042-0.168-0.063-0.335-0.084-0.503c-0.231-1.173-0.335-2.409-0.335-3.665
										c-0.021-12.022,10.367-22.347,13.823-33.886c0.147-0.44,0.272-0.859,0.377-1.298
										C594.777,153.149,594.002,160.207,591.342,165.757z"/>
								</g>
								<g style="opacity:0.5;">
									<path style="fill:#98D3FD;" d="M591.342,165.757c-2.681,5.55-6.953,10.158-10.325,15.31
										c-1.361,2.073-2.576,4.231-3.644,6.451c-0.042-0.168-0.063-0.335-0.084-0.503c0.356-2.262,1.299-4.482,2.199-6.618
										c1.299-2.974,2.576-5.969,4.084-8.838c1.696-3.225,3.644-6.325,5.005-9.697c1.592-3.916,2.346-8.168,2.199-12.399
										c0.147-0.44,0.272-0.859,0.377-1.298C594.777,153.149,594.002,160.207,591.342,165.757z"/>
								</g>
							</g>
						</g>
						<g>
							<g>
								<path style="fill:#31A8FF;" d="M611.238,253.845c-0.017,0.121-0.044,0.244-0.063,0.366h6.929
									c3.038-9.52,3.686-19.806,1.7-29.603c-1.843-9.11-5.843-17.781-6.513-27.059c-0.523-7.267,1.026-14.514,1.508-21.781
									c0.461-7.121-0.105-14.325-1.675-21.299c-1.676-7.309-4.356-14.242-10.011-19.163c4.314,8.042,6.241,17.236,6.388,26.347
									c0.147,9.131-1.424,18.221-3.77,27.038c-1.194,4.482-2.576,8.943-3.016,13.55
									C601.123,219.728,613.542,236.42,611.238,253.845z"/>
							</g>
							<g style="opacity:0.5;">
								<path style="fill:#31A8FF;" d="M612.286,232.566c1.707,7.078,2.143,14.67,0.314,21.645h2.717
									c0.777-3.056,2.081-6.02,2.917-9.079c1.592-5.822,1.445-12.105-0.419-17.823c-0.963-2.974-2.387-5.78-3.477-8.712
									c-7.728-20.671,1.194-44.169-3.728-65.699c1.592,10.723,0.733,21.802-2.471,32.148c-1.089,3.497-2.45,6.932-3.079,10.534
									c-1.131,6.241-0.042,12.692,1.696,18.786C608.474,220.482,610.82,226.409,612.286,232.566z"/>
							</g>
						</g>
						<g>
							<g>
								<g>
									<path style="fill:#31A8FF;" d="M628.539,254.211c2.7-10.399,4.592-21.19,1.319-31.258c-0.67-2.073-1.529-4.042-2.513-5.99
										c-1.717,3.958-4,7.77-5.864,11.665c-3.774,7.965-5.741,16.769-5.807,25.582H628.539z"/>
								</g>
								<g style="opacity:0.5;">
									<path style="fill:#31A8FF;" d="M625.102,254.211c1.506-5.627,3.325-11.185,3.792-16.975c0.23-3.1,0.084-6.199-0.063-9.299
										c-0.147-3.267-0.44-6.639-1.843-9.592c-0.712,6.953-3.309,13.55-5.613,20.127c-1.8,5.109-3.422,10.382-3.885,15.739
										H625.102z"/>
								</g>
							</g>
							<g>
								<g>
									<path style="fill:#98D3FD;" d="M629.773,206.848c-0.021,3.539-1.026,6.87-2.43,10.116
										c-0.042-0.105-0.105-0.189-0.147-0.293c-1.885-3.77-4.084-7.435-5.78-11.288c-2.995-6.786-4.021-14.283-3.665-21.697
										c0.209,0.23,0.398,0.44,0.586,0.67C624.119,190.826,629.857,198.24,629.773,206.848z"/>
								</g>
								<g style="opacity:0.5;">
									<path style="fill:#98D3FD;" d="M627.197,216.67c-1.885-3.77-4.084-7.435-5.78-11.288
										c-2.995-6.786-4.021-14.283-3.665-21.697c0.209,0.23,0.398,0.44,0.586,0.67c0.398,4.021,2.43,7.875,3.895,11.728
										c0.775,2.053,1.403,4.189,2.032,6.304c0.503,1.654,0.984,3.309,1.487,4.964c0.503,1.696,1.005,3.393,1.278,5.152
										C627.218,213.864,627.281,215.288,627.197,216.67z"/>
								</g>
							</g>
						</g>
					</g>
				</g>
			</g>
		</g>
	</g>
</g>
</svg>
