<?xml version="1.0" encoding="utf-8"?>
<!-- Generator: Adobe Illustrator 27.5.0, SVG Export Plug-In . SVG Version: 6.00 Build 0)  -->
<svg version="1.1" xmlns="http://www.w3.org/2000/svg" xmlns:xlink="http://www.w3.org/1999/xlink" x="0px" y="0px"
	 viewBox="0 0 500 500" style="enable-background:new 0 0 500 500;" xml:space="preserve">
<g id="BACKGROUND">
	<rect x="0" style="fill:#F7EDE5;" width="500" height="500"/>
</g>
<g id="OBJECTS">
	<g>
		<path style="fill:#FFFFFF;" d="M271.81,463.889c-3.132,0-5.671-2.539-5.671-5.671V356.663c0-23.247,8.375-45.716,23.583-63.267
			c15.051-17.371,35.787-28.835,58.385-32.277c1.75-0.286,3.669-0.525,5.807-0.721c2.335-0.218,4.743-0.35,7.151-0.391
			c0.587-0.02,1.164-0.021,1.752-0.021c0.81,0,1.621,0.011,2.421,0.042c22.504,0.519,44.304,9.017,61.297,23.927
			c1.584,1.385,3.15,2.849,4.645,4.345c1.119,1.119,2.25,2.307,3.364,3.534c5.89,6.519,10.846,13.762,14.738,21.538
			c6.015,11.968,9.412,24.867,10.091,38.328c0.005,0.095,0.007,0.191,0.007,0.286v57.404c0.082,0.386,0.123,0.779,0.123,1.174
			v47.655c0,3.132-2.539,5.671-5.671,5.671H271.81z"/>
		<g>
			<g>
				<g>
					<path style="fill:#B5E1E8;" d="M454.311,356.178v101.554H332.483l-10.805-11.699l-10.99,11.699h-38.391V356.178
						c0-45.546,33.477-83.285,77.151-89.939c1.796-0.284,3.62-0.51,5.472-0.68c2.231-0.208,4.489-0.331,6.777-0.369
						c0.539-0.019,1.068-0.019,1.607-0.019c0.737,0,1.465,0.009,2.202,0.038c24.271,0.558,46.16,10.633,62.152,26.615
						C444.122,308.289,454.311,331.057,454.311,356.178z"/>
				</g>
			</g>
			<g>
				<g>
					<g>
						<g>
							<path style="fill:#6E72FF;" d="M387.655,357.561c1.872,0.612,3.364,2.267,3.78,4.191c0.416,1.925-0.26,4.048-1.713,5.378
								c-0.668,0.612-1.474,1.055-2.3,1.428c-1.05,0.474-2.187,0.851-3.335,0.747c-1.147-0.105-2.52-0.461-2.89-1.552
								c1.156,2.258,0.405,5.314-1.668,6.777c-2.072,1.463-5.203,1.15-6.945-0.695c-0.426-0.451-0.538-0.527-1.044-0.886
								c0.674,3.471-2.073,7.041-5.51,7.869c-3.437,0.828-7.815-0.111-10.194-2.727c0.531,1.91-0.041,4.087-1.443,5.489
								c-1.402,1.402-3.578,1.975-5.488,1.444c-2.208-0.614-3.772-1.99-5.1-3.858c-0.171,2.602-1.389,5.536-3.921,6.158
								c-1.159,0.285-2.385,0.019-3.504-0.394c-1.908-0.703-3.835-1.583-4.123-3.596c-0.069,2.913-2.779,5.503-5.693,5.439
								c-2.914-0.063-5.32-3.02-5.262-5.933c-1.434,1.151-3.509,1.677-5.149,0.844c-2.021-1.027-2.659-3.641-2.507-5.902
								c0.174-2.591,1.631-5.494,3.761-6.98c-1.725,0.445-3.634,0.116-5.111-0.881c-1.477-0.997-2.496-2.645-2.728-4.411
								c-0.325-2.473,0.653-4.978,1.842-7.171c-0.842-0.169-1.684-0.338-2.526-0.508c-0.989-0.199-1.996-0.404-2.878-0.893
								c-2.207-1.224-3.159-4.093-2.626-6.56c0.533-2.467,2.564-4.499,4.638-5.937c-1.443-0.236-2.852-0.679-4.171-1.309
								c-0.947-0.453-1.864-1.015-2.552-1.808c-1.495-1.724-1.655-4.341-0.795-6.454c0.86-2.113,2.594-3.769,4.514-5
								c0.207-0.133,0.637-0.064,0.599,0.179c-2.84-0.983-4.849-3.972-4.688-6.972c0.161-3.001,2.981-6.638,5.91-7.311
								c-2.934-0.173-6.397-0.199-6.807-4.021c-0.291-2.719,2.367-4.919,5.017-5.592c1.22-0.309,2.535-0.411,3.721,0.009
								c-1.577-0.76-2.275-2.81-1.778-4.489c0.497-1.679,1.976-2.946,3.629-3.525c1.652-0.579,3.461-0.549,5.193-0.293
								c3.006,0.444,5.911,1.556,8.446,3.231c0.81-3.162,1.857-6.233,3.993-8.701c1.196-1.381,2.83-2.695,4.642-2.462
								c1.381,0.178,2.515,1.255,3.138,2.5c0.623,1.246,0.823,2.653,1.014,4.033c0.772-2.486,2.609-4.287,4.502-6.074
								c1.426-1.346,3.249-2.451,5.209-2.381c2.885,0.103,5.261,3.209,4.606,6.02c1.018-3.128,3.477-5.78,6.541-6.977
								c1.297-0.507,2.829-0.748,4.037-0.054c1.048,0.602,1.63,1.789,1.897,2.968c0.267,1.179,0.281,2.402,0.517,3.588
								c0.448-1.339,1.305-2.258,2.508-2.996c2.6-1.595,6.005-2.632,8.63-1.078c1.725,1.022,2.736,3.036,2.799,5.04
								c0.063,2.004-0.738,3.973-1.96,5.562c0.753,0.2,0.779,0.197,1.554,0.274c2.288,0.228,4.076,2.382,4.37,4.663
								c0.294,2.281-0.663,4.579-2.09,6.383c1.21-0.407,2.524,0.729,3.424,1.634c1.2,1.206,2.2,2.718,2.356,4.412
								c0.264,2.872-1.882,5.361-4.01,7.308c2.371-1.326,5.268,0.472,6.173,3.033c0.314,0.89,0.353,1.855,0.28,2.796
								c-0.225,2.929-1.531,5.763-3.61,7.838c2.005-0.958,5.11-0.839,6.522,0.878c1.412,1.717,1.669,4.229,0.87,6.303
								c-0.799,2.074-2.551,3.704-4.581,4.61c1.917,0.03,3.511,1.736,3.628,3.649C391.335,355.771,389.554,357.297,387.655,357.561z
								"/>
						</g>
						<g>
							<path style="fill:#352945;" d="M330.717,377.656c-0.235,0-0.468-0.063-0.672-0.185c-0.306-0.184-0.525-0.49-0.6-0.839
								l-13.159-61.096c-0.128-0.595,0.167-1.192,0.718-1.451h0c3.267-1.532,26.947-10.106,53.158-11.189
								c0.647-0.001,1.242,0.45,1.342,1.109l8.916,58.423c0.099,0.646-0.301,1.267-0.93,1.445l-48.421,13.735
								C330.954,377.64,330.835,377.656,330.717,377.656z M317.306,314.727c-0.251,0.117-0.385,0.389-0.327,0.659l13.159,61.096
								c0.035,0.161,0.132,0.296,0.272,0.381c0.142,0.085,0.306,0.105,0.466,0.063l48.42-13.735
								c0.286-0.081,0.468-0.364,0.423-0.657l-8.916-58.423c-0.046-0.302-0.314-0.544-0.613-0.507
								C345.859,304.61,321.912,312.566,317.306,314.727L317.306,314.727z"/>
						</g>
					</g>
					<g>
						<g>
							<g>
								<path style="fill:#F7EDE5;" d="M433.622,348.721c-1.219-0.785-2.486-1.503-3.78-2.164c-0.151-1.323-0.388-2.656-0.699-3.979
									c1.087,0.255,2.675,0.671,3.024-0.813c0.312-2.136-2.533-1.834-3.913-2.249c-0.293-0.841-0.595-1.692-0.964-2.505
									c0.983-0.104,2.023,0.283,2.977,0.019c1.304-0.482,1.049-2.571-0.359-2.713c-1.314-0.17-2.646-0.208-3.979-0.104
									c-0.368-0.69-0.765-1.352-1.181-2.004c5.85-1.522,2.731-5.198-1.645-2.363c-0.794-1.04-1.645-2.023-2.542-2.949
									c6.54-3.355,2.486-6.276-2.098-1.994c-0.87-0.747-1.767-1.456-2.694-2.108c0.907-1.834,4.858-3.109,3.601-5.397
									c-2.316-1.73-4.414,2.561-6.011,3.856c-0.964-0.548-1.938-1.049-2.939-1.503c0.699-2.004,4.574-3.988,2.949-6.134
									c-2.665-1.276-4.092,3.497-5.642,5.056c-0.851-0.302-1.72-0.567-2.599-0.784c3.875-6.824-1.191-7.145-2.807-0.596
									c-1.805-0.293-3.629-0.425-5.472-0.406c-0.057-1.805,1.777-4.943-0.567-5.68c-2.646,0.066-1.616,3.979-2.344,5.86
									c-1.115,0.123-2.24,0.302-3.355,0.548c0.094-6.191-4.13-5.312-2.817,0.756c-0.643,0.198-1.285,0.425-1.919,0.68
									c0,0,0,0-0.009,0c-0.633,0.255-1.267,0.52-1.881,0.822c-0.482-1.465-0.501-4.763-2.769-4.178
									c-0.728,0.265-1.106,1.087-0.832,1.824c0.454,1.219,0.766,2.476,0.955,3.762c-1.238,0.737-2.41,1.55-3.516,2.439
									c-0.803-1.37-1.843-4.782-3.932-3.516c-0.076,0.066-0.151,0.132-0.208,0.208c-0.435,0.491-0.463,1.238-0.038,1.777
									c0.142,0.18,0.274,0.359,0.397,0.548c0.643,0.917,1.153,1.919,1.522,2.977c-0.321,0.312-0.624,0.624-0.926,0.945
									c-0.728,0.766-1.418,1.569-2.06,2.401c-1.011-1.153-2.467-4.149-4.263-2.646c-0.548,0.558-0.539,1.456,0.028,2.004
									c0.955,0.926,1.786,2.004,2.486,3.166c-0.643,1.021-1.219,2.07-1.739,3.157c-1.134-0.879-2.939-3.195-4.3-1.484
									c-0.444,0.643-0.274,1.522,0.378,1.966c1.002,0.671,1.909,1.465,2.722,2.344c-0.614,1.673-1.106,3.412-1.446,5.179
									c-1.767-0.652-3.648-4.055-5.538-2.372c-1.219,2.665,3.516,3.951,5.094,5.453c-0.132,1.38-0.17,2.769-0.132,4.178
									c-1.607-0.142-3.374-2.647-4.754-0.945c-1.134,2.561,3.242,3.365,4.981,3.932c0.142,1.2,0.359,2.41,0.633,3.61
									c-1.654,0.142-3.913-2.079-5.009-0.132c-0.614,2.779,3.97,2.75,5.831,3.053c0.057,0.17,0.113,0.34,0.18,0.51
									c0.028,0.104,0.066,0.217,0.113,0.331c0.34,0.983,0.737,1.966,1.191,2.911c-0.907,0.217-1.909,0.066-2.684-0.454
									c-0.652-0.435-1.531-0.265-1.966,0.388c-1.153,2.968,4.092,3.431,5.973,2.609c0.047,0.085,0.095,0.17,0.142,0.246
									c0.766,1.314,1.607,2.552,2.514,3.714c-1.333,1.049-4.565,0.491-4.366,2.769c0.52,1.314,1.72,1.304,2.996,0.879
									c0.132-0.038,0.265-0.085,0.397-0.142c0.624-0.227,1.248-0.529,1.805-0.803c0.397-0.189,0.756-0.368,1.058-0.482
									c0.955,1.04,1.975,2.004,3.043,2.892c-0.104,0.151-0.217,0.302-0.331,0.454c-0.898,1.191-1.985,2.24-3.223,3.09
									c-0.643,0.444-0.803,1.333-0.35,1.975c2.24,1.975,4.745-2.315,6.162-3.799c0.34,0.236,0.69,0.473,1.04,0.699
									c0.539,0.34,1.077,0.671,1.635,0.983c-4.801,6.181-0.359,8.005,2.523,1.285c0.652,0.293,1.304,0.567,1.966,0.813
									c0.047,0.019,0.085,0.038,0.123,0.047c0.718,0.274,1.446,0.52,2.183,0.737c-1.002,1.474-4.026,5.482-0.217,5.085
									c1.408-1.049,2.108-2.93,3.081-4.376c1.021,0.199,2.06,0.35,3.091,0.454c-4.083,6.332,1.456,5.879,3.072,0.142
									c1.181,0,2.372-0.066,3.563-0.208c0.113,1.645-2.023,4.007-0.019,5.028c2.665,0.539,2.523-3.733,2.92-5.51h0.009
									c0.728-0.151,1.446-0.331,2.174-0.548c-0.699,5.321,3.903,3.27,2.788-0.954c0.974-0.369,1.919-0.822,2.826-1.295
									c0.832,7.193,4.905,3.951,2.542-1.465c1.607-1.03,3.091-2.183,4.452-3.459c0.539,1.011,0.435,3.072,1.304,3.799
									c0.312,0.265,0.737,0.35,1.371,0.161c1.994-1.314-0.028-4.423-0.52-6.191c0.435-0.492,0.851-1.002,1.248-1.522
									c1.191,1.181,0.86,4.385,3.091,4.017c2.552-1.285-0.388-4.867-1.37-6.483c0.595-0.945,1.134-1.909,1.616-2.902
									c0.907,0.992,1.446,3.412,3.204,2.552c2.06-1.569-1.002-4.045-1.919-5.501c0.35-0.936,0.662-1.89,0.926-2.854
									c1.191,0.907,1.966,3.695,3.809,2.627c1.947-2.013-1.871-4.404-3.091-5.907c0.331-1.956,0.491-3.951,0.463-5.973
									c1.077,0.435,2.098,1.786,3.336,1.333C434.425,350.829,434.576,349.298,433.622,348.721z M402.48,360.583
									c-5.567,2.297-10.359,0.17-13.194-3.573c-3.903-5.142-4.14-13.336,2.316-17.315c0.548-0.34,1.144-0.643,1.796-0.917
									C407.262,333.079,416.297,354.77,402.48,360.583z"/>
							</g>
						</g>
						<g>
							<g>
								<g>
									<path style="fill:#352945;" d="M395.554,331.153c-0.174,0.072-0.377-0.005-0.457-0.178
										c-0.821-1.766-1.016-3.778-0.551-5.666c0.047-0.19,0.239-0.308,0.429-0.259c0.19,0.047,0.306,0.238,0.26,0.429
										c-0.427,1.732-0.247,3.578,0.505,5.197c0.083,0.177,0.006,0.389-0.172,0.471
										C395.563,331.15,395.559,331.151,395.554,331.153z"/>
								</g>
							</g>
							<g>
								<g>
									<path style="fill:#352945;" d="M385.445,335.712c-0.153,0.064-0.334,0.013-0.43-0.13c-0.957-1.424-1.687-2.981-2.171-4.626
										c-0.055-0.187,0.056-0.381,0.24-0.44c0.188-0.055,0.385,0.053,0.44,0.241c0.464,1.576,1.163,3.066,2.079,4.43
										c0.109,0.162,0.066,0.382-0.097,0.492C385.487,335.692,385.466,335.703,385.445,335.712z"/>
								</g>
							</g>
							<g>
								<g>
									<path style="fill:#352945;" d="M402.513,335.228c-0.038,0.016-0.08,0.025-0.124,0.027
										c-0.195,0.007-0.359-0.146-0.366-0.341c-0.042-1.228,0.13-2.444,0.512-3.612c0.06-0.188,0.262-0.287,0.447-0.227
										c0.186,0.061,0.288,0.261,0.226,0.447c-0.356,1.09-0.516,2.223-0.477,3.367
										C402.736,335.04,402.645,335.173,402.513,335.228z"/>
								</g>
							</g>
							<g>
								<g>
									<path style="fill:#352945;" d="M401.065,325.897c-0.059,0.025-0.125,0.033-0.193,0.022
										c-0.193-0.032-0.324-0.213-0.293-0.406c0.241-1.484,0.819-2.923,1.672-4.162c0.112-0.161,0.333-0.202,0.493-0.09
										c0.161,0.111,0.202,0.332,0.091,0.493c-0.794,1.152-1.332,2.492-1.557,3.872
										C401.259,325.752,401.175,325.851,401.065,325.897z"/>
								</g>
							</g>
							<g>
								<g>
									<path style="fill:#352945;" d="M408.433,338.666c-0.054,0.022-0.114,0.032-0.177,0.025
										c-0.194-0.022-0.333-0.198-0.311-0.393c0.198-1.712,0.854-3.341,1.899-4.711c0.117-0.157,0.34-0.186,0.497-0.067
										c0.155,0.118,0.185,0.341,0.067,0.496c-0.968,1.27-1.576,2.779-1.759,4.363
										C408.634,338.511,408.548,338.618,408.433,338.666z"/>
								</g>
							</g>
							<g>
								<g>
									<path style="fill:#352945;" d="M410.954,328.743c-0.073,0.031-0.157,0.036-0.24,0.012
										c-0.187-0.057-0.293-0.255-0.236-0.442c0.427-1.406,1.223-2.678,2.301-3.677c0.146-0.133,0.369-0.124,0.501,0.018
										c0.133,0.144,0.125,0.368-0.019,0.501c-0.987,0.914-1.714,2.078-2.105,3.364
										C411.125,328.624,411.048,328.704,410.954,328.743z"/>
								</g>
							</g>
							<g>
								<g>
									<path style="fill:#352945;" d="M414.413,345.428c-0.045,0.019-0.095,0.028-0.147,0.027
										c-0.196-0.006-0.35-0.169-0.344-0.365c0.043-1.461,0.552-2.907,1.434-4.073c0.118-0.158,0.34-0.188,0.496-0.07
										c0.156,0.118,0.187,0.34,0.069,0.496c-0.793,1.05-1.251,2.353-1.29,3.668C414.627,345.255,414.538,345.376,414.413,345.428
										z"/>
								</g>
							</g>
							<g>
								<g>
									<path style="fill:#352945;" d="M417.212,335.74c-0.044,0.018-0.093,0.029-0.144,0.027
										c-0.196-0.004-0.351-0.166-0.346-0.362c0.029-1.313,0.322-2.643,0.847-3.848c0.078-0.179,0.287-0.261,0.467-0.183
										c0.179,0.078,0.261,0.287,0.183,0.466c-0.489,1.12-0.762,2.359-0.789,3.58C417.426,335.566,417.337,335.688,417.212,335.74
										z"/>
								</g>
							</g>
							<g>
								<g>
									<path style="fill:#352945;" d="M377.728,336.292c-0.133,0.055-0.291,0.026-0.395-0.085
										c-1.042-1.11-1.894-2.373-2.531-3.754c-0.082-0.178-0.005-0.389,0.173-0.471c0.201-0.069,0.389-0.004,0.47,0.173
										c0.606,1.312,1.415,2.512,2.405,3.567c0.134,0.142,0.127,0.367-0.016,0.501
										C377.802,336.253,377.766,336.276,377.728,336.292z"/>
								</g>
							</g>
							<g>
								<g>
									<path style="fill:#352945;" d="M380.741,346.244c-0.087,0.036-0.189,0.038-0.281-0.004
										c-1.084-0.488-2.02-1.259-2.708-2.229c-0.113-0.16-0.076-0.381,0.084-0.495c0.16-0.111,0.381-0.075,0.494,0.084
										c0.615,0.867,1.452,1.556,2.42,1.993c0.179,0.081,0.258,0.29,0.178,0.469C380.89,346.148,380.822,346.211,380.741,346.244z
										"/>
								</g>
							</g>
							<g>
								<g>
									<path style="fill:#352945;" d="M374.69,346.615c-0.1,0.042-0.218,0.037-0.318-0.023c-1.339-0.799-2.446-2.014-3.118-3.421
										c-0.085-0.177-0.01-0.389,0.167-0.473c0.178-0.067,0.388-0.01,0.473,0.167c0.612,1.283,1.621,2.39,2.842,3.118
										c0.168,0.101,0.223,0.318,0.123,0.486C374.817,346.537,374.758,346.587,374.69,346.615z"/>
								</g>
							</g>
							<g>
								<g>
									<path style="fill:#352945;" d="M373.907,354.785c-0.105,0.044-0.229,0.036-0.331-0.031
										c-1.296-0.852-2.416-1.999-3.237-3.314c-0.104-0.167-0.053-0.385,0.113-0.489c0.166-0.098,0.385-0.053,0.488,0.113
										c0.768,1.23,1.814,2.301,3.025,3.098c0.164,0.108,0.209,0.327,0.101,0.491C374.026,354.714,373.97,354.759,373.907,354.785
										z"/>
								</g>
							</g>
							<g>
								<g>
									<path style="fill:#352945;" d="M383.231,358.08c-0.131,0.054-0.287,0.027-0.392-0.082
										c-0.944-0.981-1.804-2.055-2.558-3.193c-0.108-0.164-0.064-0.383,0.1-0.491c0.16-0.112,0.383-0.063,0.491,0.1
										c0.73,1.103,1.564,2.143,2.478,3.094c0.135,0.141,0.131,0.365-0.01,0.501C383.308,358.04,383.27,358.063,383.231,358.08z"
										/>
								</g>
							</g>
							<g>
								<g>
									<path style="fill:#352945;" d="M378.278,366.569c-0.129,0.053-0.283,0.028-0.387-0.077
										c-1.119-1.124-2.129-2.366-3.002-3.691c-0.108-0.164-0.063-0.384,0.101-0.491c0.158-0.109,0.383-0.063,0.49,0.101
										c0.847,1.286,1.827,2.491,2.913,3.58c0.138,0.139,0.138,0.363-0.001,0.501C378.359,366.526,378.32,366.552,378.278,366.569
										z"/>
								</g>
							</g>
							<g>
								<g>
									<path style="fill:#352945;" d="M387.801,368.532c-0.14,0.058-0.306,0.022-0.408-0.1c-0.856-1.027-1.611-2.145-2.246-3.324
										c-0.093-0.172-0.028-0.387,0.144-0.48c0.182-0.093,0.388-0.028,0.48,0.144c0.612,1.138,1.341,2.216,2.166,3.205
										c0.125,0.151,0.105,0.374-0.045,0.5C387.864,368.501,387.833,368.519,387.801,368.532z"/>
								</g>
							</g>
							<g>
								<g>
									<path style="fill:#352945;" d="M396.405,368.259c-0.123,0.051-0.27,0.03-0.375-0.065c-0.857-0.78-1.526-1.765-1.937-2.849
										c-0.069-0.183,0.004-0.375,0.206-0.458c0.183-0.069,0.387,0.023,0.457,0.206c0.371,0.98,0.977,1.872,1.752,2.576
										c0.144,0.132,0.155,0.356,0.024,0.501C396.494,368.21,396.451,368.239,396.405,368.259z"/>
								</g>
							</g>
							<g>
								<g>
									<path style="fill:#352945;" d="M393.036,376.358c-0.107,0.045-0.235,0.036-0.338-0.035
										c-1.147-0.789-2.045-1.943-2.529-3.248c-0.068-0.184,0.055-0.391,0.209-0.456c0.184-0.068,0.388,0.026,0.456,0.209
										c0.435,1.17,1.239,2.204,2.267,2.911c0.161,0.111,0.202,0.332,0.091,0.493C393.151,376.29,393.096,376.332,393.036,376.358
										z"/>
								</g>
							</g>
							<g>
								<g>
									<path style="fill:#352945;" d="M405.334,374.65c-0.114,0.048-0.25,0.034-0.355-0.047c-1.07-0.835-1.864-2.014-2.236-3.32
										c-0.053-0.188,0.051-0.384,0.244-0.438c0.188-0.054,0.384,0.055,0.438,0.244c0.331,1.162,1.037,2.211,1.99,2.955
										c0.154,0.121,0.182,0.343,0.061,0.497C405.438,374.591,405.388,374.628,405.334,374.65z"/>
								</g>
							</g>
							<g>
								<g>
									<path style="fill:#352945;" d="M405.813,366.613c-0.139,0.058-0.305,0.023-0.407-0.099
										c-0.832-0.986-1.479-2.157-1.872-3.388c-0.059-0.186,0.04-0.379,0.23-0.446c0.187-0.059,0.386,0.044,0.445,0.23
										c0.364,1.142,0.965,2.231,1.738,3.146c0.126,0.149,0.107,0.373-0.042,0.499
										C405.877,366.581,405.846,366.599,405.813,366.613z"/>
								</g>
							</g>
							<g>
								<g>
									<path style="fill:#352945;" d="M413.67,371.892c-0.163,0.068-0.354,0.005-0.444-0.152l-1.937-3.398
										c-0.097-0.169-0.038-0.386,0.132-0.483c0.168-0.094,0.387-0.038,0.484,0.133l1.937,3.398
										c0.097,0.169,0.038,0.386-0.132,0.483C413.697,371.879,413.683,371.886,413.67,371.892z"/>
								</g>
							</g>
							<g>
								<g>
									<path style="fill:#352945;" d="M413.819,361.034c-0.046,0.019-0.095,0.029-0.148,0.027
										c-0.196-0.007-0.349-0.171-0.343-0.366c0.052-1.602-0.282-3.217-0.968-4.668c-0.084-0.177-0.008-0.388,0.169-0.472
										c0.177-0.07,0.389-0.008,0.472,0.169c0.733,1.552,1.091,3.279,1.035,4.994
										C414.032,360.862,413.943,360.982,413.819,361.034z"/>
								</g>
							</g>
							<g>
								<g>
									<path style="fill:#352945;" d="M419.622,354.225c-0.051,0.022-0.109,0.031-0.169,0.025c-0.194-0.018-0.338-0.19-0.32-0.386
										c0.161-1.724-0.059-3.498-0.634-5.13c-0.066-0.186,0.029-0.404,0.217-0.452c0.184-0.066,0.387,0.032,0.452,0.216
										c0.609,1.729,0.842,3.607,0.672,5.432C419.826,354.066,419.739,354.176,419.622,354.225z"/>
								</g>
							</g>
							<g>
								<g>
									<path style="fill:#352945;" d="M419.067,365.293c-0.048,0.02-0.101,0.03-0.155,0.027c-0.196-0.012-0.345-0.178-0.334-0.374
										c0.086-1.55-0.061-3.101-0.438-4.607c-0.047-0.189,0.063-0.381,0.257-0.43c0.19-0.047,0.383,0.068,0.43,0.258
										c0.395,1.575,0.549,3.197,0.458,4.818C419.278,365.126,419.189,365.243,419.067,365.293z"/>
								</g>
							</g>
							<g>
								<g>
									<path style="fill:#352945;" d="M425.92,357.039c-0.042,0.018-0.089,0.027-0.137,0.027c-0.196-0.001-0.354-0.16-0.353-0.356
										c0.004-1.533-0.205-3.062-0.62-4.542c-0.053-0.189,0.053-0.384,0.245-0.437c0.188-0.053,0.384,0.057,0.436,0.245
										c0.433,1.543,0.651,3.137,0.647,4.737C426.138,356.86,426.047,356.986,425.92,357.039z"/>
								</g>
							</g>
							<g>
								<g>
									<path style="fill:#352945;" d="M387.752,328.298c-0.017,0.007-0.035,0.013-0.054,0.017
										c-0.19,0.046-0.382-0.071-0.427-0.261c-0.432-1.788-0.406-3.671,0.074-5.447c0.05-0.189,0.245-0.3,0.434-0.25
										c0.189,0.051,0.301,0.246,0.25,0.435c-0.449,1.66-0.473,3.422-0.069,5.095C388.001,328.059,387.91,328.232,387.752,328.298
										z"/>
								</g>
							</g>
							<g>
								<g>
									<path style="fill:#352945;" d="M423.285,345.391c-0.073,0.03-0.156,0.037-0.238,0.012
										c-0.187-0.056-0.294-0.254-0.238-0.441c0.454-1.518,0.583-3.15,0.373-4.719c-0.026-0.193,0.11-0.371,0.304-0.398
										c0.194-0.026,0.373,0.11,0.398,0.304c0.223,1.669,0.087,3.403-0.396,5.017
										C423.456,345.271,423.379,345.352,423.285,345.391z"/>
								</g>
							</g>
						</g>
						<g>
							<g>
								<path style="fill:#6E72FF;" d="M420.013,382.94c1.663-2.917,1.681-7.062-0.278-10.818c-2.794-5.357-8.54-7.883-12.833-5.644
									c-4.293,2.24-5.508,8.397-2.714,13.754c2.343,4.491,6.758,6.98,10.655,6.352c5.343,13.043,20.965,49.104,28.367,43.879
									C450.722,425.16,427.834,393.368,420.013,382.94z"/>
							</g>
						</g>
					</g>
					<g>
						<g>
							<g>
								<path style="fill:#E3735F;" d="M387.878,371.631c0.491,0.756,0.879,1.871,0.813,3.488c-0.019,0.548-0.104,1.153-0.246,1.824
									c-0.255,1.172-0.643,2.335-1.106,3.45c-0.302,0.747-0.633,1.474-0.973,2.155c-1.578,3.138-3.355,5.453-3.355,5.453
									s3.138,2.174-1.692,10.132c-4.82,7.967-23.884,23.893-30.405,32.815c-4.045,5.548-12.57,18.09-18.43,26.785h-21.795
									l-35.301-20.746c0,0,25.093-28.959,30.641-35.962c4.962-6.238,8.175-12.863,12.419-16.965c0.51-0.501,1.03-0.955,1.578-1.37
									c1.512-1.144,5.132-4.007,9.48-7.457c10.264-8.147,24.545-19.574,24.545-19.574s4.584,3.62-0.964,14.725
									c0,0,6.966-5.68,14.612-10.349c3.818-2.344,7.807-4.433,11.171-5.434c3.223-0.955,5.879-0.926,7.278,0.822
									c0.302,0.378,0.577,0.766,0.813,1.144c0.699,1.087,1.153,2.174,1.427,3.223c0,0.009,0,0.009,0,0.009
									c0.794,3.053,0.066,5.869-0.756,7.788c-0.113,0.265-0.227,0.501-0.34,0.728c-0.057,0.132-0.123,0.255-0.189,0.378
									l-0.009,0.009c-0.104,0.199-0.208,0.388-0.302,0.548c-0.009,0.019-0.019,0.038-0.028,0.057
									c-0.34,0.567-0.576,0.879-0.576,0.879s0.038,0.009,0.094,0.047C386.545,370.336,387.282,370.724,387.878,371.631z"/>
							</g>
							<g>
								<g>
									<path style="fill:#352945;" d="M365.879,395.351c-0.086,0-0.172-0.03-0.24-0.093c-0.144-0.132-0.154-0.356-0.022-0.501
										c0.161-0.174,16.107-17.582,19.905-23.913c3.94-6.565,3.59-13.115-0.851-15.927c-4.365-2.757-18.28,6.058-28.869,14.457
										c-9.22,7.313-19.356,15.835-19.458,15.921c-0.149,0.125-0.372,0.107-0.499-0.043c-0.126-0.15-0.107-0.373,0.043-0.499
										c0.101-0.085,10.245-8.614,19.473-15.933c3.899-3.091,23.655-18.325,29.689-14.499c4.785,3.029,5.229,9.975,1.08,16.891
										c-3.836,6.392-19.334,23.31-19.991,24.027C366.07,395.312,365.974,395.351,365.879,395.351z"/>
								</g>
								<g>
									<path style="fill:#352945;" d="M357.875,388.233c-0.104,0-0.207-0.045-0.277-0.133c-0.122-0.153-0.097-0.376,0.055-0.498
										c0.091-0.072,9.143-7.352,16.239-15.758c7.734-9.162,11.99-16.29,12.031-16.361c0.101-0.168,0.318-0.225,0.486-0.124
										c0.168,0.1,0.224,0.318,0.124,0.486c-0.043,0.071-4.328,7.25-12.1,16.457c-7.142,8.46-16.247,15.781-16.338,15.854
										C358.031,388.207,357.953,388.233,357.875,388.233z"/>
								</g>
								<g>
									<path style="fill:#352945;" d="M371.75,401.384c-0.087,0-0.174-0.031-0.243-0.096c-0.143-0.134-0.15-0.358-0.016-0.501
										c0.112-0.119,11.234-11.997,15.148-19.468c3.796-7.246,0.112-10.769-0.047-10.916c-0.143-0.133-0.153-0.356-0.021-0.5
										c0.133-0.146,0.355-0.154,0.499-0.023c0.176,0.161,4.258,4.014,0.196,11.768c-3.958,7.557-15.146,19.505-15.258,19.625
										C371.939,401.346,371.844,401.384,371.75,401.384z"/>
								</g>
							</g>
						</g>
						<g>
							<g>
								<path style="fill:#F7EDE5;" d="M334.982,437.237c1.462,7.99,12.29-2.472,6.02-5.696
									C337.672,430.052,334.676,434.292,334.982,437.237z"/>
							</g>
							<g>
								<path style="fill:#F7EDE5;" d="M324.924,447.966c-2.207,10.091,11.021,5.242,9.328-3.688
									C332.769,438.485,325.95,445.335,324.924,447.966z"/>
							</g>
						</g>
					</g>
					<g>
						<g>
							<g>
								<path style="fill:#FFC063;" d="M428.852,426.215l-44.199,24.02c-3.968,2.149-8.921,0.371-10.621-3.809l-0.077-0.187
									l0.465-0.251l-0.787-0.551l-9.074-22.442c-1.485-3.671,0.118-7.869,3.664-9.613l41.666-20.514
									c3.524-1.74,7.788-0.491,9.816,2.876l12.014,19.928c0.082,0.13,0.153,0.266,0.215,0.401
									c0.069,0.121-0.456,1.455-0.399,1.577c0.074,0.159,0.727-0.894,0.787-0.728C433.63,420.378,432.225,424.385,428.852,426.215
									z"/>
							</g>
							<g>
								<g>
									<g>
										<path style="fill:#352945;" d="M432.322,416.922c-0.955,1.759-2.675,3.487-5.132,5.154
											c-3.319,2.246-6.906,4.146-10.377,5.979c-10.747,5.683-21.858,11.551-33.258,16.353c-2.145,0.909-4.258,1.738-6.475,1.971
											c-1.087,0.108-2.143,0.067-3.125-0.139l-0.322-0.802c1.031,0.279,2.174,0.362,3.373,0.236
											c2.127-0.228,4.176-1.035,6.275-1.918c11.368-4.791,22.467-10.653,33.203-16.329c3.45-1.829,7.024-3.712,10.307-5.939
											c2.622-1.769,4.334-3.577,5.144-5.415C432.094,416.351,432.215,416.628,432.322,416.922z"/>
									</g>
								</g>
								<g>
									<g>
										<path style="fill:#352945;" d="M420.012,409.616l-3.705-7.06c-1.266-2.429-4.196-3.412-6.673-2.24l-35.48,16.804
											c-1.276,0.605-2.231,1.692-2.665,3.043c-0.019,0.076-0.047,0.151-0.066,0.227c-0.35,1.285-0.18,2.618,0.473,3.79
											l3.516,6.304c0.69,1.257,1.824,2.098,3.1,2.448c1.096,0.293,2.297,0.227,3.421-0.284l35.66-16.048
											c1.295-0.576,2.259-1.635,2.713-2.977C420.777,412.291,420.664,410.864,420.012,409.616z M419.643,413.397
											c-0.397,1.153-1.229,2.06-2.344,2.561l-35.66,16.048c-2.089,0.945-4.508,0.142-5.614-1.862l-3.516-6.314
											c-0.595-1.059-0.709-2.297-0.34-3.459c0.378-1.162,1.181-2.089,2.297-2.608l35.471-16.805
											c2.136-1.011,4.65-0.161,5.746,1.919l3.705,7.06C419.946,411.024,420.031,412.253,419.643,413.397z"/>
									</g>
								</g>
							</g>
						</g>
						<g>
							<g>
								<path style="fill:#F7EDE5;" d="M420.651,417.43c-0.866,0.423-1.725,0.936-2.28,1.724c-0.555,0.787-0.733,1.908-0.201,2.711
									c0.606,0.916,1.892,1.12,2.967,0.898c1.797-0.37,3.355-1.733,3.962-3.464C426.339,415.76,422.667,416.446,420.651,417.43z"
									/>
							</g>
							<g>
								<path style="fill:#F7EDE5;" d="M407.569,424.625c-0.322,0.575-0.495,1.246-0.406,1.898c0.089,0.652,0.46,1.278,1.034,1.601
									c0.273,0.153,0.58,0.236,0.89,0.283c1.191,0.18,2.565-0.267,3.092-1.35c0.332-0.682,0.279-1.482,0.172-2.233
									C411.923,421.824,408.783,422.458,407.569,424.625z"/>
							</g>
							<g>
								<path style="fill:#F7EDE5;" d="M367.395,415.667c-1.095,1.674-1.478,3.798-1.039,5.749c0.2,0.887,0.612,1.796,1.402,2.247
									c0.789,0.451,2.001,0.202,2.294-0.658c0.205-0.603-0.077-1.247-0.263-1.856c-0.334-1.099-0.275-2.46,0.615-3.186
									c0.866-0.707,2.22-0.574,3.047-1.326c1.222-1.111,0.965-4.313-0.943-4.382C370.65,412.187,368.32,414.252,367.395,415.667z"
									/>
							</g>
						</g>
					</g>
				</g>
				<g>
					<g>
						<g>
							<g>
								<g>
									<g>
										<path style="fill:#FFFFFF;" d="M387.074,287.711h-7.176l2.991-4.144c0.141-0.196,0.097-0.469-0.099-0.61
											c-0.196-0.142-0.469-0.097-0.61,0.099l-2.557,3.543v-10.282c0-0.242-0.195-0.437-0.437-0.437
											c-0.242,0-0.437,0.196-0.437,0.437v10.793l-3.258-3.571c-0.162-0.179-0.439-0.19-0.617-0.029
											c-0.178,0.163-0.191,0.439-0.028,0.618l3.27,3.584h-6.966c-0.242,0-0.437,0.195-0.437,0.437s0.196,0.437,0.437,0.437h7.04
											l-3.152,4.368c-0.141,0.195-0.097,0.469,0.099,0.61c0.077,0.056,0.167,0.083,0.255,0.083c0.136,0,0.269-0.063,0.355-0.181
											l3.003-4.161v12.166c0,0.242,0.196,0.437,0.437,0.437c0.242,0,0.437-0.195,0.437-0.437v-12.104l2.961,3.246
											c0.086,0.095,0.204,0.143,0.323,0.143c0.105,0,0.211-0.037,0.295-0.114c0.178-0.163,0.191-0.439,0.029-0.618l-3.134-3.436
											h6.979c0.242,0,0.437-0.195,0.437-0.437S387.315,287.711,387.074,287.711z"/>
									</g>
								</g>
							</g>
						</g>
					</g>
					<g>
						<g>
							<g>
								<g>
									<g>
										<path style="fill:#FFFFFF;" d="M447.401,330.445h-7.176l2.991-4.144c0.141-0.196,0.097-0.469-0.099-0.61
											c-0.196-0.142-0.469-0.097-0.61,0.099l-2.557,3.543V319.05c0-0.242-0.196-0.437-0.437-0.437
											c-0.242,0-0.437,0.196-0.437,0.437v10.793l-3.258-3.572c-0.162-0.179-0.439-0.19-0.617-0.029
											c-0.178,0.163-0.191,0.439-0.028,0.618l3.27,3.584h-6.965c-0.242,0-0.437,0.196-0.437,0.437
											c0,0.242,0.196,0.437,0.437,0.437h7.04l-3.152,4.368c-0.141,0.196-0.097,0.469,0.099,0.61
											c0.077,0.056,0.167,0.083,0.255,0.083c0.136,0,0.269-0.063,0.355-0.182l3.003-4.161v12.166
											c0,0.242,0.196,0.437,0.437,0.437c0.242,0,0.437-0.196,0.437-0.437v-12.104l2.961,3.246
											c0.086,0.095,0.204,0.143,0.323,0.143c0.105,0,0.211-0.038,0.295-0.114c0.178-0.163,0.191-0.439,0.029-0.618l-3.135-3.436
											h6.979c0.242,0,0.437-0.195,0.437-0.437C447.839,330.64,447.643,330.445,447.401,330.445z"/>
									</g>
								</g>
							</g>
						</g>
					</g>
					<g>
						<g>
							<g>
								<g>
									<g>
										<path style="fill:#FFFFFF;" d="M447.401,438.771h-7.176l2.991-4.144c0.141-0.196,0.097-0.469-0.099-0.61
											c-0.196-0.142-0.469-0.097-0.61,0.099l-2.557,3.543v-10.282c0-0.242-0.196-0.437-0.437-0.437
											c-0.242,0-0.437,0.195-0.437,0.437v10.793l-3.258-3.572c-0.162-0.179-0.439-0.19-0.617-0.029
											c-0.178,0.163-0.191,0.439-0.028,0.618l3.27,3.584h-6.965c-0.242,0-0.437,0.195-0.437,0.437s0.196,0.437,0.437,0.437h7.04
											l-3.152,4.368c-0.141,0.196-0.097,0.469,0.099,0.61c0.077,0.056,0.167,0.083,0.255,0.083c0.136,0,0.269-0.063,0.355-0.181
											l3.003-4.161v12.166c0,0.242,0.196,0.437,0.437,0.437c0.242,0,0.437-0.196,0.437-0.437v-12.104l2.961,3.246
											c0.086,0.095,0.204,0.143,0.323,0.143c0.105,0,0.211-0.038,0.295-0.114c0.178-0.163,0.191-0.439,0.029-0.618l-3.135-3.436
											h6.979c0.242,0,0.437-0.195,0.437-0.437S447.643,438.771,447.401,438.771z"/>
									</g>
								</g>
							</g>
						</g>
					</g>
					<g>
						<g>
							<g>
								<g>
									<g>
										<path style="fill:#FFFFFF;" d="M292.571,374.099h-7.176l2.991-4.144c0.141-0.196,0.097-0.469-0.099-0.61
											c-0.196-0.142-0.469-0.097-0.61,0.099l-2.557,3.543v-10.282c0-0.242-0.195-0.437-0.437-0.437
											c-0.241,0-0.437,0.196-0.437,0.437v10.793l-3.258-3.572c-0.162-0.179-0.439-0.19-0.617-0.029
											c-0.178,0.163-0.191,0.439-0.028,0.618l3.27,3.584h-6.965c-0.242,0-0.437,0.196-0.437,0.437
											c0,0.242,0.196,0.437,0.437,0.437h7.04l-3.152,4.368c-0.141,0.196-0.097,0.469,0.099,0.61
											c0.077,0.056,0.167,0.083,0.255,0.083c0.136,0,0.269-0.063,0.355-0.181l3.003-4.161v12.166
											c0,0.242,0.196,0.437,0.437,0.437c0.242,0,0.437-0.196,0.437-0.437v-12.104l2.961,3.246
											c0.086,0.095,0.204,0.143,0.323,0.143c0.105,0,0.211-0.038,0.295-0.114c0.178-0.163,0.191-0.439,0.029-0.618l-3.135-3.436
											h6.979c0.242,0,0.437-0.195,0.437-0.437C293.008,374.295,292.813,374.099,292.571,374.099z"/>
									</g>
								</g>
							</g>
						</g>
					</g>
				</g>
				<g>
					<path style="fill:#F7EDE5;" d="M296.864,347.25c-4.985,0-9.042-4.056-9.042-9.042c0-4.986,4.056-9.042,9.042-9.042
						c4.985,0,9.042,4.055,9.042,9.042C305.905,343.194,301.849,347.25,296.864,347.25z M296.864,329.875
						c-4.595,0-8.333,3.738-8.333,8.333s3.738,8.333,8.333,8.333c4.595,0,8.333-3.738,8.333-8.333S301.458,329.875,296.864,329.875z
						"/>
				</g>
				<g>
					<path style="fill:#F7EDE5;" d="M412.049,300.274c-3.034,0-5.502-2.468-5.502-5.502c0-3.034,2.469-5.503,5.502-5.503
						c3.034,0,5.502,2.469,5.502,5.503C417.552,297.806,415.083,300.274,412.049,300.274z M412.049,289.979
						c-2.643,0-4.794,2.151-4.794,4.794c0,2.643,2.151,4.793,4.794,4.793c2.643,0,4.793-2.151,4.793-4.793
						C416.843,292.129,414.692,289.979,412.049,289.979z"/>
				</g>
				<g>
					<path style="fill:#F7EDE5;" d="M301.368,392.616c-2.679,0-4.859-2.179-4.859-4.859s2.18-4.858,4.859-4.858
						c2.68,0,4.859,2.179,4.859,4.858S304.048,392.616,301.368,392.616z M301.368,383.608c-2.289,0-4.15,1.862-4.15,4.15
						c0,2.288,1.862,4.15,4.15,4.15c2.289,0,4.15-1.862,4.15-4.15C305.518,385.469,303.657,383.608,301.368,383.608z"/>
				</g>
				<g>
					<path style="fill:#F7EDE5;" d="M358.318,449.243c-3.212,0-5.825-2.613-5.825-5.824c0-3.211,2.613-5.824,5.825-5.824
						c3.211,0,5.824,2.613,5.824,5.824C364.141,446.63,361.529,449.243,358.318,449.243z M358.318,438.304
						c-2.821,0-5.116,2.294-5.116,5.115c0,2.821,2.295,5.115,5.116,5.115c2.821,0,5.115-2.294,5.115-5.115
						C363.433,440.599,361.138,438.304,358.318,438.304z"/>
				</g>
				<g>
					<path style="fill:#F7EDE5;" d="M416.393,448.278c-2.413,0-4.376-1.963-4.376-4.376c0-2.414,1.963-4.377,4.376-4.377
						c2.413,0,4.376,1.963,4.376,4.377C420.769,446.315,418.806,448.278,416.393,448.278z M416.393,440.234
						c-2.022,0-3.667,1.646-3.667,3.668c0,2.022,1.645,3.667,3.667,3.667c2.022,0,3.667-1.645,3.667-3.667
						C420.06,441.88,418.415,440.234,416.393,440.234z"/>
				</g>
				<g>
					<path style="fill:#F7EDE5;" d="M442.132,393.26c-4.542,0-8.237-3.696-8.237-8.238c0-4.542,3.695-8.238,8.237-8.238
						c4.542,0,8.237,3.696,8.237,8.238C450.369,389.564,446.674,393.26,442.132,393.26z M442.132,377.494
						c-4.151,0-7.528,3.377-7.528,7.529c0,4.152,3.377,7.529,7.528,7.529s7.528-3.377,7.528-7.529
						C449.661,380.871,446.283,377.494,442.132,377.494z"/>
				</g>
				<g>
					<path style="fill:#F7EDE5;" d="M327.269,288.692c-2.59,0-4.698-2.107-4.698-4.698c0-2.591,2.108-4.698,4.698-4.698
						s4.698,2.107,4.698,4.698C331.967,286.585,329.859,288.692,327.269,288.692z M327.269,280.005c-2.199,0-3.989,1.79-3.989,3.989
						c0,2.2,1.79,3.989,3.989,3.989c2.199,0,3.989-1.79,3.989-3.989C331.258,281.794,329.468,280.005,327.269,280.005z"/>
				</g>
			</g>
		</g>
	</g>
	<g>
		<path style="fill:#FFFFFF;" d="M59.942,463.889c-3.132,0-5.671-2.539-5.671-5.671V356.663c0-23.247,8.375-45.716,23.583-63.267
			c15.052-17.371,35.787-28.835,58.385-32.277c1.75-0.286,3.669-0.525,5.807-0.721c2.335-0.218,4.743-0.35,7.151-0.391
			c0.587-0.02,1.164-0.021,1.752-0.021c0.81,0,1.621,0.011,2.421,0.042c22.504,0.519,44.304,9.017,61.297,23.927
			c1.584,1.385,3.15,2.849,4.645,4.345c1.119,1.119,2.25,2.307,3.364,3.534c5.89,6.519,10.846,13.762,14.738,21.538
			c6.015,11.968,9.412,24.867,10.091,38.328c0.005,0.095,0.007,0.191,0.007,0.286v57.404c0.082,0.386,0.123,0.779,0.123,1.174
			v47.655c0,3.132-2.539,5.671-5.671,5.671H59.942z"/>
		<g>
			<g>
				<g>
					<path style="fill:#6E72FF;" d="M241.968,410.691v47.655h-95.279l-37.72-13.392L61.7,458.346h-1.755V356.792
						c0-45.546,33.477-83.285,77.151-89.939c1.796-0.293,3.62-0.51,5.472-0.68c2.23-0.208,4.499-0.331,6.777-0.369
						c0.539-0.019,1.068-0.019,1.607-0.019c0.737,0,1.474,0.009,2.202,0.038c22.126,0.51,42.276,8.922,57.776,22.522
						c1.503,1.314-2.127,13.104-1.097,14.239C215.315,308.652,241.968,410.691,241.968,410.691z"/>
				</g>
			</g>
			<g>
				<g>
					<g>
						<path style="fill:#F7EDE5;" d="M241.846,352.114v58.418H122.315V288.346h88.616c1.503,1.314,2.968,2.684,4.376,4.092
							c1.087,1.087,2.145,2.202,3.176,3.336c2.87,3.176-5.143,12.058-2.737,15.618c2.19,3.24,14.841,1.129,16.602,4.646
							C237.848,326.983,241.193,339.194,241.846,352.114z"/>
					</g>
					<g>
						<g>
							<path style="fill:#B5E1E8;" d="M232.347,316.038v86.697H131.823v-106.96h86.659
								C223.964,301.842,228.651,308.657,232.347,316.038z"/>
						</g>
						<polygon style="fill:#F7EDE5;" points="237.846,347.396 182.833,347.396 182.833,292.061 178.832,292.061 178.832,347.396 
							125.319,347.396 125.319,351.481 178.832,351.481 178.832,406.816 182.833,406.816 182.833,351.481 237.846,351.481 						"/>
					</g>
				</g>
				<g>
					<g>
						<g>
							<polygon style="fill:#FFC063;" points="177.658,360.257 216.509,325.75 237.986,353.742 209.753,387.767 							"/>
						</g>
					</g>
					<g>
						<g>
							<g>
								<g>
									<path style="fill:#FFA78F;" d="M171.867,390.904l7.963-0.483l0.965-9.17l19.305,1.448c0,0,0,23.166-2.896,29.44
										c-2.896,6.274-24.614,4.102-24.614,4.102L171.867,390.904z"/>
								</g>
							</g>
							<g>
								<g>
									<g>
										<path style="fill:#6E72FF;" d="M179.227,382.579c0,0,21.959,4.826,21.839,4.464c-0.121-0.362,3.861-10.618,4.947-11.342
											c1.086-0.724,7.963-3.62,9.532-5.671c1.569-2.051,4.826-8.204,4.223-10.497c0,0,1.448-3.982-0.241-5.43
											c0,0,0.845-5.55-2.896-5.912c-3.74-0.362-18.581,12.548-18.581,12.548s4.464-10.376,1.81-10.859
											c-2.654-0.483-6.153,6.033-8.928,9.049c-2.775,3.016-5.791,3.378-7.119,7.722
											C182.485,370.996,179.227,382.579,179.227,382.579z"/>
									</g>
								</g>
								<g>
									<g>
										<path style="fill:#352945;" d="M220.007,353.572c-0.04-0.104-0.117-0.18-0.207-0.233c0.519-2.823-0.544-4.182-0.595-4.244
											c-0.002-0.003-0.006-0.004-0.008-0.006c-0.445-0.669-1.077-1.079-1.888-1.206c-3.789-0.595-10.862,5.291-15.535,9.185
											l-0.206,0.173c-5.273,4.393-7.824,7.175-7.849,7.203c-0.176,0.193-0.162,0.492,0.031,0.667
											c0.09,0.083,0.204,0.124,0.318,0.124c0.128,0,0.256-0.052,0.349-0.154c0.024-0.027,2.539-2.767,7.756-7.114l0.206-0.172
											c4.266-3.556,11.41-9.495,14.783-8.977c0.433,0.068,0.781,0.245,1.055,0.54l-13.304,13.382
											c-0.184,0.186-0.183,0.485,0.002,0.668c0.186,0.184,0.485,0.185,0.668-0.002l13.146-13.224
											c0.247,0.61,0.513,1.814-0.021,3.756c-0.844,3.07-9.297,12.18-9.383,12.272c-0.178,0.191-0.167,0.49,0.025,0.668
											c0.091,0.085,0.206,0.126,0.322,0.126c0.127,0,0.253-0.051,0.346-0.15c0.335-0.36,7.782-8.391,9.375-12.058
											c0.379,1.544,0.309,3.267-0.228,4.524c-0.712,1.668-1.859,3.145-2.968,4.573l-4.188,5.391
											c-0.16,0.206-0.123,0.503,0.083,0.663c0.086,0.067,0.188,0.1,0.289,0.1c0.141,0,0.281-0.063,0.374-0.183l4.188-5.391
											c1.146-1.476,2.331-3.001,3.091-4.782C220.778,357.95,220.767,355.548,220.007,353.572z"/>
									</g>
								</g>
							</g>
						</g>
						<g>
							<g>
								<g>
									<path style="fill:#FFA78F;" d="M148.702,347.105l-5.378,1.54c-0.066,0.879-0.142,1.748-0.236,2.608
										c-0.014,0.126-0.586,0.021-0.6,0.146c-0.014,0.119,0.529,0.467,0.515,0.582c-0.624,5.208-1.881,9.81-4.319,10.926
										c-2.259,1.049-5.51,1.106-8.799,0.586l-0.491,7.259h-20.746l0.813-21.341c-3.1-3.459-5-8.024-5-13.043
										c0-10.793,8.752-19.545,19.545-19.545c9.99,0,18.213,7.495,19.385,17.173h0.038c0,0,0.009,0.132,0.028,0.368
										c0.066,0.662,0.094,1.333,0.094,2.004c0,0.095-0.01,0.189-0.01,0.284c0.057,1.985,0.095,4.886-0.009,8.052L148.702,347.105
										z"/>
								</g>
							</g>
							<g>
								<g>
									<path style="fill:#352945;" d="M132.051,346.503l2.534-7.963c0,0,3.74-1.448,6.636-6.757
										c2.896-5.309,2.896-14.961,2.896-14.961s-38.61-6.636-42.953,5.429c-4.344,12.066,6.877,43.436,6.877,43.436
										s10.014-1.448,13.875-7.239c3.861-5.792,4.102-8.808,4.102-8.808l2.292-2.896L132.051,346.503z"/>
								</g>
							</g>
							<g>
								<g>
									<path style="fill:#FFA78F;" d="M123.666,343.513c-0.73,1.808-0.756,3.905,0.006,5.7c0.762,1.795,2.32,3.251,4.187,3.815
										c5.084,1.534,5.674-6.046,4.498-9.325C130.919,339.696,125.271,339.541,123.666,343.513z"/>
								</g>
							</g>
							<g>
								<g>
									<g>
										<g>
											<ellipse style="fill:#352945;" cx="139.974" cy="344.733" rx="1.166" ry="2.011"/>
										</g>
									</g>
								</g>
								<g>
									<g>
										<g>
											<path style="fill:#352945;" d="M143.088,351.254c-0.028,0.246-0.057,0.492-0.085,0.728
												c-0.019-0.009-0.038-0.009-0.057-0.019c-0.898-0.302-1.663-0.851-2.24-1.295c-0.151-0.123-0.18-0.34-0.057-0.501
												c0.113-0.151,0.34-0.18,0.491-0.057C141.651,350.498,142.332,350.98,143.088,351.254z"/>
										</g>
									</g>
								</g>
								<g>
									<g>
										<g>
											<path style="fill:#352945;" d="M138.574,339.543c-0.065,0-0.132-0.018-0.191-0.056c-0.165-0.106-0.212-0.326-0.106-0.49
												c0.458-0.71,1.27-1.143,2.144-1.15c0.196,0.003,0.352,0.163,0.349,0.359c-0.003,0.197-0.158,0.342-0.359,0.35
												c-0.571-0.018-1.21,0.316-1.539,0.825C138.805,339.486,138.691,339.543,138.574,339.543z"/>
										</g>
									</g>
								</g>
							</g>
						</g>
						<g>
							<g>
								<g>
									<path style="fill:#E3735F;" d="M181.518,386.318l-1.739,30.282l-0.51,8.969l-33.146-0.321l0.009,0.539l0.558,32.56h-5.298
										l-0.498-1.399l-0.452,1.399H80.355l-0.452-0.811l-0.498,0.811H61.694c1.55-14.886,6.72-57.436,16.218-70.1
										c10.321-13.742,22.154-14.744,24.63-14.791c0.312-0.019,0.473-0.009,0.473-0.009s0.028-0.17,0.142-0.473
										c0.378-0.983,1.635-3.289,5.605-5.104c1.578-0.718,3.591-1.371,6.153-1.824c6.635-1.172,11.531,2.013,14.347,4.707
										c1.21,1.134,2.032,2.193,2.457,2.779c0.217,0.302,0.331,0.482,0.331,0.482l0.463,0.113l47.776,11.89h0.009l0.766,0.189
										L181.518,386.318z"/>
								</g>
							</g>
							<g>
								<g>
									<g>
										<g>
											<path style="fill:#352945;" d="M81.844,416.978l-1.493,41.368h-0.945l1.493-41.397c0.009-0.265,0.236-0.463,0.491-0.454
												C81.655,416.506,81.854,416.723,81.844,416.978z"/>
										</g>
									</g>
									<g>
										<g>
											<path style="fill:#352945;" d="M179.267,426.045c-0.001,0-0.002,0-0.004,0l-42.309-0.322
												c-0.261-0.002-0.471-0.215-0.469-0.476c0.002-0.259,0.213-0.469,0.473-0.469c0.001,0,0.002,0,0.004,0l41.86,0.318
												l2.227-38.804c0.015-0.261,0.239-0.468,0.499-0.445c0.26,0.015,0.46,0.238,0.444,0.498l-2.253,39.253
												C179.724,425.849,179.517,426.045,179.267,426.045z"/>
										</g>
									</g>
								</g>
								<g>
									<g>
										<polygon style="fill:#352945;" points="142.096,425.258 142.087,425.758 141.406,458.346 140.452,458.346 
											141.142,425.749 141.151,425.239 										"/>
									</g>
								</g>
								<g>
									<g>
										<path style="fill:#352945;" d="M132.051,374.484c-0.003,0-0.006,0-0.009,0l-29.038-0.563
											c-0.261-0.005-0.468-0.221-0.463-0.482c0.005-0.26,0.186-0.46,0.482-0.463l29.038,0.563
											c0.261,0.006,0.468,0.221,0.463,0.482C132.519,374.278,132.308,374.484,132.051,374.484z"/>
									</g>
								</g>
							</g>
						</g>
					</g>
				</g>
				<g>
					<path style="fill:none;" d="M228.012,369.508"/>
				</g>
				<g>
					<g>
						<g>
							<g>
								<g>
									<g>
										<path style="fill:#FFFFFF;" d="M90.355,332.06h-7.176l2.991-4.144c0.141-0.196,0.097-0.469-0.099-0.61
											c-0.196-0.142-0.469-0.097-0.61,0.099l-2.557,3.543v-10.282c0-0.242-0.196-0.437-0.437-0.437
											c-0.242,0-0.437,0.195-0.437,0.437v10.793l-3.258-3.571c-0.162-0.179-0.439-0.19-0.618-0.029
											c-0.178,0.163-0.191,0.439-0.028,0.618l3.27,3.584H74.43c-0.242,0-0.437,0.196-0.437,0.437
											c0,0.242,0.196,0.437,0.437,0.437h7.04l-3.152,4.368c-0.141,0.196-0.097,0.469,0.099,0.61
											c0.077,0.056,0.167,0.083,0.255,0.083c0.136,0,0.269-0.063,0.355-0.181l3.003-4.161v12.166
											c0,0.242,0.196,0.437,0.437,0.437c0.242,0,0.437-0.196,0.437-0.437v-12.104l2.961,3.246
											c0.086,0.095,0.204,0.143,0.323,0.143c0.105,0,0.211-0.038,0.295-0.114c0.178-0.163,0.191-0.439,0.029-0.618l-3.134-3.436
											h6.979c0.242,0,0.437-0.195,0.437-0.437C90.792,332.255,90.597,332.06,90.355,332.06z"/>
									</g>
								</g>
							</g>
						</g>
					</g>
					<g>
						<g>
							<g>
								<g>
									<g>
										<path style="fill:#FFFFFF;" d="M218.742,433.063h-7.176l2.991-4.144c0.141-0.196,0.097-0.469-0.099-0.61
											c-0.196-0.142-0.469-0.097-0.61,0.098l-2.557,3.543v-10.282c0-0.242-0.196-0.437-0.437-0.437
											c-0.242,0-0.437,0.196-0.437,0.437v10.793l-3.258-3.571c-0.162-0.179-0.439-0.19-0.617-0.029
											c-0.178,0.163-0.191,0.439-0.028,0.618l3.27,3.584h-6.965c-0.242,0-0.437,0.195-0.437,0.437s0.196,0.437,0.437,0.437h7.04
											l-3.153,4.368c-0.141,0.196-0.097,0.469,0.099,0.61c0.077,0.056,0.167,0.083,0.255,0.083c0.136,0,0.269-0.063,0.355-0.181
											l3.003-4.161v12.166c0,0.242,0.196,0.437,0.437,0.437c0.242,0,0.437-0.196,0.437-0.437v-12.104l2.961,3.246
											c0.086,0.095,0.204,0.143,0.323,0.143c0.105,0,0.211-0.037,0.294-0.114c0.178-0.163,0.191-0.439,0.029-0.618l-3.134-3.436
											h6.979c0.242,0,0.437-0.195,0.437-0.437S218.984,433.063,218.742,433.063z"/>
									</g>
								</g>
							</g>
						</g>
					</g>
					<g>
						<g>
							<g>
								<g>
									<g>
										<path style="fill:#FFFFFF;" d="M197.339,290.683h-7.176l2.991-4.144c0.141-0.196,0.097-0.469-0.099-0.61
											c-0.196-0.142-0.469-0.097-0.61,0.099l-2.557,3.543v-10.282c0-0.242-0.196-0.437-0.437-0.437
											c-0.242,0-0.437,0.195-0.437,0.437v10.793l-3.258-3.572c-0.162-0.179-0.439-0.19-0.618-0.029
											c-0.178,0.163-0.191,0.439-0.028,0.618l3.27,3.584h-6.966c-0.242,0-0.437,0.196-0.437,0.437
											c0,0.242,0.196,0.437,0.437,0.437h7.04l-3.152,4.368c-0.141,0.195-0.097,0.469,0.099,0.61
											c0.077,0.056,0.167,0.083,0.255,0.083c0.136,0,0.269-0.063,0.355-0.181l3.003-4.161v12.166
											c0,0.242,0.196,0.437,0.437,0.437c0.242,0,0.437-0.195,0.437-0.437v-12.104l2.961,3.246
											c0.086,0.095,0.204,0.143,0.323,0.143c0.105,0,0.211-0.038,0.294-0.114c0.178-0.163,0.191-0.439,0.029-0.618l-3.134-3.436
											h6.979c0.242,0,0.437-0.195,0.437-0.437C197.776,290.878,197.581,290.683,197.339,290.683z"/>
									</g>
								</g>
							</g>
						</g>
					</g>
					<g>
						<path style="fill:#B5E1E8;" d="M74.056,377.986c-3.389,0-6.146-2.757-6.146-6.146c0-3.388,2.757-6.145,6.146-6.145
							c3.389,0,6.146,2.757,6.146,6.145C80.202,375.229,77.445,377.986,74.056,377.986z M74.056,366.404
							c-2.998,0-5.437,2.439-5.437,5.436c0,2.998,2.439,5.437,5.437,5.437c2.998,0,5.437-2.439,5.437-5.437
							C79.493,368.842,77.054,366.404,74.056,366.404z"/>
					</g>
					<g>
						<path style="fill:#B5E1E8;" d="M103.979,302.698c-3.034,0-5.502-2.469-5.502-5.503c0-3.034,2.468-5.502,5.502-5.502
							c3.034,0,5.502,2.468,5.502,5.502C109.481,300.229,107.012,302.698,103.979,302.698z M103.979,292.402
							c-2.643,0-4.794,2.151-4.794,4.793c0,2.643,2.151,4.794,4.794,4.794c2.643,0,4.793-2.151,4.793-4.794
							C108.772,294.552,106.622,292.402,103.979,292.402z"/>
					</g>
					<g>
						<path style="fill:#B5E1E8;" d="M174.763,448.127c-3.566,0-6.468-2.901-6.468-6.467s2.901-6.468,6.468-6.468
							c3.566,0,6.467,2.902,6.467,6.468S178.329,448.127,174.763,448.127z M174.763,435.9c-3.175,0-5.759,2.583-5.759,5.759
							c0,3.175,2.583,5.758,5.759,5.758c3.175,0,5.758-2.583,5.758-5.758C180.521,438.484,177.938,435.9,174.763,435.9z"/>
					</g>
					<g>
						<path style="fill:#B5E1E8;" d="M231.712,427.535c-2.325,0-4.216-1.891-4.216-4.215c0-2.324,1.891-4.215,4.216-4.215
							c2.325,0,4.215,1.891,4.215,4.215C235.927,425.644,234.037,427.535,231.712,427.535z M231.712,419.814
							c-1.934,0-3.507,1.573-3.507,3.506c0,1.934,1.573,3.506,3.507,3.506c1.934,0,3.506-1.573,3.506-3.506
							C235.218,421.386,233.646,419.814,231.712,419.814z"/>
					</g>
					<g>
						<path style="fill:#B5E1E8;" d="M149.988,280.818c-1.792,0-3.25-1.458-3.25-3.25c0-1.793,1.458-3.251,3.25-3.251
							s3.25,1.458,3.25,3.251C153.239,279.36,151.781,280.818,149.988,280.818z M149.988,275.027c-1.402,0-2.542,1.14-2.542,2.542
							c0,1.401,1.14,2.541,2.542,2.541c1.402,0,2.541-1.14,2.541-2.541C152.53,276.167,151.39,275.027,149.988,275.027z"/>
					</g>
				</g>
			</g>
		</g>
	</g>
	<g>
		<path style="fill:#FFFFFF;" d="M274.738,238.187c-3.031,0-5.488-2.458-5.488-5.488v-98.288c0-20.2,6.336-39.426,18.322-55.599
			c1.897-2.577,4.013-5.145,6.28-7.62c2.875-3.138,5.977-6.089,9.221-8.772c2.858-2.382,5.885-4.611,8.982-6.611
			c11.127-7.199,23.417-11.866,36.524-13.868c1.708-0.277,3.563-0.508,5.621-0.698c2.275-0.211,4.608-0.339,6.932-0.378
			c0.568-0.019,1.126-0.02,1.695-0.02c0.75,0,1.512,0.009,2.272,0.029c4.726,0.11,9.473,0.584,14.129,1.409
			c11.694-5.308,20.01-7.998,24.731-7.998c1.39,0,2.593,0.205,3.675,0.627c6.159,2.401,9.92,7.591,10.99,14.952
			c0.482-0.045,0.969-0.068,1.458-0.068c8.542,0,15.492,6.95,15.492,15.492c0,2.789-0.733,5.456-2.091,7.783
			c14.81,17.023,22.911,38.617,22.911,61.342v98.288c0,3.031-2.457,5.488-5.488,5.488H274.738z"/>
		<g>
			<g>
				<g>
					<path style="fill:#B5E1E8;" d="M450.748,135.122v98.288h-22.689l-22.576-9.651l-20.62,9.651h-75.056l-6.851-6.459l-6.138,6.459
						h-22.237v-98.288c0-19.593,6.403-37.705,17.243-52.331c1.839-2.497,11.607,5.229,13.702,2.942
						c2.698-2.945,7.203-7.5,10.276-10.042c2.689-2.241-3.872-12.658-0.927-14.56c10.208-6.604,21.862-11.141,34.375-13.053
						c1.747-0.284,3.513-0.494,5.296-0.659c2.168-0.201,4.354-0.32,6.568-0.357c0.521-0.018,1.034-0.018,1.555-0.018
						c0.704,0,1.418,0.009,2.131,0.027c5.113,0.119,10.108,0.677,14.974,1.637h0.009c1.143,0.22,2.287,0.467,3.421,0.741
						c9.156,2.186,17.755,5.799,25.548,10.592c5.9,3.632,11.333,7.931,16.2,12.797c0.357,0.357,0.714,0.723,1.061,1.089
						C441.326,89.77,450.748,111.358,450.748,135.122z"/>
				</g>
			</g>
			<g>
				<g>
					<g>
						<path style="fill:#F7EDE5;" d="M366.246,61.13v102.449h-74.422V82.791c1.839-2.497,3.823-4.894,5.918-7.181
							c1.389-1.516,7.537,5.62,9.029,4.206c1.406-1.333-1.849-11.223-0.357-12.457c2.689-2.241,5.516-4.327,8.461-6.229H366.246z"/>
					</g>
					<g>
						<g>
							<path style="fill:#6E72FF;" d="M360.327,67.359v89.68h-62.586V75.61c2.698-2.945,5.598-5.708,8.672-8.251H360.327z"/>
						</g>
						<polygon style="fill:#F7EDE5;" points="363.756,110.645 329.503,110.645 329.503,64.246 327.011,64.246 327.011,110.645 
							293.692,110.645 293.692,114.07 327.011,114.07 327.011,160.468 329.503,160.468 329.503,114.07 363.756,114.07 						"/>
					</g>
				</g>
				<g>
					<g>
						<g>
							<g>
								<path style="fill:#E3735F;" d="M414.9,80.513l-13.547,4.363l-2.671-8.717c-2.89,1.866-6.147,3.156-8.223,3.421
									c-1.775,0.229-3.869-2.589-5.68-5.891c-0.041-0.073,0.376-0.537,0.337-0.61c-0.039-0.074-0.534,0.245-0.575,0.171
									c-0.238-0.448-0.476-0.896-0.704-1.354l-4.473,0.75l3.119-3.595c-0.787-1.747-1.418-3.275-1.784-4.144
									c-0.018-0.055-0.037-0.101-0.064-0.155c-0.192-0.467-0.293-0.741-0.293-0.741l0.009-0.027
									c-0.53-1.518-0.832-3.138-0.832-4.839c0-8.077,6.559-14.636,14.636-14.636c8.086,0,14.636,6.559,14.636,14.636
									c0,0.906-0.091,1.784-0.247,2.644L414.9,80.513z"/>
							</g>
						</g>
						<g>
							<g>
								<g>
									<g>
										<path style="fill:#352945;" d="M385.922,65.994c0.24,0.82-0.005,1.614-0.547,1.772c-0.542,0.158-1.175-0.378-1.415-1.199
											c-0.24-0.82,0.005-1.613,0.547-1.772C385.048,64.637,385.682,65.173,385.922,65.994z"/>
									</g>
								</g>
							</g>
							<g>
								<g>
									<g>
										<path style="fill:#352945;" d="M386.827,71.146c-0.604,1.262-1.29,2.113-2.049,2.543
											c-0.082-0.146-0.156-0.293-0.238-0.439c0.814-0.476,1.427-1.464,1.839-2.323c0.064-0.119,0.21-0.174,0.339-0.11
											C386.836,70.872,386.891,71.027,386.827,71.146z"/>
									</g>
								</g>
							</g>
							<g>
								<g>
									<g>
										<path style="fill:#352945;" d="M382.741,63.396c-0.059,0-0.117-0.02-0.164-0.062c-0.104-0.091-0.114-0.248-0.023-0.351
											c0.537-0.613,1.495-0.807,2.228-0.451c0.124,0.06,0.176,0.209,0.115,0.332c-0.059,0.124-0.21,0.176-0.332,0.115
											c-0.54-0.26-1.243-0.118-1.637,0.331C382.879,63.368,382.81,63.396,382.741,63.396z"/>
									</g>
								</g>
							</g>
						</g>
						<g>
							<g>
								<path style="fill:#352945;" d="M419.924,55.994c-2.635,0-5.025,1.026-6.811,2.691c0.519-5.204,0.426-14.809-7.63-17.95
									c-5.44-2.121-29.583,9.809-29.583,9.809s0,4.749,8.018,7.473c8.018,2.725,10.665,2.803,10.665,2.803l1.401,4.827l1.323-3.97
									l7.162,7.727l7.664,2.865c1.834,2.275,4.639,3.733,7.789,3.733c5.525,0,10.004-4.479,10.004-10.004
									C429.928,60.473,425.449,55.994,419.924,55.994z"/>
							</g>
						</g>
						<g>
							<g>
								<path style="fill:#E3735F;" d="M399.499,58.136c1.64-1.203,4.216-1.205,5.536,0.343c0.745,0.874,0.998,2.075,0.988,3.223
									c-0.016,1.86-0.669,3.709-1.825,5.166c-0.811,1.022-1.906,1.872-3.183,2.138c-1.277,0.266-2.737-0.149-3.494-1.211
									c-0.905-1.269-0.711-3.329-0.55-4.817C397.169,61.149,397.983,59.248,399.499,58.136z"/>
							</g>
						</g>
					</g>
					<g>
						<g>
							<g>
								<path style="fill:#F7EDE5;" d="M400.034,85.266c0,0,0.156-4.36,7.318-6.695c7.162-2.336,11.21,2.024,11.21,2.024
									s7.629,7.318,10.432,12.767c2.803,5.45,3.27,32.852,3.114,36.278c-0.156,3.425,0.623,18.995,0.623,18.995l-42.272,1.168
									l-3.503-25.612l-8.564-2.024C378.392,122.166,385.865,88.38,400.034,85.266z"/>
							</g>
						</g>
						<g>
							<g>
								<g>
									<path style="fill:#6E72FF;" d="M437.869,170.586c-0.238,8.406-7.711,25.923-7.711,25.923l-2.086,36.9h-22.175l-0.299-0.516
										l-0.38,0.516h-11.823l-0.525-0.669l-0.372,0.669h-7.655l1.619-32.281l0.055-1.116l1.646-32.802l1.125-22.548h0.467
										l14.928,0.018l3.705,0.009l0.201,0.906l0.485-0.906l23.472,0.037h0.073C432.618,144.727,438.106,162.18,437.869,170.586z"
										/>
								</g>
							</g>
							<g>
								<g>
									<g>
										<polygon style="fill:#352945;" points="409.073,144.69 408.908,149.292 405.899,233.41 405.213,233.41 408.222,149.31 
											408.387,144.69 										"/>
									</g>
								</g>
							</g>
						</g>
					</g>
					<g>
						<g>
							<g>
								<path style="fill:#352945;" d="M394.273,213.78c-0.714-5.598-3.622-10.702-7.757-13.767
									c-0.54-0.403-1.098-0.778-1.683-1.107c-0.906-0.512-1.848-0.924-2.827-1.235c0.366-4.437-0.732-9.056-3.229-12.879
									c-2.561-3.924-6.55-6.952-11.087-8.58c-1.976-0.714-4.052-1.153-6.165-1.29c-0.247-0.009-0.466,0.174-0.485,0.43
									c-0.018,0.247,0.174,0.467,0.43,0.485c1.564,0.101,3.101,0.375,4.592,0.805c4.894,1.418,9.248,4.51,11.946,8.653
									c2.351,3.604,3.403,7.931,3.101,12.111c-4.757-1.244-9.98-0.247-13.483,2.817c-1.198,1.052-2.653,2.762-2.762,4.949
									c-0.082,1.528,0.585,3.009,1.866,4.162c1.537,1.381,3.705,2.049,5.662,1.738c3.128-0.494,5.955-2.891,7.766-6.577
									c0.906-1.848,1.491-3.851,1.756-5.9c0.851,0.293,1.674,0.659,2.47,1.107c0.723,0.412,1.418,0.887,2.076,1.427
									c3.677,2.955,6.248,7.638,6.906,12.76c0.466,3.595,0.046,7.29-0.348,10.867c-0.128,1.143-0.256,2.278-0.357,3.412
									c-0.137,1.61-0.247,3.394-0.174,5.241h0.915c-0.073-1.811,0.037-3.577,0.174-5.159c0.101-1.125,0.22-2.259,0.348-3.385
									C394.328,221.226,394.748,217.475,394.273,213.78z M379.335,204.093c-1.647,3.357-4.299,5.635-7.089,6.074
									c-1.683,0.265-3.568-0.311-4.912-1.518c-1.07-0.96-1.619-2.177-1.555-3.43c0.091-1.866,1.381-3.366,2.452-4.308
									c2.351-2.058,5.543-3.11,8.809-3.11c1.335,0,2.68,0.174,3.988,0.531C380.78,200.333,380.223,202.291,379.335,204.093z"/>
							</g>
						</g>
						<g>
							<g>
								<g>
									<g>
										<polygon style="fill:#6E72FF;" points="320.491,197.735 318.003,198.87 315.661,199.949 309.724,202.666 309.724,203.215 
											309.807,233.41 296.818,233.41 298.83,180.63 310.978,176.898 310.008,192.659 309.999,192.778 312.551,191.442 
											314.225,190.564 317.134,189.046 										"/>
									</g>
								</g>
								<g>
									<g>
										<path style="fill:#352945;" d="M305.099,204.33c-0.288,0-0.58-0.015-0.877-0.045c-0.651-0.067-1.21-0.289-1.619-0.641
											c-0.735-0.634-1.144-1.488-1.184-2.469c-0.055-1.35,0.618-2.939,1.713-4.05c1.366-1.385,3.082-2.343,4.742-3.268
											l0.803-0.451c1.734-0.984,3.506-1.935,5.266-2.826c0.17-0.087,0.375-0.018,0.461,0.151
											c0.086,0.169,0.018,0.376-0.151,0.461c-1.751,0.886-3.513,1.831-5.238,2.81l-0.808,0.453
											c-1.618,0.902-3.29,1.835-4.587,3.151c-0.968,0.982-1.564,2.372-1.516,3.54c0.032,0.798,0.351,1.463,0.947,1.977
											c0.38,0.329,0.885,0.441,1.241,0.478c2.654,0.275,4.867-0.821,7.211-1.98l6.031-2.936
											c0.172-0.083,0.376-0.011,0.459,0.159c0.083,0.171,0.012,0.376-0.159,0.459l-6.027,2.934
											C309.721,203.268,307.572,204.33,305.099,204.33z"/>
									</g>
								</g>
							</g>
							<g>
								<g>
									<polygon style="fill:#352945;" points="319.538,188.494 354.103,171.99 357.84,179.463 321.718,196.279 									"/>
								</g>
							</g>
							<g>
								<g>
									<polygon style="fill:#F7EDE5;" points="319.927,187.52 323.314,197.913 316.073,201.066 312.22,190.557 									"/>
								</g>
							</g>
						</g>
					</g>
					<g>
						<g>
							<g>
								<g>
									<path style="fill:#E3735F;" d="M385.242,123.879l21.019,5.294c0,0-2.335,27.403-4.204,29.738
										c-1.868,2.335-26.002,14.636-26.002,14.636l-8.875-15.258l15.881-11.055L385.242,123.879z"/>
								</g>
							</g>
							<g>
								<g>
									<g>
										<path style="fill:#6E72FF;" d="M370.296,153.462l9.186,19.618l-17.594,4.671c0,0-3.581,4.982-4.827,5.294
											c-1.246,0.312-3.153,0.506-3.153,0.506s-1.051,0.895-2.764,1.985c-1.713,1.09-3.659,0.856-3.659,0.856
											s-7.396,2.725-7.707,1.635c-0.311-1.09,2.336-1.713,5.138-5.138c2.803-3.425,4.009-7.902,4.009-7.902l-7.318,2.919
											c0,0,3.931-8.252,5.955-9.031c2.024-0.778,7.474-3.893,7.474-3.893L370.296,153.462z"/>
									</g>
								</g>
								<g>
									<g>
										<g>
											<path style="fill:#352945;" d="M340.751,188.621c-1.057,0-1.376-0.344-1.466-0.504c-0.093-0.165-0.035-0.374,0.13-0.468
												c0.155-0.087,0.348-0.041,0.449,0.1c0.052,0.046,0.743,0.577,3.94-0.402c3.42-1.047,4.37-2.161,5.134-3.056l0.197-0.229
												c0.796-0.909,3.492-4.759,3.519-4.797c0.108-0.155,0.322-0.194,0.477-0.084c0.155,0.108,0.193,0.322,0.084,0.477
												c-0.112,0.16-2.745,3.919-3.565,4.856l-0.191,0.222c-0.778,0.912-1.843,2.161-5.455,3.266
												C342.491,188.468,341.456,188.621,340.751,188.621z"/>
										</g>
									</g>
									<g>
										<g>
											<path style="fill:#352945;" d="M348.073,186.747c-0.373,0-0.582-0.058-0.607-0.065c-0.181-0.054-0.285-0.245-0.232-0.427
												c0.054-0.18,0.24-0.284,0.423-0.233c0.03,0.009,1.634,0.399,4.335-1.581c2.817-2.066,4.97-6.559,4.992-6.605
												c0.082-0.171,0.286-0.242,0.457-0.163c0.171,0.081,0.244,0.286,0.163,0.457c-0.091,0.191-2.251,4.696-5.206,6.863
												C350.354,186.493,348.853,186.747,348.073,186.747z"/>
										</g>
									</g>
									<g>
										<g>
											<path style="fill:#352945;" d="M354.927,183.917c-0.454,0-0.753-0.065-0.783-0.072c-0.184-0.042-0.3-0.225-0.258-0.41
												c0.041-0.184,0.226-0.301,0.409-0.26c0.016,0.004,1.586,0.334,2.989-0.718c0.894-0.67,2.055-2.185,2.988-3.403
												c0.665-0.868,1.239-1.617,1.625-1.953c0.143-0.124,0.36-0.109,0.484,0.034c0.124,0.143,0.109,0.36-0.034,0.484
												c-0.334,0.29-0.915,1.049-1.531,1.852c-1.008,1.316-2.152,2.808-3.121,3.534
												C356.687,183.763,355.625,183.917,354.927,183.917z"/>
										</g>
									</g>
								</g>
							</g>
						</g>
						<g>
							<g>
								<g>
									<path style="fill:#352945;" d="M413.891,97.753c-0.159,0-0.301-0.111-0.335-0.272
										c-2.704-12.766-13.051-11.915-13.488-11.875c-0.19,0.024-0.356-0.119-0.375-0.308c-0.018-0.188,0.119-0.356,0.308-0.375
										c0.109-0.015,11.392-0.966,14.226,12.415c0.039,0.185-0.079,0.367-0.264,0.406
										C413.938,97.751,413.914,97.753,413.891,97.753z"/>
								</g>
							</g>
							<g>
								<g>
									<path style="fill:#352945;" d="M409.687,130.761c-0.03,0-0.059-0.003-0.088-0.011l-31.295-8.252
										c-0.183-0.049-0.293-0.236-0.244-0.419c0.049-0.183,0.238-0.29,0.42-0.244l30.952,8.161l3.658-16.158
										c0.042-0.184,0.222-0.301,0.41-0.259c0.185,0.042,0.301,0.226,0.259,0.41l-3.737,16.504
										c-0.02,0.091-0.077,0.169-0.157,0.218C409.811,130.744,409.749,130.761,409.687,130.761z"/>
								</g>
							</g>
						</g>
					</g>
				</g>
			</g>
			<g>
				<g>
					<g>
						<g>
							<g>
								<path style="fill:#FFFFFF;" d="M292.661,159.933h-6.945l2.895-4.01c0.137-0.189,0.094-0.454-0.096-0.591
									c-0.19-0.138-0.454-0.094-0.59,0.095l-2.475,3.429v-9.951c0-0.234-0.189-0.423-0.423-0.423
									c-0.234,0-0.423,0.189-0.423,0.423v10.446l-3.154-3.457c-0.157-0.173-0.425-0.184-0.598-0.028
									c-0.173,0.158-0.185,0.425-0.027,0.598l3.165,3.469h-6.741c-0.234,0-0.423,0.189-0.423,0.423s0.189,0.423,0.423,0.423h6.813
									l-3.051,4.227c-0.137,0.189-0.094,0.454,0.095,0.59c0.075,0.054,0.162,0.08,0.247,0.08c0.131,0,0.261-0.061,0.343-0.176
									l2.907-4.027v11.774c0,0.234,0.189,0.423,0.423,0.423c0.234,0,0.423-0.189,0.423-0.423v-11.715l2.866,3.141
									c0.083,0.092,0.198,0.138,0.312,0.138c0.102,0,0.204-0.036,0.285-0.11c0.173-0.158,0.185-0.425,0.028-0.598l-3.034-3.325
									h6.754c0.234,0,0.423-0.189,0.423-0.423S292.895,159.933,292.661,159.933z"/>
							</g>
						</g>
					</g>
				</g>
			</g>
			<g>
				<g>
					<g>
						<g>
							<g>
								<path style="fill:#FFFFFF;" d="M386.391,88.623h-6.945l2.895-4.011c0.137-0.189,0.094-0.454-0.095-0.59
									c-0.19-0.138-0.454-0.094-0.591,0.095l-2.475,3.429v-9.951c0-0.234-0.189-0.423-0.423-0.423
									c-0.234,0-0.423,0.189-0.423,0.423v10.446l-3.154-3.457c-0.157-0.173-0.425-0.184-0.598-0.028
									c-0.173,0.158-0.185,0.425-0.027,0.598l3.165,3.469h-6.741c-0.234,0-0.423,0.189-0.423,0.423
									c0,0.234,0.189,0.423,0.423,0.423h6.813l-3.051,4.227c-0.137,0.189-0.094,0.454,0.095,0.59
									c0.075,0.054,0.161,0.08,0.247,0.08c0.131,0,0.261-0.061,0.343-0.176l2.907-4.028v11.774c0,0.234,0.189,0.423,0.423,0.423
									c0.234,0,0.423-0.189,0.423-0.423V90.224l2.866,3.141c0.083,0.092,0.198,0.138,0.312,0.138c0.102,0,0.204-0.036,0.285-0.11
									c0.173-0.158,0.185-0.425,0.028-0.598l-3.034-3.325h6.754c0.234,0,0.423-0.189,0.423-0.423
									C386.815,88.813,386.625,88.623,386.391,88.623z"/>
							</g>
						</g>
					</g>
				</g>
			</g>
			<g>
				<g>
					<g>
						<g>
							<g>
								<path style="fill:#FFFFFF;" d="M444.058,206.571h-6.945l2.895-4.01c0.137-0.189,0.094-0.454-0.095-0.591
									c-0.19-0.138-0.454-0.094-0.59,0.096l-2.475,3.429v-9.951c0-0.234-0.189-0.423-0.423-0.423
									c-0.234,0-0.423,0.189-0.423,0.423v10.446l-3.154-3.457c-0.157-0.173-0.425-0.184-0.598-0.028
									c-0.173,0.158-0.185,0.425-0.027,0.598l3.165,3.469h-6.741c-0.234,0-0.423,0.189-0.423,0.423s0.189,0.423,0.423,0.423h6.813
									l-3.051,4.227c-0.137,0.189-0.094,0.454,0.095,0.59c0.075,0.054,0.162,0.08,0.247,0.08c0.131,0,0.261-0.061,0.343-0.176
									l2.907-4.027v11.774c0,0.234,0.189,0.423,0.423,0.423c0.234,0,0.423-0.189,0.423-0.423v-11.715l2.866,3.141
									c0.083,0.092,0.197,0.138,0.312,0.138c0.102,0,0.204-0.036,0.285-0.11c0.173-0.158,0.185-0.425,0.028-0.598l-3.034-3.325
									h6.754c0.234,0,0.423-0.189,0.423-0.423S444.292,206.571,444.058,206.571z"/>
							</g>
						</g>
					</g>
				</g>
			</g>
			<g>
				<path style="fill:#F7EDE5;" d="M440.36,125c-3.108,0-5.637-2.528-5.637-5.637s2.529-5.637,5.637-5.637
					c3.108,0,5.637,2.529,5.637,5.637S443.468,125,440.36,125z M440.36,114.413c-2.73,0-4.951,2.221-4.951,4.951
					c0,2.73,2.221,4.951,4.951,4.951c2.73,0,4.951-2.221,4.951-4.951C445.31,116.634,443.09,114.413,440.36,114.413z"/>
			</g>
			<g>
				<path style="fill:#F7EDE5;" d="M334.952,214.682c-3.194,0-5.792-2.598-5.792-5.792c0-3.194,2.599-5.793,5.792-5.793
					c3.194,0,5.792,2.599,5.792,5.793C340.744,212.084,338.146,214.682,334.952,214.682z M334.952,203.784
					c-2.816,0-5.107,2.291-5.107,5.107c0,2.816,2.291,5.106,5.107,5.106c2.816,0,5.106-2.29,5.106-5.106
					C340.058,206.075,337.768,203.784,334.952,203.784z"/>
			</g>
			<g>
				<path style="fill:#F7EDE5;" d="M286.218,204.406c-2.25,0-4.08-1.83-4.08-4.08c0-2.25,1.83-4.08,4.08-4.08
					c2.25,0,4.08,1.83,4.08,4.08C290.298,202.577,288.468,204.406,286.218,204.406z M286.218,196.933
					c-1.871,0-3.394,1.523-3.394,3.394c0,1.871,1.522,3.394,3.394,3.394c1.871,0,3.394-1.522,3.394-3.394
					C289.612,198.455,288.09,196.933,286.218,196.933z"/>
			</g>
			<g>
				<path style="fill:#F7EDE5;" d="M324.832,179.495c-2.765,0-5.014-2.249-5.014-5.014c0-2.765,2.249-5.014,5.014-5.014
					s5.014,2.249,5.014,5.014C329.846,177.245,327.596,179.495,324.832,179.495z M324.832,170.153c-2.386,0-4.328,1.942-4.328,4.328
					s1.942,4.328,4.328,4.328c2.386,0,4.328-1.942,4.328-4.328S327.218,170.153,324.832,170.153z"/>
			</g>
			<g>
				<path style="fill:#F7EDE5;" d="M360.953,57.116c-1.906,0-3.457-1.551-3.457-3.457c0-1.906,1.551-3.457,3.457-3.457
					s3.457,1.551,3.457,3.457C364.41,55.565,362.86,57.116,360.953,57.116z M360.953,50.888c-1.528,0-2.771,1.243-2.771,2.771
					c0,1.528,1.243,2.771,2.771,2.771c1.528,0,2.771-1.243,2.771-2.771C363.724,52.131,362.481,50.888,360.953,50.888z"/>
			</g>
			<g>
				<path style="fill:#F7EDE5;" d="M438.18,173.578c-3.28,0-5.948-2.668-5.948-5.948c0-3.28,2.668-5.948,5.948-5.948
					c3.28,0,5.948,2.668,5.948,5.948C444.128,170.91,441.46,173.578,438.18,173.578z M438.18,162.368
					c-2.902,0-5.262,2.361-5.262,5.262c0,2.901,2.361,5.262,5.262,5.262c2.901,0,5.262-2.361,5.262-5.262
					C443.442,164.728,441.081,162.368,438.18,162.368z"/>
			</g>
		</g>
	</g>
	<g>
		<path style="fill:#FFFFFF;" d="M59.945,238.187c-3.132,0-5.671-2.539-5.671-5.671V130.963c0-23.248,8.375-45.718,23.583-63.27
			c15.051-17.371,35.785-28.834,58.382-32.278c1.795-0.286,3.705-0.522,5.803-0.717c2.395-0.222,4.798-0.353,7.146-0.39
			c0.592-0.024,1.173-0.025,1.766-0.025c0.794,0,1.588,0.013,2.381,0.037c24.862,0.576,48.312,10.618,65.983,28.275
			c18.26,18.26,28.316,42.539,28.316,68.367v101.553c0,3.132-2.539,5.671-5.671,5.671H59.945z"/>
		<g>
			<g>
				<g>
					<path style="fill:#6E72FF;" d="M242.284,130.842v101.553H60.267V130.842c0-45.55,33.48-83.287,77.148-89.942
						c1.801-0.287,3.626-0.505,5.473-0.677c2.237-0.207,4.498-0.333,6.781-0.367c0.539-0.023,1.067-0.023,1.606-0.023
						c0.734,0,1.469,0.011,2.203,0.034c24.267,0.562,46.158,10.636,62.153,26.619C232.095,82.951,242.284,105.715,242.284,130.842z"
						/>
				</g>
			</g>
			<g>
				<g>
					<g>
						<g>
							<g>
								<polygon style="fill:#F7EDE5;" points="156.503,91.231 156.503,82.142 176.612,82.142 176.612,91.553 								"/>
							</g>
							<g>
								<path style="fill:#F7EDE5;" d="M200.742,88.218l-9.498-20.849l1.616-0.832l-0.709-1.701l7.221-3.61l-5.066-10.538
									l-6.814,2.949l-0.586-1.418l-29.601,11.956l-0.419,1.458l-0.289-1.184l-10.699,4.14c-0.992,0.378-1.493,1.484-1.144,2.476
									c0.331,0.917,1.266,1.446,2.221,1.266l9.754-1.9l0.288-0.746l0.421,0.605l0.151-0.028l1.654,12.769l16.001-0.406
									l0.047-4.196l11.644,2.212l12.409,8.742C200.128,89.938,201.149,89.097,200.742,88.218z M175.347,75.535l9.536-4.896
									l1.767,9.716L175.347,75.535z"/>
							</g>
							<g>
								<path style="fill:#352945;" d="M184.163,65.344c-1.842,0-3.341-1.498-3.341-3.341c0-1.842,1.498-3.34,3.341-3.34
									c1.842,0,3.341,1.498,3.341,3.34C187.504,63.845,186.005,65.344,184.163,65.344z M184.163,59.372
									c-1.451,0-2.632,1.181-2.632,2.631c0,1.451,1.18,2.632,2.632,2.632c1.451,0,2.632-1.181,2.632-2.632
									C186.795,60.552,185.615,59.372,184.163,59.372z"/>
							</g>
							<g>
								<g>
									<polygon style="fill:#352945;" points="157.437,70.29 157.305,64.175 157.144,64.241 156.596,64.449 156.729,70.431 
																			"/>
								</g>
								<g>
									<path style="fill:#352945;" d="M193.022,66.853c0.164-0.084,0.236-0.281,0.165-0.451l-5.952-14.318
										c-0.075-0.181-0.282-0.265-0.463-0.191c-0.18,0.075-0.266,0.282-0.191,0.463l5.827,14.016l-17.219,8.847
										c-0.115,0.059-0.188,0.175-0.193,0.304l-0.203,6.266h-1.709c-0.024-1.557-0.409-13.774-6.495-13.955
										c-1.121-0.024-2.113,0.374-2.924,1.211c-3.094,3.192-2.75,11.696-2.695,12.744h-4.466c-0.196,0-0.354,0.159-0.354,0.354
										c0,0.196,0.159,0.354,0.354,0.354h20.109c0.196,0,0.354-0.159,0.354-0.354c0-0.196-0.159-0.354-0.354-0.354h-1.11
										l0.195-6.034L193.022,66.853z M164.174,69.537c0.676-0.698,1.456-1.032,2.394-0.996c5.35,0.159,5.775,11.776,5.807,13.246
										H161.68C161.643,81.069,161.274,72.527,164.174,69.537z"/>
								</g>
							</g>
						</g>
						<g>
							<g>
								<path style="fill:#E3735F;" d="M154.814,89.382h23.004c0,0,10.939,25.82,14.639,55.42s-5.791,60.407-5.791,60.407h-41.022
									c0,0-10.135-42.55-6.515-64.026C142.749,119.705,154.814,89.382,154.814,89.382z"/>
							</g>
							<g>
								<g>
									<path style="fill:#F7EDE5;" d="M156.287,94.257L156.287,94.257c0.952,0.103,1.636,1.264,1.482,2.517l-0.725,5.918
										c-0.145,1.18-0.979,1.984-1.868,1.8l-1.015-0.21c-1.042-0.216-1.661-1.666-1.265-2.965l1.74-5.708
										C154.905,94.727,155.573,94.18,156.287,94.257z"/>
								</g>
								<g>
									<path style="fill:#F7EDE5;" d="M155.148,109.329c0,1.333-0.813,2.413-1.816,2.413c-1.003,0-1.816-1.08-1.816-2.413
										s0.813-2.413,1.816-2.413C154.335,106.916,155.148,107.997,155.148,109.329z"/>
								</g>
							</g>
							<g>
								<path style="fill:#352945;" d="M184.495,187.502h-36.196c-0.239,0-0.44-0.178-0.469-0.415
									c-0.051-0.416-4.988-41.916,2.911-69.202c0.059-0.202,0.244-0.341,0.454-0.341h29.922c0.226,0,0.42,0.16,0.464,0.382
									c0.051,0.258,5.074,26.054,4.835,42.085c-0.239,16.005-1.438,26.962-1.45,27.071
									C184.938,187.322,184.736,187.502,184.495,187.502z M148.72,186.557h35.349c0.219-2.15,1.189-12.36,1.401-26.56
									c0.222-14.87-4.122-38.243-4.744-41.508h-29.175C144.264,144.124,148.227,182.162,148.72,186.557z"/>
							</g>
						</g>
					</g>
					<g>
						<g>
							<g>
								<polygon style="fill:#FFC063;" points="215.765,96.803 201.758,100.328 215.528,98.296 213.77,108.843 200.709,108.928 
									213.525,110.327 212.088,119.022 199.055,115.554 211.871,120.393 210.529,128.426 198.299,123.096 198.157,123.029 
									198.299,123.115 210.188,130.486 209.688,133.53 198.063,126.507 196.681,122.42 195.038,117.397 197.004,95.064 
									200.019,94.619 200.322,94.572 216.54,92.162 								"/>
							</g>
							<g>
								<polygon style="fill:#352945;" points="200.322,94.572 198.299,123.096 198.299,123.115 198.063,126.507 194.433,124.315 
									195.038,117.397 200.019,94.619 								"/>
							</g>
							<g>
								<g>
									<path style="fill:#F7EDE5;" d="M190.805,96.127l-2.954,27.512l-25.508,34.617l8.039,5.456l24.736-38.833l5.275-31.303
										l-3.039-1.293C194.433,91.041,191.143,92.972,190.805,96.127z"/>
								</g>
								<g>
									<polygon style="fill:#F8BDFF;" points="173.581,160.217 170.815,165.594 170.137,165.553 170.566,166.084 155.183,195.954 
										139.965,183.401 160.048,158.822 160.666,159.068 160.395,158.388 164.102,153.86 165.09,154.524 172.897,159.756 
																			"/>
								</g>
							</g>
						</g>
						<g>
							<g>
								<path style="fill:#352945;" d="M170.815,165.594l-0.25,0.49c-3.765-1.993-7.326-4.455-10.518-7.263l0.347-0.433
									C163.555,161.184,167.071,163.623,170.815,165.594z"/>
							</g>
						</g>
					</g>
					<g>
						<g>
							<g>
								<g>
									<polygon style="fill:#F7EDE5;" points="116.358,86.51 91.502,91.586 90.292,81.813 92.825,80.963 94.318,79.413 
										92.74,77.92 92.343,64.074 105.499,61.664 110.81,77.466 113.939,77.825 									"/>
								</g>
							</g>
							<g>
								<g>
									<g>
										<path style="fill:#352945;" d="M93.553,91.17l-0.898,0.18l-1.323-9.716c-0.009-0.076,0.038-0.142,0.113-0.151
											c0.066-0.009,0.132,0.038,0.151,0.104L93.553,91.17z"/>
									</g>
									<g>
										<path style="fill:#352945;" d="M96.322,90.603l-0.888,0.18l-1.465-9.621c-0.009-0.066,0.038-0.142,0.114-0.151
											c0.066-0.009,0.132,0.038,0.151,0.104L96.322,90.603z"/>
									</g>
									<g>
										<path style="fill:#352945;" d="M99.1,90.036l-0.898,0.18l-1.597-9.517c-0.009-0.076,0.038-0.142,0.113-0.161
											c0.066-0.009,0.142,0.038,0.151,0.104L99.1,90.036z"/>
									</g>
									<g>
										<path style="fill:#352945;" d="M101.87,89.469l-0.888,0.18l-1.739-9.413c-0.019-0.076,0.038-0.151,0.113-0.161
											c0.076-0.019,0.142,0.028,0.161,0.104L101.87,89.469z"/>
									</g>
									<g>
										<path style="fill:#352945;" d="M104.648,88.902l-0.898,0.179l-1.871-9.309c-0.019-0.076,0.038-0.151,0.113-0.17
											c0.076-0.019,0.142,0.028,0.161,0.104L104.648,88.902z"/>
									</g>
									<g>
										<path style="fill:#352945;" d="M107.417,88.335l-0.898,0.189l-2.004-9.215c-0.019-0.085,0.028-0.161,0.113-0.18
											c0.076-0.009,0.151,0.028,0.17,0.104L107.417,88.335z"/>
									</g>
									<g>
										<path style="fill:#352945;" d="M110.205,87.768l-0.907,0.189l-2.146-9.111c-0.019-0.085,0.028-0.161,0.114-0.18
											c0.076-0.019,0.151,0.019,0.17,0.094L110.205,87.768z"/>
									</g>
									<g>
										<path style="fill:#352945;" d="M112.975,87.201l-0.907,0.189l-2.278-9.016c-0.019-0.076,0.028-0.161,0.114-0.18
											c0.076-0.019,0.151,0.028,0.179,0.094L112.975,87.201z"/>
									</g>
									<g>
										<path style="fill:#352945;" d="M115.744,86.633l-0.898,0.189l-2.42-8.912c-0.019-0.076,0.028-0.161,0.113-0.189
											c0.076-0.019,0.161,0.028,0.18,0.104L115.744,86.633z"/>
									</g>
								</g>
							</g>
							<g>
								<g>
									<polygon style="fill:#352945;" points="110.81,77.466 92.825,80.963 92.74,77.92 									"/>
								</g>
							</g>
						</g>
						<g>
							<path style="fill:#B5E1E8;" d="M156.799,162.356c-0.01-0.425,0.038-0.841,0.151-1.238c0.973-3.223,3.506-21.303-6.446-39.496
								c-9.234-16.861-22.295-22.919-26.992-24.97c-0.964-0.416-1.701-1.21-2.051-2.202l-2.41-6.805
								c-0.643-1.815-2.542-2.854-4.414-2.42l-22.569,5.227c-1.89,0.435-3.138,2.221-2.902,4.149
								c1.21,9.782,4.243,38.06,0.284,47.775c-4.829,11.823-16.171,17.853-6.757,44.883c7.599,21.823,18.033,33.107,21.766,36.642
								c0.841,0.794,2.004,1.153,3.147,0.983l45.573-6.805l0.538-1.261l0.171,1.147l1.928-0.284
								c1.919-0.284,3.308-1.966,3.223-3.903L156.799,162.356z M147.244,158.708c-1.833,0.954-4.102,0.283-5.916-0.718
								c-5.954-3.298-9.48-9.64-12.4-15.793c-3.573-7.542-6.729-15.471-7.325-23.798c-0.132-1.833-0.123-3.724,0.501-5.453
								c2.75-7.655,9.782,0.161,12.702,3.544c3.903,4.518,6.814,9.81,9.253,15.235c2.807,6.247,5.094,12.825,5.708,19.649
								c0.18,2.041,0.038,4.395-1.04,5.992c-0.085,0.122,0.041,1.187-0.053,1.299c-0.095,0.113-0.41-0.728-0.514-0.628
								C147.897,158.301,147.594,158.528,147.244,158.708z"/>
						</g>
						<g>
							<g>
								<g>
									<path style="fill:#352945;" d="M153.888,217.966l-0.709,0.113c0.756-19.602,0.463-40.243-5.019-60.043
										c0.208-0.199,0.397-0.425,0.567-0.671C154.333,177.364,154.645,198.195,153.888,217.966z"/>
								</g>
							</g>
							<g>
								<g>
									<path style="fill:#352945;" d="M140.818,199.102c-0.085-0.482-0.18-0.964-0.265-1.446
										c-0.028-0.189-0.208-0.321-0.397-0.293c-8.1,1.106-15.405,2.694-23.136,4.376c-3.601,0.785-7.325,1.597-11.152,2.353
										c-0.189,0.038-0.312,0.227-0.284,0.416c0.633,3.601,1.361,6.398,2.278,8.78c0.047,0.142,0.18,0.227,0.331,0.227h0.028
										c10.065-0.832,20.32-2.816,33.249-6.455c0.151-0.047,0.265-0.189,0.255-0.35
										C141.697,203.771,141.252,201.398,140.818,199.102z M108.429,212.787c-0.832-2.212-1.493-4.792-2.089-8.062
										c3.714-0.747,7.334-1.531,10.831-2.297c7.608-1.654,14.8-3.223,22.749-4.319c0.066,0.378,0.132,0.747,0.199,1.125
										c0.416,2.193,0.841,4.461,0.898,7.211C128.37,209.999,118.296,211.955,108.429,212.787z"/>
								</g>
							</g>
						</g>
						<g>
							<g>
								<g>
									<path style="fill:#F7EDE5;" d="M92.705,112.579c0.011,1.271,0.122,2.542,0.333,3.795c0.191,1.139,0.549,2.385,1.54,2.978
										c0.631,0.377,1.409,0.412,2.141,0.343c0.946-0.089,1.931-0.364,2.579-1.06c0.607-0.653,0.826-1.573,0.939-2.458
										c0.25-1.95,0.096-3.951-0.448-5.84c-0.136-0.472-0.299-0.944-0.575-1.351c-0.917-1.356-3.022-1.792-4.433-1.086
										C93.006,108.789,92.69,110.774,92.705,112.579z"/>
								</g>
								<g>
									<path style="fill:#F7EDE5;" d="M93.153,128.589c-0.509,1.953-0.025,4.006,0.147,6.018c0.218,2.564-0.085,5.172-0.885,7.618
										c-0.584,1.785-1.435,3.507-1.66,5.372c-0.225,1.865,0.357,3.999,1.991,4.926c1.378,0.781,3.183,0.484,4.487-0.415
										c1.76-1.213,2.709-3.361,2.89-5.491c0.18-2.13-0.321-4.259-0.97-6.296c-0.381-1.196-0.817-2.392-0.913-3.644
										c-0.139-1.817,0.448-3.601,0.704-5.405c0.224-1.574,0.171-4.786-1.541-5.682C95.555,124.622,93.564,127.01,93.153,128.589z
										"/>
								</g>
							</g>
							<g>
								<g>
									<path style="fill:#F7EDE5;" d="M145.484,178.664c-0.453,1.263-0.481,2.675-0.077,3.955
										c0.278,0.882,0.869,1.784,1.779,1.947c0.649,0.116,1.319-0.184,1.797-0.639c0.739-0.704,1.086-1.75,1.099-2.77
										c0.015-1.125-0.355-3.473-1.404-4.186C147.338,176.062,145.921,177.447,145.484,178.664z"/>
								</g>
								<g>
									<path style="fill:#F7EDE5;" d="M146.082,189.619c-0.439,0.977-0.372,2.148,0.097,3.111
										c0.479,0.984,1.364,1.831,1.406,2.924c0.033,0.856-0.475,1.663-0.445,2.519c0.041,1.153,1.175,2.111,2.329,2.072
										c1.153-0.039,2.18-0.97,2.454-2.091c0.274-1.121-0.148-2.352-0.963-3.169c-0.483-0.485-1.149-0.957-1.117-1.641
										c0.013-0.286,0.155-0.547,0.278-0.806c0.397-0.831,0.638-1.769,0.483-2.677C150.129,187.093,147.1,187.354,146.082,189.619
										z"/>
								</g>
							</g>
						</g>
					</g>
					<g>
						<g>
							<path style="fill:#FFC063;" d="M229.776,177.54c0,0-7.882,33.457-24.611,46.008c0,0-1.645,0.104-4.414-0.104
								c-0.127-0.013,0.206-0.65,0.072-0.661c-0.164-0.014-0.798,0.597-0.97,0.576c-7.098-0.681-20.15-3.431-32.011-13.969
								c0,0,10.784-37.644,28.476-52.444c0,0,18.382,1.361,30.461,16.36c0.126,0.157-0.3,1.86-0.177,2.02
								c0.062,0.08,0.675-1.384,0.735-1.302C228.188,175.12,229.001,176.292,229.776,177.54z"/>
						</g>
						<g>
							<g>
								<g>
									<path style="fill:#352945;" d="M227.337,174.024c-4.215,18.401-13.553,35.763-26.586,49.42
										c-0.283-0.028-0.586-0.047-0.898-0.085c13.279-13.77,22.768-31.387,26.926-50.053
										C226.969,173.542,227.158,173.778,227.337,174.024z"/>
								</g>
							</g>
							<path style="fill:#352945;" d="M212.288,188.1c2.101-2.71,4.191-5.429,6.231-8.188c-2.128,2.457-4.211,4.951-6.282,7.453
								c-0.135-1.912-0.284-3.822-0.423-5.733c-0.14-1.467-0.269-2.935-0.405-4.403c1.377-1.871,2.745-3.75,4.094-5.642
								c-1.394,1.7-2.773,3.412-4.142,5.132c-0.083-0.884-0.168-1.768-0.263-2.651c-0.268-2.519-0.547-5.037-0.904-7.548
								c0.066,2.536,0.208,5.065,0.363,7.594c0.067,1.11,0.147,2.219,0.231,3.328c-1.159,1.459-2.313,2.922-3.465,4.386
								l-3.456,4.458l-0.34-10.242c-0.033-0.819-0.068-1.638-0.103-2.456c2.037-2.944,4.062-5.896,6.045-8.878
								c-2.055,2.688-4.073,5.403-6.078,8.127c-0.122-2.79-0.259-5.58-0.438-8.368c-0.035,2.987-0.024,5.973,0.003,8.959
								c-0.508,0.691-1.016,1.382-1.522,2.073l-4.624,6.398l-0.283-5.287c-0.113-1.899-0.23-3.798-0.352-5.697
								c1.923-2.895,3.835-5.798,5.691-8.738c-1.951,2.615-3.853,5.265-5.743,7.922c-0.162-2.481-0.335-4.961-0.53-7.44
								c0.043,2.64,0.111,5.278,0.192,7.916c-0.189,0.266-0.379,0.531-0.567,0.798l-6.492,9.305l-0.603,0.892
								c-0.179-2.404-0.374-4.806-0.613-7.206c0.02,2.617,0.094,5.231,0.182,7.844l-5.322,7.868
								c-0.416,0.625-0.831,1.251-1.246,1.877c-0.104-1.239-0.221-2.477-0.371-3.714c-0.041,1.438-0.039,2.873-0.023,4.308
								c-1.541,2.331-3.069,4.67-4.562,7.034c1.549-2.077,3.066-4.176,4.573-6.283c0.004,0.279,0.008,0.557,0.013,0.836
								c0.026,1.964,0.107,3.925,0.189,5.886c0.069,1.37,0.146,2.739,0.234,4.108c-0.992,1.456-1.98,2.914-2.957,4.382
								c1.004-1.314,1.996-2.635,2.985-3.959c0.03,0.449,0.055,0.898,0.091,1.347c0.148,1.958,0.306,3.915,0.544,5.869
								c0.057-1.967,0.034-3.931,0.001-5.894c-0.009-0.701-0.032-1.401-0.053-2.102c1.497-2.011,2.984-4.031,4.465-6.053
								l2.014-2.787c0.163,2.711,0.315,5.424,0.509,8.134c0.068,0.943,0.137,1.886,0.208,2.829
								c-1.796,2.427-3.581,4.863-5.335,7.322c1.816-2.216,3.605-4.453,5.383-6.699c0.156,2.033,0.326,4.065,0.529,6.096
								c-0.016-2.197-0.071-4.391-0.14-6.585c0.804-1.016,1.606-2.034,2.407-3.053l5.052-6.516l0.433,8.113
								c0.026,0.429,0.052,0.858,0.078,1.287l-0.531,0.672c-2.339,3.012-4.668,6.03-6.937,9.098c2.497-2.885,4.933-5.818,7.36-8.759
								l0.157-0.193c0.24,3.95,0.495,7.9,0.808,11.847c-0.066-4.144-0.195-8.285-0.338-12.425l5.672-6.98l0.004,0.108
								c0.158,3.859,0.326,7.718,0.574,11.575c0.047-3.865,0.014-7.727-0.029-11.59l-0.014-0.752l0.38-0.468l7.085-8.979
								c0.064-0.082,0.128-0.165,0.192-0.247c0.017,0.164,0.031,0.328,0.048,0.492c0.268,2.519,0.547,5.037,0.905,7.548
								c-0.064-2.536-0.208-5.065-0.362-7.594C212.343,188.839,212.313,188.469,212.288,188.1z M201.88,175.816
								c0.363-0.522,0.725-1.045,1.087-1.568c0.006,0.603,0.012,1.206,0.018,1.809l0.21,11.095l-3.9,5.031l-1.85,2.45l-0.169-4.061
								l-0.408-7.64L201.88,175.816z M189.311,181.077l6.358-9.397c0.049-0.073,0.097-0.146,0.146-0.219
								c0.054,1.725,0.112,3.451,0.173,5.176l0.252,6.054l-2.682,3.711l-4.691,6.662c-0.189-3.052-0.351-6.105-0.571-9.155
								c-0.03-0.415-0.061-0.83-0.091-1.245L189.311,181.077z M185.812,197.399c-1.351,1.945-2.699,3.893-4.037,5.848
								c-0.036-1.088-0.078-2.176-0.124-3.263c-0.099-1.96-0.199-3.92-0.354-5.878c-0.036-0.477-0.073-0.954-0.111-1.43
								c0.545-0.764,1.089-1.529,1.632-2.295l4.914-7.041c0.007,0.199,0.014,0.399,0.021,0.598c0.113,3.19,0.289,6.377,0.43,9.566
								c0.01,0.162,0.019,0.325,0.029,0.488L185.812,197.399z M191.398,202.64c-0.667,0.895-1.333,1.791-1.997,2.687
								c-0.025-0.765-0.052-1.53-0.079-2.296c-0.108-3.002-0.267-6.001-0.405-9.001l5.217-7.217l2.15-3.052l0.285,6.845l0.258,4.846
								L191.398,202.64z M197.882,205.233c-0.008-0.23-0.016-0.461-0.024-0.691l-0.37-8.871l2.369-3.056l3.364-4.453l0.327,9.889
								L197.882,205.233z M211.158,188.669l-7.061,8.691l-0.185-9.736l-0.012-0.361l3.856-5.105c1.028-1.38,2.053-2.762,3.074-4.146
								c0.093,1.226,0.19,2.452,0.278,3.678c0.199,2.107,0.384,4.215,0.594,6.321C211.52,188.231,211.339,188.45,211.158,188.669z"
								/>
						</g>
					</g>
				</g>
				<g>
					<g>
						<g>
							<g>
								<g>
									<path style="fill:#FFFFFF;" d="M138.182,66.699h-7.176l2.991-4.144c0.141-0.196,0.097-0.469-0.099-0.61
										c-0.196-0.142-0.469-0.097-0.61,0.098l-2.557,3.543V55.304c0-0.242-0.196-0.437-0.437-0.437
										c-0.242,0-0.437,0.195-0.437,0.437v10.793l-3.258-3.571c-0.162-0.179-0.439-0.19-0.618-0.029
										c-0.178,0.163-0.191,0.439-0.028,0.618l3.27,3.584h-6.965c-0.242,0-0.437,0.196-0.437,0.437
										c0,0.242,0.196,0.437,0.437,0.437h7.04l-3.152,4.368c-0.141,0.196-0.097,0.469,0.099,0.61
										c0.077,0.056,0.167,0.083,0.255,0.083c0.136,0,0.269-0.063,0.355-0.181l3.003-4.161v12.165
										c0,0.242,0.196,0.437,0.437,0.437c0.242,0,0.437-0.196,0.437-0.437V68.352l2.961,3.245
										c0.086,0.095,0.204,0.143,0.323,0.143c0.105,0,0.211-0.038,0.294-0.114c0.179-0.163,0.191-0.439,0.029-0.618l-3.134-3.436
										h6.979c0.242,0,0.437-0.195,0.437-0.437C138.619,66.894,138.423,66.699,138.182,66.699z"/>
								</g>
							</g>
						</g>
					</g>
				</g>
				<g>
					<g>
						<g>
							<g>
								<g>
									<path style="fill:#FFFFFF;" d="M229.656,132.746h-7.176l2.991-4.144c0.141-0.196,0.097-0.469-0.099-0.61
										c-0.196-0.142-0.469-0.097-0.61,0.099l-2.557,3.543v-10.282c0-0.242-0.196-0.437-0.437-0.437
										c-0.242,0-0.437,0.195-0.437,0.437v10.793l-3.258-3.571c-0.162-0.179-0.439-0.19-0.617-0.029
										c-0.178,0.163-0.191,0.439-0.028,0.618l3.27,3.584h-6.965c-0.242,0-0.437,0.196-0.437,0.437
										c0,0.242,0.196,0.437,0.437,0.437h7.04l-3.152,4.368c-0.141,0.196-0.097,0.469,0.099,0.61
										c0.077,0.056,0.167,0.083,0.255,0.083c0.136,0,0.269-0.063,0.355-0.181l3.003-4.161v12.165
										c0,0.242,0.196,0.437,0.437,0.437c0.242,0,0.437-0.195,0.437-0.437V134.4l2.961,3.245c0.086,0.095,0.204,0.143,0.323,0.143
										c0.105,0,0.211-0.038,0.294-0.114c0.178-0.163,0.191-0.439,0.029-0.618l-3.134-3.436h6.979
										c0.242,0,0.437-0.195,0.437-0.437C230.093,132.942,229.898,132.746,229.656,132.746z"/>
								</g>
							</g>
						</g>
					</g>
				</g>
				<g>
					<g>
						<g>
							<g>
								<g>
									<path style="fill:#FFFFFF;" d="M81.036,201.599H73.86l2.991-4.144c0.141-0.196,0.097-0.469-0.099-0.61
										c-0.196-0.142-0.469-0.097-0.61,0.098l-2.557,3.543v-10.282c0-0.242-0.195-0.437-0.437-0.437
										c-0.242,0-0.437,0.196-0.437,0.437v10.793l-3.258-3.571c-0.162-0.179-0.439-0.19-0.618-0.029
										c-0.178,0.163-0.191,0.439-0.028,0.618l3.27,3.584h-6.965c-0.242,0-0.437,0.196-0.437,0.437
										c0,0.242,0.196,0.437,0.437,0.437h7.04l-3.152,4.368c-0.141,0.196-0.097,0.469,0.099,0.61
										c0.077,0.056,0.167,0.083,0.255,0.083c0.136,0,0.269-0.063,0.355-0.182l3.003-4.161v12.166
										c0,0.242,0.196,0.437,0.437,0.437c0.242,0,0.437-0.196,0.437-0.437v-12.104l2.961,3.245
										c0.086,0.095,0.204,0.143,0.323,0.143c0.105,0,0.211-0.038,0.295-0.114c0.178-0.163,0.191-0.439,0.029-0.618l-3.134-3.436
										h6.979c0.242,0,0.437-0.196,0.437-0.437C81.473,201.794,81.278,201.599,81.036,201.599z"/>
								</g>
							</g>
						</g>
					</g>
				</g>
				<g>
					<g>
						<path style="fill:#B5E1E8;" d="M75.988,127.862c-4.453,0-8.076-3.623-8.076-8.076s3.623-8.076,8.076-8.076
							s8.076,3.623,8.076,8.076S80.441,127.862,75.988,127.862z M75.988,112.419c-4.063,0-7.368,3.305-7.368,7.368
							s3.305,7.367,7.368,7.367c4.062,0,7.368-3.305,7.368-7.367S80.05,112.419,75.988,112.419z"/>
					</g>
					<g>
						<path style="fill:#B5E1E8;" d="M144.197,94.401c-2.679,0-4.859-2.18-4.859-4.858c0-2.679,2.18-4.859,4.859-4.859
							c2.679,0,4.859,2.18,4.859,4.859C149.056,92.221,146.876,94.401,144.197,94.401z M144.197,85.392
							c-2.288,0-4.15,1.862-4.15,4.15c0,2.288,1.862,4.15,4.15,4.15c2.288,0,4.15-1.862,4.15-4.15
							C148.347,87.254,146.485,85.392,144.197,85.392z"/>
					</g>
					<g>
						<path style="fill:#B5E1E8;" d="M152.562,56.114c-2.502,0-4.537-2.036-4.537-4.537c0-2.502,2.036-4.537,4.537-4.537
							c2.502,0,4.537,2.035,4.537,4.537C157.099,54.079,155.064,56.114,152.562,56.114z M152.562,47.749
							c-2.111,0-3.828,1.717-3.828,3.828c0,2.111,1.718,3.828,3.828,3.828c2.111,0,3.828-1.718,3.828-3.828
							C156.39,49.466,154.673,47.749,152.562,47.749z"/>
					</g>
					<g>
						<path style="fill:#B5E1E8;" d="M226.241,107.271c-3.034,0-5.503-2.468-5.503-5.502s2.468-5.502,5.503-5.502
							c3.034,0,5.502,2.468,5.502,5.502S229.275,107.271,226.241,107.271z M226.241,96.975c-2.643,0-4.794,2.151-4.794,4.793
							s2.15,4.793,4.794,4.793c2.643,0,4.793-2.15,4.793-4.793S228.884,96.975,226.241,96.975z"/>
					</g>
					<g>
						<path style="fill:#B5E1E8;" d="M233.319,161.967c-1.969,0-3.572-1.602-3.572-3.572c0-1.97,1.602-3.572,3.572-3.572
							c1.97,0,3.572,1.602,3.572,3.572C236.891,160.365,235.289,161.967,233.319,161.967z M233.319,155.532
							c-1.579,0-2.863,1.284-2.863,2.863c0,1.579,1.284,2.863,2.863,2.863c1.579,0,2.863-1.284,2.863-2.863
							C236.182,156.816,234.898,155.532,233.319,155.532z"/>
					</g>
					<g>
						<path style="fill:#B5E1E8;" d="M71.806,147.167c-2.325,0-4.216-1.891-4.216-4.216c0-2.325,1.891-4.215,4.216-4.215
							c2.324,0,4.215,1.891,4.215,4.215C76.021,145.275,74.13,147.167,71.806,147.167z M71.806,139.445
							c-1.934,0-3.507,1.573-3.507,3.506c0,1.934,1.573,3.507,3.507,3.507c1.934,0,3.506-1.573,3.506-3.507
							C75.312,141.017,73.739,139.445,71.806,139.445z"/>
					</g>
					<g>
						<path style="fill:#B5E1E8;" d="M88.214,228.567c-2.502,0-4.537-2.035-4.537-4.537c0-2.502,2.035-4.537,4.537-4.537
							c2.502,0,4.537,2.036,4.537,4.537C92.751,226.532,90.716,228.567,88.214,228.567z M88.214,220.202
							c-2.111,0-3.828,1.718-3.828,3.828c0,2.111,1.717,3.828,3.828,3.828c2.111,0,3.828-1.717,3.828-3.828
							C92.042,221.919,90.325,220.202,88.214,220.202z"/>
					</g>
					<g>
						<path style="fill:#B5E1E8;" d="M169.293,225.993c-2.147,0-3.893-1.747-3.893-3.894c0-2.147,1.747-3.894,3.893-3.894
							c2.147,0,3.894,1.747,3.894,3.894C173.186,224.246,171.44,225.993,169.293,225.993z M169.293,218.914
							c-1.756,0-3.185,1.429-3.185,3.185c0,1.756,1.429,3.185,3.185,3.185c1.756,0,3.185-1.429,3.185-3.185
							C172.478,220.343,171.049,218.914,169.293,218.914z"/>
					</g>
					<g>
						<path style="fill:#B5E1E8;" d="M231.71,215.697c-3.211,0-5.824-2.613-5.824-5.824c0-3.211,2.613-5.824,5.824-5.824
							c3.212,0,5.824,2.613,5.824,5.824C237.534,213.085,234.922,215.697,231.71,215.697z M231.71,204.758
							c-2.821,0-5.115,2.295-5.115,5.115c0,2.821,2.294,5.116,5.115,5.116c2.821,0,5.115-2.295,5.115-5.116
							C236.826,207.053,234.531,204.758,231.71,204.758z"/>
					</g>
				</g>
			</g>
		</g>
	</g>
</g>
</svg>
