<?xml version="1.0" encoding="utf-8"?>
<!-- Generator: Adobe Illustrator 27.5.0, SVG Export Plug-In . SVG Version: 6.00 Build 0)  -->
<svg version="1.1" id="Layer_1" xmlns="http://www.w3.org/2000/svg" xmlns:xlink="http://www.w3.org/1999/xlink" x="0px" y="0px"
	 viewBox="0 0 2736 2000" style="enable-background:new 0 0 2736 2000;" xml:space="preserve">
<g>
	<rect x="0" style="fill:#E2F2F1;" width="2736" height="2000"/>
	<polygon style="opacity:0.5;fill:#FFFFFF;" points="1248.47,0 394.194,2000 0,2000 0,1861.86 795.278,0 	"/>
	<polygon style="opacity:0.5;fill:#FFFFFF;" points="1592.556,2000 1139.363,2000 1993.643,0 2446.836,0 	"/>
	<polygon style="opacity:0.5;fill:#FFFFFF;" points="759.39,2000 504.005,2000 1358.285,0 1613.67,0 	"/>
	<g style="opacity:0.2;">
		<rect x="2286.918" style="fill:#4CB7D8;" width="397.294" height="309.13"/>
		<rect x="1841.886" style="fill:#4CB7D8;" width="397.294" height="309.13"/>
		<rect x="1396.854" style="fill:#4CB7D8;" width="397.294" height="309.13"/>
		<rect x="951.822" style="fill:#4CB7D8;" width="397.294" height="309.13"/>
		<rect x="506.79" style="fill:#4CB7D8;" width="397.294" height="309.13"/>
		<rect x="61.758" style="fill:#4CB7D8;" width="397.294" height="309.13"/>
		<rect x="2286.915" y="356.578" style="fill:#4CB7D8;" width="397.301" height="397.317"/>
		<rect x="1841.883" y="356.578" style="fill:#4CB7D8;" width="397.301" height="397.317"/>
		<rect x="1396.85" y="356.578" style="fill:#4CB7D8;" width="397.301" height="397.317"/>
		<rect x="951.818" y="356.578" style="fill:#4CB7D8;" width="397.301" height="397.317"/>
		<rect x="506.786" y="356.578" style="fill:#4CB7D8;" width="397.301" height="397.317"/>
		<rect x="61.753" y="356.578" style="fill:#4CB7D8;" width="397.301" height="397.317"/>
		<rect x="2286.915" y="801.341" style="fill:#4CB7D8;" width="397.301" height="397.317"/>
		<rect x="1841.883" y="801.341" style="fill:#4CB7D8;" width="397.301" height="397.317"/>
		<rect x="1396.85" y="801.341" style="fill:#4CB7D8;" width="397.301" height="397.317"/>
		<rect x="951.818" y="801.341" style="fill:#4CB7D8;" width="397.301" height="397.317"/>
		<rect x="506.786" y="801.341" style="fill:#4CB7D8;" width="397.301" height="397.317"/>
		<rect x="61.753" y="801.341" style="fill:#4CB7D8;" width="397.301" height="397.317"/>
		<rect x="2286.915" y="1246.105" style="fill:#4CB7D8;" width="397.301" height="397.317"/>
		<rect x="1841.883" y="1246.105" style="fill:#4CB7D8;" width="397.301" height="397.317"/>
		<rect x="1396.85" y="1246.105" style="fill:#4CB7D8;" width="397.301" height="397.317"/>
		<rect x="951.818" y="1246.105" style="fill:#4CB7D8;" width="397.301" height="397.317"/>
		<rect x="506.786" y="1246.105" style="fill:#4CB7D8;" width="397.301" height="397.317"/>
		<rect x="61.753" y="1246.105" style="fill:#4CB7D8;" width="397.301" height="397.317"/>
		<rect x="2286.918" y="1690.87" style="fill:#4CB7D8;" width="397.294" height="309.13"/>
		<rect x="1841.886" y="1690.87" style="fill:#4CB7D8;" width="397.294" height="309.13"/>
		<rect x="1396.854" y="1690.87" style="fill:#4CB7D8;" width="397.294" height="309.13"/>
		<rect x="951.822" y="1690.87" style="fill:#4CB7D8;" width="397.294" height="309.13"/>
		<rect x="506.79" y="1690.87" style="fill:#4CB7D8;" width="397.294" height="309.13"/>
		<rect x="61.758" y="1690.87" style="fill:#4CB7D8;" width="397.294" height="309.13"/>
	</g>
	<g>
		<path style="fill:#3BBFED;" d="M2244.917,1302.809c-66.049-17.078-232.892-469.647-282.69-508.275
			c-49.798-38.628-165.318-24.181-253.307-20.482c-87.989,3.699-167.7,100.068-167.7,100.068
			c-5.094,14.76,0.963,40.842,15.161,74.467c30.166,76.683,171.456,431.073,234.734,504.679
			c63.635,74.023,127.549,94.634,169.3,55.464c31.99,31.114,57.106,49.984,70.639,50.694
			c76.513,4.014,89.783-72.405,109.319-135.226C2159.908,1361.376,2310.966,1319.887,2244.917,1302.809z"/>
	</g>
	<g>
		<polygon style="fill:#FE9F73;" points="2736,1657.87 2736,2000 2486.17,2000 2306.218,1740.39 2167.563,1540.37 2097.156,1438.79 
			2273.459,1238.9 2434.412,1384.7 2572.437,1509.72 		"/>
	</g>
	<g style="opacity:0.5;">
		<path style="fill:#F07162;" d="M2553.692,1492.765c-14.871,58.352-125.926,187.498-270.242,214.683l-124.955-180.166
			c88.92-46.267,192.935-99.901,275.918-142.582L2553.692,1492.765z"/>
	</g>
	<g>
		<path style="fill:#FBBB47;" d="M2560.488,1441.593c-162.948-149.112-332.542-318.173-336.138-321.759l-69.232-85.502
			c-34.162-41.236-60.536-88.345-77.833-139.023l-4.344-12.726c-5.458-15.992-23.322-24.233-39.18-17.648
			c-14.472,6.01-21.243,22.779-16.181,37.609l31.497,92.282c0.988,2.893,0.026,6.093-2.392,7.962v0
			c-3.565,2.756-8.76,1.565-10.768-2.469L1971.748,871.4c-7.352-14.77-24.046-18.598-37.098-8.507l0,0
			c-13.052,10.091-17.716,30.432-10.364,45.203l65.435,131.462c1.519,3.052,0.671,6.753-2.027,8.838l-1.91,1.477
			c-3.122,2.414-7.61,1.84-10.024-1.283l-99.624-128.864c-9.585-12.398-27.309-15.99-40.299-7.226
			c-14.234,9.603-17.203,29.052-6.868,42.42l100.241,129.661c2.414,3.122,1.839,7.611-1.283,10.025l-6.06,4.686
			c-2.838,2.194-6.864,1.944-9.408-0.585l-107.999-107.34c-11.114-11.047-29.155-12.305-40.896-1.927
			c-12.866,11.372-13.281,31.041-1.297,42.952c0,0,155.895,172.525,178.066,201.475l-84.905,5.124
			c-16.117-2.063-30.854,9.332-32.917,25.449l0,0c-2.062,16.118,9.332,30.855,25.449,32.918l159.666,39.711l219.791,364.887
			l0.175-0.137C2233.538,1700.091,2486.218,1625.694,2560.488,1441.593z"/>
	</g>
	<g>
		<path d="M2226.867,1704.921l-1.165-1.933l-219.364-364.178l-158.751-39.483c-8.277-1.09-15.643-5.324-20.752-11.933
			c-5.133-6.64-7.373-14.881-6.308-23.206c1.065-8.325,5.308-15.737,11.948-20.87c6.64-5.134,14.883-7.372,23.205-6.309
			l-0.508,3.966c-14.997-1.921-28.761,8.721-30.68,23.72c-1.919,14.999,8.722,28.762,23.72,30.681l0.229,0.043l160.468,39.911
			l0.427,0.709l219.792,364.886l-1.521,0.916l1.214,1.554L2226.867,1704.921z"/>
	</g>
	<defs>
		<filter id="Adobe_OpacityMaskFilter" filterUnits="userSpaceOnUse" x="1396.854" y="529" width="287.634" height="287.111">
			<feFlood  style="flood-color:white;flood-opacity:1" result="back"/>
			<feBlend  in="SourceGraphic" in2="back" mode="normal"/>
		</filter>
	</defs>
	<mask maskUnits="userSpaceOnUse" x="1396.854" y="529" width="287.634" height="287.111" id="SVGID_1_">
		<g style="filter:url(#Adobe_OpacityMaskFilter);">
			<defs>
				
					<filter id="Adobe_OpacityMaskFilter_00000000939724822388433570000005898037808946000003_" filterUnits="userSpaceOnUse" x="1396.854" y="529" width="287.634" height="287.111">
					<feFlood  style="flood-color:white;flood-opacity:1" result="back"/>
					<feBlend  in="SourceGraphic" in2="back" mode="normal"/>
				</filter>
			</defs>
			<mask maskUnits="userSpaceOnUse" x="1396.854" y="529" width="287.634" height="287.111" id="SVGID_1_">
				<g style="filter:url(#Adobe_OpacityMaskFilter_00000000939724822388433570000005898037808946000003_);">
				</g>
			</mask>
			
				<linearGradient id="SVGID_00000097482491274943635030000006364489078071031972_" gradientUnits="userSpaceOnUse" x1="1394.6958" y1="576.972" x2="1618.7212" y2="676.7146">
				<stop  offset="0" style="stop-color:#FFFFFF"/>
				<stop  offset="1" style="stop-color:#000000"/>
			</linearGradient>
			<polygon style="mask:url(#SVGID_1_);fill:url(#SVGID_00000097482491274943635030000006364489078071031972_);" points="
				1396.854,579.667 1534.272,816.111 1684.488,529 1416.054,529 			"/>
		</g>
	</mask>
	
		<linearGradient id="SVGID_00000173125201688878865010000013125968617824455609_" gradientUnits="userSpaceOnUse" x1="1394.6958" y1="576.972" x2="1618.7212" y2="676.7146">
		<stop  offset="0" style="stop-color:#FFFFFF"/>
		<stop  offset="1" style="stop-color:#FFFFFF"/>
	</linearGradient>
	<polygon style="fill:url(#SVGID_00000173125201688878865010000013125968617824455609_);" points="1396.854,579.667 
		1534.272,816.111 1684.488,529 1416.054,529 	"/>
	<g>
		<path d="M1911.049,1100.124l-107.999-107.34c-10.624-10.559-27.389-11.371-38.163-1.846c-5.768,5.098-9.067,12.122-9.292,19.778
			c-0.224,7.663,2.645,14.858,8.079,20.259l-2.818,2.835c-6.137-6.099-9.511-14.559-9.257-23.211
			c0.257-8.773,4.036-16.819,10.64-22.656c12.35-10.916,31.514-10.035,43.629,2.006l107.998,107.341L1911.049,1100.124z"/>
	</g>
	<g>
		<path d="M1974.178,1049.813l-99.624-128.864c-9.161-11.851-25.678-14.834-37.6-6.792c-6.381,4.305-10.566,10.841-11.783,18.404
			c-1.218,7.568,0.692,15.075,5.379,21.136l-3.163,2.446c-5.291-6.845-7.537-15.672-6.162-24.217
			c1.395-8.665,6.187-16.152,13.495-21.082c13.663-9.219,32.55-5.853,42.998,7.66l99.624,128.864L1974.178,1049.813z"/>
	</g>
	<g>
		<path d="M2034.127,1001.209l-64.169-128.918c-3.284-6.598-8.635-11.044-15.069-12.519c-6.434-1.475-13.187,0.195-19.017,4.703
			c-12.37,9.564-16.765,28.733-9.798,42.73l-3.579,1.781c-7.773-15.617-2.869-37.004,10.931-47.674
			c6.795-5.254,14.735-7.185,22.356-5.437c7.622,1.748,13.927,6.945,17.755,14.634l64.169,128.918L2034.127,1001.209z"/>
	</g>
	<g>
		<path d="M2559.139,1443.067c-162.071-148.308-329.166-314.803-336.199-321.818l-0.142-0.157l-69.233-85.502
			c-34.427-41.556-60.732-88.542-78.171-139.636l-4.344-12.726c-2.475-7.251-7.685-12.982-14.672-16.137
			c-6.98-3.153-14.74-3.262-21.85-0.311c-13.281,5.516-19.894,20.941-15.056,35.118l-3.783,1.291
			c-5.517-16.165,2.085-33.78,17.306-40.101c8.142-3.38,17.031-3.253,25.029,0.359c7.888,3.562,14.015,10.301,16.81,18.489
			l4.343,12.726c17.282,50.634,43.351,97.196,77.481,138.394l69.181,85.437c8.057,8.035,174.526,173.863,336,321.625
			L2559.139,1443.067z"/>
	</g>
	<g>
		<rect x="2474.139" y="1412.808" width="3.998" height="51.972"/>
	</g>
	<g>
		<rect x="2453.351" y="1386.823" width="3.998" height="51.972"/>
	</g>
	<g style="opacity:0.5;">
		<g>
			<path style="fill:#4B90B2;" d="M1960.351,1508.683c0,0-81.188-105.538-351.377-542.696
				c-46.06-74.525,18.537,63.628,18.537,63.628s214.656,462.534,297.498,497.436
				C1925.008,1527.051,1952.737,1524.363,1960.351,1508.683z"/>
		</g>
	</g>
	<g>
		<path d="M2042.833,1560.944c-8.619,0-17.604-1.507-26.844-4.512c-20.798-6.764-47.92-32.727-80.612-77.169
			c-23.82-32.381-42.054-63.27-42.832-64.592l-122.107-187.376c-1.38-2.195-136.551-217.209-157.902-251.746
			c-21.045-34.043-39.949-46.267-40.138-46.386l2.134-3.381c0.799,0.504,19.815,12.742,41.404,47.665
			c21.343,34.524,156.506,249.526,157.869,251.693l122.141,187.427l0.024,0.041c0.183,0.312,18.54,31.545,42.647,64.312
			c31.725,43.123,58.907,69.302,78.608,75.71c23.58,7.669,44.649,5.214,62.623-7.297c13.48-9.383,20.092-21.229,20.157-21.347
			l3.505,1.922c-0.281,0.513-7.044,12.678-21.236,22.607c-8.354,5.844-17.548,9.677-27.328,11.393
			C2051.001,1560.599,2046.959,1560.944,2042.833,1560.944z"/>
	</g>
	<g>
		<path d="M1744.322,1267.853c-0.905-1.826-90.829-183.232-120.172-240.731c-29.5-57.804-32.834-79.094-32.962-79.972l3.956-0.578
			c0,0.001,0,0.002,0.001,0.004l0,0c0.059,0.384,3.595,21.96,32.566,78.73c29.354,57.519,119.288,238.946,120.193,240.772
			L1744.322,1267.853z"/>
	</g>
	<g>
		<path d="M1913.219,1529.935c-8.469,0-18.238-1.232-29.341-4.423c-24.999-7.183-53.351-26.362-79.833-54.002
			c-23.982-25.031-43.963-54.24-54.827-80.149l-49.816-99.975l-0.021-0.048l-99.842-230.159l3.667-1.591l99.821,230.11
			l49.828,99.997l0.025,0.061c21.607,51.582,79.845,116.897,132.103,131.913c27.021,7.765,45.634,3.493,56.49-1.457
			c11.743-5.354,17.214-12.64,17.268-12.713l3.224,2.365c-0.239,0.327-6.002,8.07-18.594,13.876
			C1936.377,1526.965,1926.364,1529.935,1913.219,1529.935z"/>
	</g>
	<g>
		<path d="M2014.189,881.157c-0.392-0.688-39.28-68.782-43.608-74.489c-0.401-0.529-0.795-1.067-1.196-1.616
			c-3.851-5.269-8.643-11.826-30.859-21.336c-24.693-10.571-57.688-12-89.598-13.381c-32.377-1.403-153.752,7.154-154.974,7.241
			l-0.283-3.988c1.225-0.087,122.828-8.659,155.43-7.247c32.268,1.397,65.634,2.841,90.998,13.7
			c23.224,9.942,28.375,16.99,32.513,22.653c0.387,0.53,0.767,1.049,1.154,1.56c4.483,5.913,42.286,72.108,43.893,74.922
			L2014.189,881.157z"/>
	</g>
	<g>
		
			<rect x="1668.011" y="807.508" transform="matrix(0.3511 -0.9363 0.9363 0.3511 303.5331 2104.2546)" width="3.998" height="51.234"/>
	</g>
	<g>
		
			<rect x="1675.207" y="825.498" transform="matrix(0.3511 -0.9363 0.9363 0.3511 291.3599 2122.668)" width="3.998" height="51.234"/>
	</g>
	<g>
		<g>
			
				<rect x="1300.235" y="480.454" transform="matrix(0.8987 0.4385 -0.4385 0.8987 360.1912 -532.2986)" style="fill:#479670;" width="64.622" height="66.456"/>
		</g>
		<g>
			<path style="fill:#223749;" d="M1427.331,537.635l-17.569,36.011c-4.011,8.221-13.587,11.912-21.979,8.747l-59.887-29.219
				l32.948-67.534l58.397,28.492C1427.965,518.388,1431.587,528.911,1427.331,537.635z"/>
		</g>
		<polygon style="fill:#F4A627;" points="1064.345,643.161 1159.922,685.453 1114.884,751.703 987.094,700.551 1021.787,647.961 		
			"/>
		<path style="fill:#223749;" d="M1280.272,519.929c-85.825,32.192-152.421,189.946-181.398,270.307
			c-2.036,5.646-9.42,7.109-13.355,2.577c-5.784-6.661-6.757-17.392-6.645-24.675c0.161-2.571,0.346-5.161,0.561-7.774
			c0.001-0.004,0.002-0.008,0.002-0.008c9.452-116.723,66.273-276.582,65.689-281.469
			C1145.125,478.888,1351.683,493.145,1280.272,519.929z"/>
		<path style="fill:#FBBB47;" d="M1094.259,682.76c0,0-41.765,42.73,26.998,71.569c6.934,2.908,14.909,1.813,20.784-2.88
			c8.365-6.681,19.698-19.973,28.315-45.955c1.771-5.339,0.218-11.223-3.994-14.951
			C1152.841,678.577,1120.997,656.302,1094.259,682.76z"/>
		<path style="fill:#7FC6A6;" d="M1323.772,530.778l-18.976,37.987c0,0-121.345-48.824-181.678-65.206
			c-42.641-11.575-79.821,27.692-97.96,51.713l-61.181-32.853c0,0,78.321-70.92,124.11-71.305
			C1133.876,450.729,1323.772,530.778,1323.772,530.778z"/>
		<path style="fill:#479670;" d="M1323.772,530.778l-18.976,37.987c0,0-121.345-48.824-181.678-65.206
			c-42.641-11.575-79.821,27.692-97.96,51.713l-61.181-32.853c0,0,78.321-70.92,124.11-71.305
			C1133.876,450.729,1323.772,530.778,1323.772,530.778z"/>
		<path style="fill:#7FC6A6;" d="M805.303,1489.368c-3.813,7.551-7.694,15.038-11.63,22.457
			c-40.03,75.503-85.417,143.746-118.772,190.639c-10.785,15.166-20.316,28.1-27.995,38.322
			c-10.78,13.575-36.076,17.809-47.625,9.143c-0.004-0.001-0.008-0.002-0.008-0.002l-40.26-25.326l-273.406-171.965l-7.853-4.94
			c-18.527-13.733-28.463-37.414-23.516-61.49c0.8-3.892,1.953-7.618,3.419-11.158l8.796-14.84l464.946-784.332l185.107-77.422
			l93.822,47.152L956.875,847.62c0,0-55.023,80.225-71.028,220.657c-0.913,8-1.699,16.193-2.336,24.579
			c-2.576,33.668-2.827,70.422,0.364,110.026C890.848,1289.424,853.534,1393.936,805.303,1489.368z"/>
		<path style="fill:#7FC6A6;" d="M374.061,1510.831c-6.799,33.09-39.135,54.402-72.224,47.603
			c-5.803-1.193-11.241-3.171-16.231-5.797c-2.762-1.457-5.385-3.11-7.853-4.94c-18.527-13.733-28.463-37.414-23.516-61.49
			c0.8-3.892,1.953-7.618,3.419-11.158c2.245-5.424,5.223-10.403,8.796-14.84c13.912-17.295,36.776-26.379,60.009-21.605
			C359.549,1445.404,380.861,1477.741,374.061,1510.831z"/>
		<path style="fill:#479670;" d="M925,614.526l-8.495-16.071l-185.107,77.422l-464.946,784.332l-8.796,14.84
			c-1.466,3.539-2.619,7.266-3.419,11.158c-4.947,24.076,4.989,47.757,23.516,61.49l7.853,4.94l273.406,171.965l40.26,25.326
			c0,0,0.005-0.001,0.008,0.002c11.548,8.667,36.844,4.433,47.625-9.143c7.679-10.221,17.21-23.155,27.995-38.322
			c16.328-22.953,35.539-51.026,55.593-82.558C245.546,1528.5,848.732,670.649,925,614.526z"/>
		<path style="fill:#7FC6A6;" d="M1358.904,460.444l-35.132,70.334c0,0-189.896-80.049-235.685-79.664
			c-45.789,0.386-124.11,71.305-124.11,71.305l61.181,32.853c-7.52,9.964-11.768,17.307-11.768,17.307l-96.177-35.69l11.774-57.299
			c11.705-56.962-24.982-112.629-81.942-124.334C1098.321,275.511,1358.904,460.444,1358.904,460.444z"/>
		<path style="fill:#223749;" d="M867.608,516.744l35.426-46.468l150.177,92.572c0,0-17.896,58.032-22.109,59.157
			C1026.889,623.131,867.608,516.744,867.608,516.744z"/>
		<g>
			<polygon style="fill:#FE9F73;" points="601.816,466.83 511.349,717.53 308.068,641.12 224.181,609.59 224.181,609.58 
				222.161,608.83 222.161,608.82 220.171,608.08 133.745,575.59 0,525.32 0,100.66 0,65.427 296.528,263.2 339.686,291.99 
				341.346,293.09 343.036,294.22 493.75,394.75 512.25,407.08 			"/>
		</g>
		<g style="opacity:0.5;">
			<path style="fill:#F07162;" d="M157.413,584.469c-7.62-59.733,48.185-220.663,172.402-298.999l182.434,121.613
				C446.563,482.8,369.547,570.918,308.064,641.117L157.413,584.469z"/>
		</g>
		<path style="fill:#FBBB47;" d="M350.308,283.038c0,0-142.645,146.859-126.949,361.094L543.65,746.779
			c0,0,36.072,62.943,95.227,85.052l91.738-152.136c0,0,142.381-24.488,166.923-37.361c0,0,80.06,46.312,119.435,48.432
			s62.792-14.965,56.775-34.118S944.789,528.624,925.69,524.699c-19.099-3.925-228.144-27.972-228.144-27.972L350.308,283.038z"/>
		<path d="M543.04,748.682L221.464,645.624l-0.099-1.346c-3.595-49.081,0.869-98.687,13.271-147.44
			c9.918-38.989,24.905-77.522,44.546-114.528c33.446-63.016,69.333-100.295,69.692-100.664l1.117-1.15l348.225,214.296
			c13.409,1.543,209.162,24.104,227.877,27.95c11.063,2.273,49.934,34.135,79.86,60.728c30.015,26.672,66.279,61.685,69.702,72.58
			c2.193,6.979,0.897,13.831-3.747,19.815c-9.266,11.938-29.843,18.255-55.042,16.898c-16.593-0.892-41.904-9.372-75.234-25.201
			c-21.706-10.308-39.903-20.537-44.157-22.96c-27.022,12.974-160.769,36.075-166.521,37.064l-0.678-3.94
			c1.421-0.244,142.349-24.581,166.333-37.161l0.976-0.512l0.953,0.552c0.797,0.461,80.096,46.095,118.542,48.166
			c23.535,1.267,43.333-4.618,51.67-15.358c3.805-4.901,4.873-10.491,3.091-16.165c-2.535-8.07-30.721-37.18-68.544-70.79
			c-37.724-33.523-69.803-58.114-78.009-59.8c-18.795-3.862-225.88-27.704-227.97-27.945l-0.441-0.051L350.647,285.594
			c-6.244,6.733-38.088,42.32-67.998,98.712c-30.467,57.439-65.081,148.799-57.393,258.336L544.26,744.875L543.04,748.682z"/>
		
			<rect x="636.599" y="706.315" transform="matrix(0.5135 -0.8581 0.8581 0.5135 -261.149 956.0168)" width="151.861" height="3.998"/>
		<path style="fill:#FBBB47;" d="M876.918,795.957c-13.573-6.675-18.109-26.329-9.319-45.042
			c9.633-20.507,30.19-31.377,44.822-24.179l111.544,54.874c0.002,0.002,11.098,24.867-0.291,46.305
			c-11.391,21.437-31.104,24.933-34.719,23.157L876.918,795.957z"/>
		<path style="fill:#FBBB47;" d="M847.444,855.391c-12.237-5.624-16.593-22.92-9.014-39.659
			c8.303-18.343,26.522-28.387,39.714-22.32l111.664,51.336c-1.849,1.158,5.346,14.343-3.095,32.66
			c-9.034,19.605-26.089,31.153-30.38,28.043L847.444,855.391z"/>
		<path style="fill:#FBBB47;" d="M899.491,723.488c-13.395-6.312-18.53-25.135-10.492-43.716
			c9.204-21.282,30.18-32.946,45.203-25.865l113.524,53.498c12.625,5.949,13.93,29.495,7.696,42.118
			c-10.745,21.76-30.634,33.008-34.278,31.293L899.491,723.488z"/>
		<path d="M988.073,852.866L876.036,797.75c-14.87-7.313-19.37-28.259-10.245-47.685c5.07-10.792,13.917-19.065,24.274-22.696
			c8.436-2.957,17.01-2.656,24.148,0.847l110.598,51.583l-1.69,3.623l-110.653-51.609c-6.17-3.035-13.657-3.274-21.08-0.671
			c-9.351,3.279-17.362,10.796-21.978,20.623c-4.031,8.58-5.302,17.731-3.582,25.767c1.658,7.743,5.91,13.65,11.973,16.632
			l112.038,55.116L988.073,852.866z"/>
		<path d="M955.498,907.268l-108.889-50.06c-13.531-6.219-17.924-24.799-10-42.299c5.572-12.309,13.195-20.789,21.465-23.877
			c5.265-1.967,10.57-1.75,15.77,0.64l-1.67,3.632c-4.196-1.931-8.47-2.108-12.702-0.527c-7.265,2.713-14.091,10.448-19.221,21.781
			c-3.454,7.627-4.448,15.694-2.799,22.716c1.582,6.741,5.427,11.82,10.827,14.302l108.889,50.06L955.498,907.268z"/>
		<path d="M1020.292,782.624l-121.653-57.328c-7.11-3.35-12.213-9.949-14.37-18.581c-2.149-8.601-1.121-18.452,2.895-27.737
			c5.498-12.713,15.468-22.828,26.669-27.059c7.57-2.859,14.907-2.798,21.221,0.179l113.524,53.498l-1.704,3.616L933.35,655.715
			c-5.312-2.504-11.572-2.522-18.104-0.055c-10.209,3.856-19.335,13.166-24.412,24.906c-7.381,17.064-3.203,35.124,9.51,41.114
			l121.653,57.328L1020.292,782.624z"/>
		<path d="M1120.484,756.173c-23.577-9.888-37.08-22.549-40.135-37.63c-4.049-19.991,11.804-36.487,12.48-37.18
			c28.2-27.905,61.743-3.921,74.858,7.684l-2.649,2.994c-6.974-6.172-17.896-14.284-30.326-17.878
			c-14.852-4.293-27.989-0.924-39.047,10.018c-0.126,0.13-15.036,15.693-11.392,33.595c2.787,13.693,15.491,25.371,37.758,34.71
			L1120.484,756.173z"/>
		<polygon points="1052.161,564.55 903.525,472.928 869.197,517.956 866.018,515.533 902.541,467.625 1054.259,561.147 		"/>
		<path d="M929.726,485.926l-3.916-0.805c7.621-37.087-3.856-64.64-3.972-64.914c-10.801-26.36-30.684-42.08-45.465-50.632
			c-16.041-9.281-29.621-12.337-29.757-12.367l-5.426-1.194l4.943-2.536c0.613-0.314,15.419-7.761,50.913-13.025
			c32.575-4.831,89.544-8.611,175.953,0.813l-0.433,3.974c-85.745-9.352-142.254-5.644-174.56-0.888
			c-23.412,3.447-37.836,7.926-44.862,10.536c5.626,1.781,14.877,5.237,25.23,11.227c15.319,8.863,35.935,25.174,47.151,52.549
			C926.011,419.798,937.612,447.549,929.726,485.926z"/>
		<path d="M1305.779,571.273l-1.687-0.636c-1.277-0.482-128.181-48.314-167.957-61.247c-22.605-7.351-39.703-5.231-50.065-2.158
			c-11.221,3.327-17.196,8.46-17.255,8.512l-2.636-3.006c0.262-0.23,6.542-5.67,18.517-9.268
			c10.944-3.289,28.963-5.591,52.675,2.119c37.35,12.144,151.186,54.929,166.443,60.673l53.302-106.709l3.576,1.786
			L1305.779,571.273z"/>
		<rect x="964.755" y="370.44" transform="matrix(0.9954 -0.0959 0.0959 0.9954 -31.1778 96.4858)" width="45.883" height="3.998"/>
		<rect x="951.334" y="386.297" transform="matrix(0.9954 -0.096 0.096 0.9954 -32.7637 95.2798)" width="45.883" height="3.998"/>
		<path d="M598.208,1751.619l-313.635-197.27c-1.4-0.812-23.652-14.065-30.423-39.805c-4.535-17.236-0.974-35.859,10.582-55.354
			L544.666,986.96l3.439,2.039l-279.934,472.229c-10.981,18.523-14.401,36.105-10.166,52.256
			c6.394,24.385,28.376,37.292,28.598,37.42l0.068,0.041l313.666,197.29L598.208,1751.619z"/>
		
			<rect x="318.695" y="1433.352" transform="matrix(0.9999 -0.0171 0.0171 0.9999 -25.0104 5.6929)" width="3.998" height="66.634"/>
		
			<rect x="297.923" y="1462.278" transform="matrix(0.9999 -0.0171 0.0171 0.9999 -25.5033 5.3413)" width="3.998" height="66.633"/>
		<path style="fill:#FFFFFF;" d="M805.303,1489.368c-3.813,7.551-7.694,15.038-11.63,22.457
			c-114.682-31.158-186.816-146.599-162.565-264.62c24.32-118.357,136.697-196.098,254.739-178.929
			c-0.913,8-1.699,16.193-2.336,24.579c-2.576,33.668-2.827,70.422,0.364,110.026
			C890.848,1289.424,853.534,1393.936,805.303,1489.368z"/>
		<path style="fill:#FEC786;" d="M805.303,1489.368c-105.203-25.672-172.027-130.247-150.05-237.201
			c21.761-105.9,122.604-175.322,228.258-159.312c-2.576,33.668-2.827,70.422,0.364,110.026
			C890.848,1289.424,853.534,1393.936,805.303,1489.368z"/>
		<path d="M881.847,1280.551l-3.894-0.903c6.916-29.829,5.296-55.745,3.422-85.752c-2.04-32.651-4.352-69.659,2.275-123.977
			c6.71-54.998,19.029-100.023,28.181-128.109c9.928-30.465,18.398-48.184,18.482-48.359l3.602,1.733
			c-0.083,0.174-8.463,17.713-18.312,47.953c-9.087,27.901-21.319,72.629-27.985,127.266c-6.583,53.953-4.283,90.765-2.254,123.244
			C887.259,1223.967,888.895,1250.153,881.847,1280.551z"/>
	</g>
	<g>
		<path style="fill:#FFFFFF;" d="M1549.44,295.292c5.511,48.328,50.098,61.286,50.098,61.286s-44.587,12.958-50.098,61.286
			c-5.511-48.328-50.098-61.286-50.098-61.286S1543.93,343.619,1549.44,295.292z"/>
	</g>
	<g>
		<path style="fill:#FFFFFF;" d="M2561.837,247.844c5.511,48.327,50.098,61.286,50.098,61.286s-44.587,12.958-50.098,61.286
			c-5.51-48.328-50.097-61.286-50.097-61.286S2556.327,296.171,2561.837,247.844z"/>
	</g>
	<g>
		<path style="fill:#FFFFFF;" d="M1709.089,544.515c3.507,30.757,31.884,39.005,31.884,39.005s-28.376,8.247-31.884,39.004
			c-3.507-30.757-31.884-39.004-31.884-39.004S1705.582,575.272,1709.089,544.515z"/>
	</g>
	<g>
		<path style="fill:#FFFFFF;" d="M1460.998,928.228c3.507,30.757,31.884,39.005,31.884,39.005s-28.376,8.247-31.884,39.004
			c-3.507-30.757-31.884-39.004-31.884-39.004S1457.491,958.985,1460.998,928.228z"/>
	</g>
	<g>
		<path style="fill:#FFFFFF;" d="M1078.865,1580.445c3.507,30.757,31.884,39.005,31.884,39.005s-28.376,8.247-31.884,39.005
			c-3.507-30.757-31.884-39.005-31.884-39.005S1075.358,1611.203,1078.865,1580.445z"/>
	</g>
	<g>
		<path style="fill:#FFFFFF;" d="M2457.348,529.761c3.507,30.757,31.884,39.005,31.884,39.005s-28.376,8.247-31.884,39.005
			c-3.507-30.757-31.884-39.005-31.884-39.005S2453.841,560.518,2457.348,529.761z"/>
	</g>
	<g>
		<path style="fill:#FFFFFF;" d="M2384.694,1085.946c3.507,30.757,31.884,39.005,31.884,39.005s-28.376,8.247-31.884,39.005
			c-3.507-30.757-31.884-39.005-31.884-39.005S2381.187,1116.703,2384.694,1085.946z"/>
	</g>
	<g>
		<path style="fill:#FFFFFF;" d="M156.728,928.228c3.507,30.757,31.884,39.005,31.884,39.005s-28.377,8.247-31.884,39.004
			c-3.507-30.757-31.884-39.004-31.884-39.004S153.22,958.985,156.728,928.228z"/>
	</g>
	<g>
		<path style="fill:#FFFFFF;" d="M1153.268,842.152c3.507,30.757,31.884,39.005,31.884,39.005s-28.376,8.247-31.884,39.004
			c-3.507-30.757-31.884-39.004-31.884-39.004S1149.761,872.909,1153.268,842.152z"/>
	</g>
	<g>
		<path style="fill:#FFFFFF;" d="M1280.354,1073c1.579,13.85,14.357,17.564,14.357,17.564s-12.778,3.714-14.357,17.564
			c-1.579-13.85-14.357-17.564-14.357-17.564S1278.774,1086.85,1280.354,1073z"/>
	</g>
	<g>
		<path style="fill:#FFFFFF;" d="M252.243,1082.561c1.579,13.85,14.357,17.564,14.357,17.564s-12.778,3.714-14.357,17.564
			c-1.579-13.85-14.357-17.564-14.357-17.564S250.664,1096.411,252.243,1082.561z"/>
	</g>
	<g>
		<path style="fill:#FFFFFF;" d="M1185.151,1736.877c1.579,13.85,14.357,17.564,14.357,17.564s-12.778,3.714-14.357,17.564
			c-1.579-13.85-14.357-17.564-14.357-17.564S1183.572,1750.727,1185.151,1736.877z"/>
	</g>
	<g>
		<path style="fill:#FFFFFF;" d="M2608.006,652.789c1.579,13.85,14.357,17.564,14.357,17.564s-12.778,3.714-14.357,17.564
			c-1.579-13.85-14.357-17.564-14.357-17.564S2606.427,666.639,2608.006,652.789z"/>
	</g>
	<g>
		<path style="fill:#FFFFFF;" d="M2485.565,988.673c1.579,13.85,14.357,17.564,14.357,17.564s-12.778,3.714-14.357,17.564
			c-1.579-13.85-14.357-17.564-14.357-17.564S2483.986,1002.523,2485.565,988.673z"/>
	</g>
</g>
</svg>
