<svg width="246" height="102" viewBox="0 0 246 102" fill="none" xmlns="http://www.w3.org/2000/svg">
<path fill-rule="evenodd" clip-rule="evenodd" d="M0 59.0646C0.0174151 68.5284 3.1512 77.7223 8.91608 85.2216C14.681 92.7209 22.755 98.1073 31.8868 100.545C41.0188 102.983 50.6985 102.337 59.4265 98.7075C68.1545 95.0777 75.4438 88.6665 80.1639 80.4676C81.1802 78.0452 81.2755 75.3339 80.4324 72.8459C79.5891 70.3579 77.8657 68.265 75.5871 66.9624C73.3084 65.6599 70.6324 65.2377 68.0642 65.7756C65.496 66.3133 63.213 67.7746 61.6466 69.8823C59.2727 73.9708 55.6198 77.1615 51.2524 78.9613C46.8851 80.7611 42.0468 81.0694 37.4869 79.8385C32.9269 78.6076 28.8992 75.9059 26.027 72.1517C23.1547 68.3978 21.5976 63.8006 21.5975 59.0713V59.0646V58.9787V58.973C21.5978 54.2436 23.1546 49.6465 26.027 45.8925C28.8994 42.1385 32.9275 39.4373 37.4873 38.2063C42.0474 36.9756 46.8851 37.2841 51.2524 39.0841C55.6196 40.8839 59.2727 44.0746 61.6466 48.1631C63.2118 50.2737 65.495 51.7373 68.0645 52.2768C70.6343 52.8162 73.3124 52.3945 75.5923 51.0909C77.8724 49.7874 79.5964 47.6923 80.4387 45.2022C81.2811 42.712 81.1835 39.9994 80.1639 37.5768C75.4438 29.3778 68.1551 22.9666 59.4271 19.3367C50.6991 15.7069 41.0192 15.061 31.8874 17.4989C22.7556 19.9368 14.6816 25.3226 8.91662 32.8217C3.15166 40.3208 0.0176537 49.5151 0 58.9787V59.0646ZM17.2793 35.5177C17.2793 37.0731 17.3882 38.0816 18.9578 39.031C21.7749 40.738 23.5653 38.0219 24.8826 36.9548C28.9962 33.6257 35.0908 30.6393 41.1409 30.6393C45.0509 30.6393 46.4335 30.5409 50.3434 31.6679C54.7672 32.9901 58.8102 35.3544 62.1333 38.5631C62.5798 39.0745 63.1681 39.4407 63.8236 39.6149C64.4792 39.789 65.1718 39.7634 65.8126 39.541C66.4533 39.3185 67.0128 38.9093 67.4198 38.3662C67.8269 37.8231 68.0631 37.1705 68.0975 36.4923C68.0975 34.3438 67.479 34.1196 66.2675 32.9597C61.0342 27.9341 54.3207 24.7342 47.1256 23.836L42.7716 23.4731L38.5393 23.7999C31.7794 24.577 23.9528 27.8724 19.1938 32.7187C18.7072 33.1971 17.2793 34.2129 17.2793 35.5177Z" fill="#353A54"/>
<path fill-rule="evenodd" clip-rule="evenodd" d="M1.24736 19.6138C1.20758 20.6196 1.53741 21.6048 2.17431 22.3834C2.81122 23.1621 3.71077 23.6798 4.70324 23.8387C8.14626 23.8387 7.23845 23.2458 9.80521 21.262L13.3334 18.2686C15.8182 16.3813 18.474 14.7308 21.2655 13.3384C35.3588 6.23905 53.9357 6.52248 67.6 14.8482C70.6942 16.6473 73.5853 18.7758 76.2233 21.1966C77.2703 22.2581 78.824 24.1299 80.8377 23.985C84.1818 23.7539 86.7284 19.5091 82.6475 15.9185C80.674 14.1744 78.705 12.4511 76.5464 10.888C59.6675 -1.30622 36.7412 -3.6465 17.8161 5.84552C13.75 7.88387 9.91758 10.3593 6.38654 13.2283C5.66918 13.8747 5.0497 14.362 4.37264 15.0541C3.20681 16.2455 1.24736 17.3193 1.24736 19.6138Z" fill="#353A54"/>
<path d="M135.512 76.4459C135.444 76.7165 134.937 77.3932 133.992 78.4757C133.316 79.2877 132.415 80.0094 131.289 80.6408C130.163 81.2497 128.654 81.7234 126.762 82.0617C124.893 82.4226 122.426 82.6029 119.363 82.6029C115.287 82.6029 111.807 82.3887 108.924 81.9603C106.042 81.5542 103.688 80.9228 101.864 80.0658C100.039 79.1863 98.6995 78.0699 97.8437 76.7165C97.0104 75.3634 96.5938 73.7508 96.5938 71.879C96.5938 69.9168 96.819 68.2592 97.2693 66.906C97.7423 65.5302 98.418 64.3801 99.2963 63.4554C100.197 62.5308 101.278 61.8091 102.539 61.2903C103.801 60.7716 105.231 60.3769 106.83 60.1063C108.452 59.8357 110.219 59.6666 112.134 59.5988C114.048 59.5313 116.086 59.4974 118.248 59.4974C121.334 59.4974 123.913 59.6327 125.985 59.9033C128.057 60.1513 129.746 60.4783 131.052 60.8844C132.381 61.2678 133.383 61.685 134.059 62.1361C134.735 62.5872 135.219 63.0043 135.512 63.3878C135.512 60.8619 135.399 58.7079 135.174 56.9262C134.971 55.1447 134.622 53.6561 134.127 52.4607C133.654 51.2654 133.034 50.3183 132.269 49.6192C131.503 48.8975 130.557 48.3561 129.431 47.9952C128.327 47.6344 127.032 47.4088 125.546 47.3188C124.059 47.206 122.359 47.1496 120.444 47.1496C117.471 47.1496 115.005 47.2285 113.046 47.3863C111.087 47.5216 109.533 47.8036 108.384 48.2322C107.235 48.6606 106.425 49.2583 105.952 50.0251C105.479 50.7693 105.242 51.7504 105.242 52.9682H98.7559C98.7559 50.9159 99.1162 49.1794 99.8369 47.7585C100.58 46.3377 101.796 45.1874 103.485 44.3079C105.197 43.4058 107.438 42.7517 110.208 42.3458C112.979 41.9397 116.39 41.7369 120.444 41.7369C124.408 41.7369 127.764 42.0639 130.512 42.7178C133.259 43.372 135.478 44.5221 137.167 46.1685C138.879 47.8149 140.106 50.0364 140.849 52.8329C141.615 55.607 141.998 59.1252 141.998 63.3878V81.7911H135.512V76.4459ZM120.444 77.4609C123.305 77.4609 125.692 77.3256 127.606 77.0549C129.543 76.7843 131.097 76.3784 132.269 75.837C133.44 75.2958 134.273 74.6192 134.768 73.8072C135.264 72.9954 135.512 72.0482 135.512 70.9656C135.512 69.8831 135.219 68.9697 134.633 68.2253C134.07 67.4586 133.113 66.8383 131.762 66.3647C130.433 65.8911 128.665 65.5529 126.458 65.3499C124.251 65.1243 121.525 65.0115 118.282 65.0115C115.039 65.0115 112.415 65.0679 110.411 65.1807C108.429 65.2935 106.898 65.5529 105.816 65.9588C104.735 66.3647 104.003 66.9624 103.621 67.7517C103.26 68.5411 103.08 69.6123 103.08 70.9656C103.08 72.3188 103.271 73.4238 103.654 74.2808C104.06 75.1153 104.87 75.7695 106.087 76.2431C107.303 76.7165 109.048 77.0437 111.323 77.224C113.62 77.382 116.661 77.4609 120.444 77.4609ZM184.193 55.5055C184.193 53.8816 184.069 52.5396 183.821 51.4798C183.596 50.3973 183.044 49.5403 182.166 48.9086C181.288 48.2547 179.981 47.8036 178.247 47.5555C176.535 47.2849 174.193 47.1496 171.22 47.1496C168.315 47.1496 165.95 47.4088 164.126 47.9277C162.301 48.4238 160.871 49.1342 159.835 50.0589C158.799 50.9837 158.09 52.0887 157.707 53.3741C157.347 54.6597 157.166 56.0919 157.166 57.6706V81.7911H150.68V42.8194H157.166V49.0102C157.392 48.3111 157.808 47.5441 158.416 46.7099C159.025 45.8527 159.948 45.0634 161.187 44.3417C162.425 43.5975 164.024 42.9772 165.984 42.4811C167.966 41.9849 170.432 41.7369 173.382 41.7369C176.761 41.7369 179.508 42.0413 181.625 42.6503C183.743 43.2367 185.386 44.1162 186.558 45.289C187.751 46.4391 188.551 47.8713 188.956 49.5853C189.384 51.2993 189.598 53.2727 189.598 55.5055H184.193ZM212.301 81.7911L191.76 42.8194H199.328L216.625 77.4609L232.84 42.8194H240.408L220.949 81.7911L219.867 83.9562C219.327 85.0388 218.787 86.0536 218.247 87.0008C217.728 87.9706 217.132 88.8501 216.456 89.6395C215.779 90.4515 214.98 91.1732 214.057 91.8046C213.133 92.4361 211.997 92.9661 210.646 93.3947C209.316 93.8456 207.728 94.1839 205.882 94.4095C204.035 94.6576 201.849 94.7817 199.328 94.7817V89.3689C201.49 89.3689 203.314 89.2787 204.8 89.0982C206.287 88.9404 207.525 88.6923 208.516 88.354C209.529 88.0383 210.34 87.6548 210.95 87.2038C211.557 86.7527 212.064 86.2453 212.47 85.6816C212.875 85.1177 213.212 84.5087 213.483 83.8546C213.775 83.2006 214.101 82.5128 214.463 81.7911H212.301Z" fill="#353A54"/>
</svg>
