<svg width="40" height="10" viewBox="0 0 40 10" fill="none" xmlns="http://www.w3.org/2000/svg">
<path d="M0.457031 0.386719C1.33203 0.417969 2.01172 0.433594 2.49609 0.433594C2.98047 0.433594 3.66016 0.417969 4.53516 0.386719C4.55078 0.449219 4.55859 0.492188 4.55859 0.515625C4.55859 0.542969 4.55078 0.591797 4.53516 0.662109C4.35547 0.677734 4.20898 0.695313 4.0957 0.714844C3.98633 0.730469 3.84961 0.757812 3.68555 0.796875C3.52539 0.835938 3.40234 0.892578 3.31641 0.966797C3.23047 1.03711 3.18555 1.12305 3.18164 1.22461C3.13086 2.55273 3.10547 3.78906 3.10547 4.93359C3.10547 5.52344 3.12695 6.75977 3.16992 8.64258H4.98047C5.55469 8.60352 6.06836 8.51953 6.52148 8.39062C6.97461 8.26172 7.35156 8.09766 7.65234 7.89844C7.95703 7.69531 8.20703 7.48633 8.40234 7.27148C8.60156 7.05273 8.77344 6.80859 8.91797 6.53906C9.01953 6.57812 9.08594 6.63086 9.11719 6.69727C8.95703 6.99414 8.83203 7.23438 8.74219 7.41797C8.65625 7.60156 8.56055 7.84375 8.45508 8.14453C8.35352 8.44141 8.28711 8.72656 8.25586 9H3.16992C2.11133 9 1.20312 9.01172 0.445312 9.03516C0.429688 8.98828 0.421875 8.94922 0.421875 8.91797C0.421875 8.89062 0.429688 8.83789 0.445312 8.75977C0.625 8.74414 0.769531 8.72852 0.878906 8.71289C0.992188 8.69336 1.12891 8.66406 1.28906 8.625C1.45312 8.58594 1.57812 8.53125 1.66406 8.46094C1.75 8.38672 1.79492 8.29883 1.79883 8.19727C1.8457 6.97461 1.86914 5.74219 1.86914 4.5C1.86914 3.23438 1.84961 2.14258 1.81055 1.22461C1.80664 1.12305 1.76172 1.03711 1.67578 0.966797C1.58984 0.892578 1.46484 0.835938 1.30078 0.796875C1.14062 0.757812 1.00391 0.730469 0.890625 0.714844C0.78125 0.695313 0.636719 0.677734 0.457031 0.662109C0.441406 0.591797 0.433594 0.542969 0.433594 0.515625C0.433594 0.476562 0.441406 0.433594 0.457031 0.386719ZM9.70898 3.80273C9.84961 3.81055 9.99023 3.81836 10.1309 3.82617C10.2715 3.83398 10.3828 3.83984 10.4648 3.84375C10.5469 3.84766 10.623 3.84961 10.6934 3.84961C10.752 3.84961 10.8203 3.84766 10.8984 3.84375C10.9766 3.83984 11.082 3.83398 11.2148 3.82617C11.3516 3.81836 11.4824 3.81055 11.6074 3.80273C11.6777 3.82617 11.7344 3.88672 11.7773 3.98438C11.7734 4.01562 11.7656 4.0625 11.7539 4.125C11.7461 4.18359 11.7383 4.25586 11.7305 4.3418C11.7266 4.42383 11.7246 4.52539 11.7246 4.64648L11.7129 7.42969C11.7129 8.13281 11.9258 8.48438 12.3516 8.48438C12.7461 8.48438 13.3066 8.22461 14.0332 7.70508C14.0332 6.54102 14.0156 5.52148 13.9805 4.64648C13.9805 4.57617 13.9668 4.51367 13.9395 4.45898C13.9121 4.4043 13.8691 4.35742 13.8105 4.31836C13.7559 4.2793 13.7051 4.24805 13.6582 4.22461C13.6152 4.19727 13.5508 4.17383 13.4648 4.1543C13.3789 4.13086 13.3184 4.11719 13.2832 4.11328C13.248 4.10547 13.1895 4.09375 13.1074 4.07812C13.0918 4.01562 13.084 3.96875 13.084 3.9375C13.084 3.91016 13.0918 3.86523 13.1074 3.80273C13.2441 3.81055 13.3828 3.81836 13.5234 3.82617C13.668 3.83398 13.7812 3.83984 13.8633 3.84375C13.9453 3.84766 14.0215 3.84961 14.0918 3.84961C14.1504 3.84961 14.2188 3.84766 14.2969 3.84375C14.375 3.83984 14.4805 3.83398 14.6133 3.82617C14.75 3.81836 14.8809 3.81055 15.0059 3.80273C15.0254 3.81445 15.041 3.82617 15.0527 3.83789C15.0684 3.8457 15.0801 3.85742 15.0879 3.87305C15.0996 3.88477 15.1074 3.89453 15.1113 3.90234C15.1152 3.90625 15.1211 3.91992 15.1289 3.94336C15.1367 3.96289 15.1426 3.97656 15.1465 3.98438C15.1152 4.19531 15.0996 4.41602 15.0996 4.64648C15.0762 5.2207 15.0645 5.6875 15.0645 6.04688C15.0645 6.23438 15.0684 6.54883 15.0762 6.99023C15.084 7.43164 15.0879 7.81836 15.0879 8.15039C15.3105 8.2793 15.6855 8.35938 16.2129 8.39062C16.2324 8.48828 16.2422 8.53906 16.2422 8.54297C16.2422 8.56641 16.2324 8.60742 16.2129 8.66602C15.4746 8.73633 14.8145 8.89648 14.2324 9.14648C14.1309 9.10352 14.0645 9.05078 14.0332 8.98828V8.07422C13.6426 8.41016 13.2734 8.67773 12.9258 8.87695C12.582 9.07227 12.2344 9.16992 11.8828 9.16992C11.4375 9.16992 11.1211 9.04492 10.9336 8.79492C10.75 8.54492 10.6543 8.15234 10.6465 7.61719L10.5996 4.64648C10.5918 4.55664 10.5742 4.49023 10.5469 4.44727C10.5234 4.40039 10.4824 4.35742 10.4238 4.31836C10.3691 4.2793 10.3184 4.24805 10.2715 4.22461C10.2246 4.19727 10.1582 4.17383 10.0723 4.1543C9.98633 4.13086 9.92578 4.11719 9.89062 4.11328C9.85547 4.10547 9.79492 4.09375 9.70898 4.07812C9.69336 4.01562 9.68555 3.96875 9.68555 3.9375C9.68555 3.91016 9.69336 3.86523 9.70898 3.80273ZM17.0508 0.574219C17.793 0.503906 18.4512 0.34375 19.0254 0.09375C19.1309 0.136719 19.1992 0.189453 19.2305 0.251953C19.2305 4.67773 19.2461 7.32617 19.2773 8.19727C19.2812 8.2793 19.3047 8.35352 19.3477 8.41992C19.3945 8.48242 19.4453 8.5332 19.5 8.57227C19.5547 8.60742 19.6289 8.64062 19.7227 8.67188C19.8164 8.69922 19.8887 8.71875 19.9395 8.73047C19.9941 8.73828 20.0664 8.74805 20.1562 8.75977C20.1797 8.80664 20.1914 8.85547 20.1914 8.90625C20.1914 8.95703 20.1797 9 20.1562 9.03516C19.6406 9.01172 19.1406 9 18.6562 9C18.1797 9 17.6836 9.01172 17.168 9.03516C17.1523 8.97266 17.1445 8.92969 17.1445 8.90625C17.1445 8.88672 17.1523 8.83789 17.168 8.75977C17.2969 8.74414 17.4004 8.72852 17.4785 8.71289C17.5605 8.69336 17.6621 8.66406 17.7832 8.625C17.9082 8.58594 18.002 8.53125 18.0645 8.46094C18.127 8.38672 18.1602 8.29883 18.1641 8.19727C18.1797 7.81055 18.1875 6.94531 18.1875 5.60156C18.1875 4.98047 18.1855 4.13477 18.1816 3.06445C18.1777 1.99414 18.1758 1.33594 18.1758 1.08984C17.9531 0.960938 17.5781 0.880859 17.0508 0.849609C17.0312 0.798828 17.0215 0.751953 17.0215 0.708984C17.0215 0.669922 17.0312 0.625 17.0508 0.574219ZM20.9004 3.80273C21.041 3.81055 21.1816 3.81836 21.3223 3.82617C21.4629 3.83398 21.5742 3.83984 21.6562 3.84375C21.7383 3.84766 21.8145 3.84961 21.8848 3.84961C21.9434 3.84961 22.0117 3.84766 22.0898 3.84375C22.168 3.83984 22.2734 3.83398 22.4062 3.82617C22.543 3.81836 22.6738 3.81055 22.7988 3.80273C22.8691 3.82617 22.9258 3.88672 22.9688 3.98438C22.9648 4.01562 22.957 4.0625 22.9453 4.125C22.9375 4.18359 22.9297 4.25586 22.9219 4.3418C22.918 4.42383 22.916 4.52539 22.916 4.64648L22.9043 7.42969C22.9043 8.13281 23.1172 8.48438 23.543 8.48438C23.9375 8.48438 24.498 8.22461 25.2246 7.70508C25.2246 6.54102 25.207 5.52148 25.1719 4.64648C25.1719 4.57617 25.1582 4.51367 25.1309 4.45898C25.1035 4.4043 25.0605 4.35742 25.002 4.31836C24.9473 4.2793 24.8965 4.24805 24.8496 4.22461C24.8066 4.19727 24.7422 4.17383 24.6562 4.1543C24.5703 4.13086 24.5098 4.11719 24.4746 4.11328C24.4395 4.10547 24.3809 4.09375 24.2988 4.07812C24.2832 4.01562 24.2754 3.96875 24.2754 3.9375C24.2754 3.91016 24.2832 3.86523 24.2988 3.80273C24.4355 3.81055 24.5742 3.81836 24.7148 3.82617C24.8594 3.83398 24.9727 3.83984 25.0547 3.84375C25.1367 3.84766 25.2129 3.84961 25.2832 3.84961C25.3418 3.84961 25.4102 3.84766 25.4883 3.84375C25.5664 3.83984 25.6719 3.83398 25.8047 3.82617C25.9414 3.81836 26.0723 3.81055 26.1973 3.80273C26.2168 3.81445 26.2324 3.82617 26.2441 3.83789C26.2598 3.8457 26.2715 3.85742 26.2793 3.87305C26.291 3.88477 26.2988 3.89453 26.3027 3.90234C26.3066 3.90625 26.3125 3.91992 26.3203 3.94336C26.3281 3.96289 26.334 3.97656 26.3379 3.98438C26.3066 4.19531 26.291 4.41602 26.291 4.64648C26.2676 5.2207 26.2559 5.6875 26.2559 6.04688C26.2559 6.23438 26.2598 6.54883 26.2676 6.99023C26.2754 7.43164 26.2793 7.81836 26.2793 8.15039C26.502 8.2793 26.877 8.35938 27.4043 8.39062C27.4238 8.48828 27.4336 8.53906 27.4336 8.54297C27.4336 8.56641 27.4238 8.60742 27.4043 8.66602C26.666 8.73633 26.0059 8.89648 25.4238 9.14648C25.3223 9.10352 25.2559 9.05078 25.2246 8.98828V8.07422C24.834 8.41016 24.4648 8.67773 24.1172 8.87695C23.7734 9.07227 23.4258 9.16992 23.0742 9.16992C22.6289 9.16992 22.3125 9.04492 22.125 8.79492C21.9414 8.54492 21.8457 8.15234 21.8379 7.61719L21.791 4.64648C21.7832 4.55664 21.7656 4.49023 21.7383 4.44727C21.7148 4.40039 21.6738 4.35742 21.6152 4.31836C21.5605 4.2793 21.5098 4.24805 21.4629 4.22461C21.416 4.19727 21.3496 4.17383 21.2637 4.1543C21.1777 4.13086 21.1172 4.11719 21.082 4.11328C21.0469 4.10547 20.9863 4.09375 20.9004 4.07812C20.8848 4.01562 20.877 3.96875 20.877 3.9375C20.877 3.91016 20.8848 3.86523 20.9004 3.80273ZM30.5684 9.16992C30.377 9.16992 30.2031 9.1543 30.0469 9.12305C29.8945 9.0918 29.7754 9.05859 29.6895 9.02344C29.6074 8.98828 29.4961 8.93555 29.3555 8.86523C29.2031 8.86523 28.9785 8.92188 28.6816 9.03516C28.6309 9.00391 28.5957 8.96875 28.5762 8.92969C28.5957 8.86719 28.6191 8.6543 28.6465 8.29102C28.6777 7.92773 28.6934 7.60352 28.6934 7.31836C28.7441 7.29492 28.8359 7.2832 28.9688 7.2832C29.0391 7.50977 29.1113 7.70312 29.1855 7.86328C29.2637 8.02344 29.3613 8.17969 29.4785 8.33203C29.5996 8.48047 29.7441 8.59375 29.9121 8.67188C30.084 8.74609 30.2793 8.7832 30.498 8.7832C30.8379 8.7832 31.1035 8.69531 31.2949 8.51953C31.4902 8.34375 31.5879 8.14453 31.5879 7.92188C31.5879 7.75391 31.5605 7.61133 31.5059 7.49414C31.4512 7.37695 31.3281 7.25391 31.1367 7.125C30.9492 6.99219 30.6797 6.86133 30.3281 6.73242C30.1094 6.6543 29.9238 6.58203 29.7715 6.51562C29.6191 6.44922 29.4609 6.36719 29.2969 6.26953C29.1367 6.17188 29.0078 6.07227 28.9102 5.9707C28.8125 5.86523 28.7324 5.74023 28.6699 5.5957C28.6074 5.45117 28.5762 5.29297 28.5762 5.12109C28.5762 4.99609 28.5898 4.87305 28.6172 4.75195C28.6484 4.62695 28.7051 4.49805 28.7871 4.36523C28.873 4.23242 28.9785 4.11719 29.1035 4.01953C29.2324 3.91797 29.4023 3.83594 29.6133 3.77344C29.8281 3.70703 30.0703 3.67383 30.3398 3.67383C30.4492 3.67383 30.5449 3.67969 30.627 3.69141C30.7129 3.70312 30.8145 3.72461 30.9316 3.75586C31.0527 3.7832 31.1191 3.79883 31.1309 3.80273C31.2168 3.7832 31.3047 3.75781 31.3945 3.72656C31.4883 3.69531 31.541 3.67773 31.5527 3.67383H31.7051C31.7988 4.23633 31.9199 4.71484 32.0684 5.10938C32.0215 5.16016 31.9453 5.18555 31.8398 5.18555C31.5156 4.79492 31.2383 4.50977 31.0078 4.33008C30.7812 4.14648 30.5234 4.05469 30.2344 4.05469C30.0078 4.05469 29.8086 4.10547 29.6367 4.20703C29.4648 4.30859 29.3789 4.46289 29.3789 4.66992C29.3789 4.93164 29.4824 5.13672 29.6895 5.28516C29.9004 5.43359 30.2891 5.62305 30.8555 5.85352C31.1172 5.95898 31.3223 6.04688 31.4707 6.11719C31.623 6.1875 31.7754 6.27148 31.9277 6.36914C32.0801 6.4668 32.1914 6.56836 32.2617 6.67383C32.3359 6.77539 32.3965 6.89844 32.4434 7.04297C32.4902 7.1875 32.5137 7.35547 32.5137 7.54688C32.5137 7.96094 32.3223 8.33594 31.9395 8.67188C31.5605 9.00391 31.1035 9.16992 30.5684 9.16992ZM33.5039 0.574219C34.2461 0.503906 34.9043 0.34375 35.4785 0.09375C35.584 0.136719 35.6523 0.189453 35.6836 0.251953V4.75195C36.0703 4.42383 36.4336 4.16211 36.7734 3.9668C37.1133 3.77148 37.459 3.67383 37.8105 3.67383C38.252 3.67383 38.5664 3.79883 38.7539 4.04883C38.9414 4.29883 39.0391 4.68945 39.0469 5.2207L39.0938 8.19727C39.0977 8.29883 39.127 8.38672 39.1816 8.46094C39.2402 8.53125 39.3223 8.58594 39.4277 8.625C39.5332 8.66406 39.6211 8.69336 39.6914 8.71289C39.7617 8.72852 39.8535 8.74414 39.9668 8.75977C39.9863 8.85742 39.9961 8.91016 39.9961 8.91797C39.9961 8.9375 39.9863 8.97656 39.9668 9.03516C39.4629 9.01172 39.0039 9 38.5898 9C38.1719 9 37.7109 9.01172 37.207 9.03516C37.1914 8.97266 37.1836 8.92578 37.1836 8.89453C37.1836 8.86719 37.1914 8.82227 37.207 8.75977C37.3086 8.74414 37.3926 8.72852 37.459 8.71289C37.5293 8.69336 37.6074 8.66406 37.6934 8.625C37.7832 8.58594 37.8496 8.53125 37.8926 8.46094C37.9395 8.38672 37.9629 8.29883 37.9629 8.19727L37.9746 5.41406C37.9746 4.70703 37.7637 4.35352 37.3418 4.35352C36.9473 4.35352 36.3945 4.60938 35.6836 5.12109C35.6992 6.74609 35.7148 7.77148 35.7305 8.19727C35.7344 8.2793 35.7578 8.35352 35.8008 8.41992C35.8477 8.48242 35.8984 8.5332 35.9531 8.57227C36.0078 8.60742 36.082 8.64062 36.1758 8.67188C36.2695 8.69922 36.3418 8.71875 36.3926 8.73047C36.4473 8.73828 36.5195 8.74805 36.6094 8.75977C36.6328 8.80664 36.6445 8.85547 36.6445 8.90625C36.6445 8.95703 36.6328 9 36.6094 9.03516C36.0938 9.01172 35.5938 9 35.1094 9C34.6328 9 34.1367 9.01172 33.6211 9.03516C33.6055 8.97266 33.5977 8.92969 33.5977 8.90625C33.5977 8.88672 33.6055 8.83789 33.6211 8.75977C33.75 8.74414 33.8535 8.72852 33.9316 8.71289C34.0137 8.69336 34.1152 8.66406 34.2363 8.625C34.3613 8.58594 34.4551 8.53125 34.5176 8.46094C34.5801 8.38672 34.6133 8.29883 34.6172 8.19727C34.6328 7.81055 34.6406 6.94531 34.6406 5.60156C34.6406 4.98047 34.6387 4.13477 34.6348 3.06445C34.6309 1.99414 34.6289 1.33594 34.6289 1.08984C34.4062 0.960938 34.0312 0.880859 33.5039 0.849609C33.4844 0.798828 33.4746 0.751953 33.4746 0.708984C33.4746 0.669922 33.4844 0.625 33.5039 0.574219Z" fill="white"/>
</svg>
